<svg xmlns="http://www.w3.org/2000/svg" xmlns:xlink="http://www.w3.org/1999/xlink" viewBox="0 0 352.57 397.6"><defs><style>.cls-1{fill:none;}.cls-2{isolation:isolate;}.cls-3{clip-path:url(#clip-path);}.cls-4{fill:#d59276;}.cls-5{opacity:0.42;}.cls-6{fill:#4f4a88;}.cls-7{fill:#333;}.cls-8{fill:#d18f76;}.cls-9{opacity:0.16;}.cls-13,.cls-9{mix-blend-mode:multiply;}.cls-10{clip-path:url(#clip-path-2);}.cls-11{clip-path:url(#clip-path-3);}.cls-12{fill:#d25b51;}.cls-13{opacity:0.26;}.cls-14{clip-path:url(#clip-path-4);}.cls-15{clip-path:url(#clip-path-5);}.cls-16{fill:#f08371;}.cls-17{clip-path:url(#clip-path-6);}.cls-18{clip-path:url(#clip-path-7);}.cls-19{fill:#161818;}.cls-20{fill:#fdece4;}.cls-21{fill:#886339;}.cls-22{fill:#915d37;}.cls-23{fill:#f05f6a;}.cls-24{fill:#fff;}.cls-25{fill:#cb4b57;}.cls-26{fill:#2e2c66;}.cls-27{fill:#e9e8d7;}</style><clipPath id="clip-path"><rect class="cls-1" width="352.57" height="352"/></clipPath><clipPath id="clip-path-2"><rect class="cls-1" x="188.82" y="207" width="52.35" height="48.24"/></clipPath><clipPath id="clip-path-3"><rect class="cls-1" x="191.2" y="205.24" width="47.59" height="51.76" transform="translate(-18.81 443.19) rotate(-89.28)"/></clipPath><clipPath id="clip-path-4"><rect class="cls-1" x="152.37" y="46.3" width="134.75" height="91.49"/></clipPath><clipPath id="clip-path-5"><rect class="cls-1" x="174.84" y="25.23" width="89.81" height="133.63" transform="translate(124.93 310.61) rotate(-89.28)"/></clipPath><clipPath id="clip-path-6"><rect class="cls-1" x="128.52" y="128.89" width="23.55" height="39.78"/></clipPath><clipPath id="clip-path-7"><rect class="cls-1" x="120.55" y="137.25" width="39.49" height="23.06" transform="translate(-10.23 287.19) rotate(-89.28)"/></clipPath></defs><title>ALMA</title><g class="cls-2"><g id="Layer_1" data-name="Layer 1"><g class="cls-3"><path class="cls-4" d="M192.42,350.77a24.84,24.84,0,0,1-23.16,44c-1.91-1-130.86-85.38-130.86-85.38A21,21,0,0,1,58,272.18Z"/><path class="cls-4" d="M78.41,48.3c-3,2.4-11.78,16.82-14.91,21.21S55.1,82,55.1,82s.06-6-3.59-6.05-7.46,4.22-7.46,4.22.81-2.92-1.68-3.72S36.3,78.6,36.3,78.6s-2.48-2.77-4.87-2.28c-3.39.7-8.6,4.52-11.26,8.07s-7.76,27.14-9.51,31.76-2.22,5.47-2.94,10.48l0,18.66s7.1,7.33,21.19,2.68c7.76-2.56,8-5.76,7.41-9.52s-1.14-7.34,5.6-9.77c9.34-3.36,10.58-8.85,20.67-13.17,0,0,8.48-3.4,16.11-3,0,0,8.89,1.31,10.34-.19s-.74-3.07-4.21-5.56-8.73-3.3-14.5-2.4-9.21,2.25-9.66-1.59S65.77,91.06,67,86.24s4.29-9.82,7.25-16.48,10.5-17.3,10.38-20.87S81.37,45.9,78.41,48.3Z"/><path class="cls-4" d="M25.57,84.08c-1.28,0-1.94,4.65-2.23,5.87,1.73-.94,6.44-7.53,2.15-6Z"/><path class="cls-4" d="M34.46,87.73c.36-2.26,2.94-3.7,4.53-5,1,3.85-3.92,4.15-4.94,6.45Z"/><path class="cls-4" d="M44.87,89.71l-.2,1.66c.73-2.16,5.89-2.1,4.73-6.23C48.51,86.78,44.94,88,44.87,89.71Z"/><path class="cls-4" d="M44.67,91.37a1.56,1.56,0,0,0-.08.66Z"/><g class="cls-5"><path class="cls-4" d="M88.56,109.94c-1.44,1.51-10.34.2-10.34.2-7.63-.39-16.1,3-16.1,3C52,117.47,50.78,123,41.44,126.32c-6.74,2.43-6.23,6-5.6,9.77s1.14,6.3.51,2.54-1.14-7.35,5.6-9.77c9.34-3.37,10.58-8.85,20.67-13.17,0,0,8.48-3.4,16.11-3,0,0,8.89,1.31,10.34-.2.78-.81.51-1.63-.45-2.6A.34.34,0,0,1,88.56,109.94Z"/></g><path class="cls-4" d="M49.42,82.31c1.45.64,2,1.43,3.63.86a5.51,5.51,0,0,0,2.31-1.8c0-1.25-.44-5.67-3.57-5.72-3.65-.06-7.47,4.22-7.47,4.22s.82-2.92-1.67-3.71-6.08,2.1-6.08,2.1S34.09,75.49,31.71,76c-3.39.71-8.6,4.52-11.26,8.06,2.8-1.32,7-3.87,9.43-.87,1.93-.77,3.26-1.79,5.27-1.93s3.88.85,5.77,1.47C42.45,80.28,47.23,81.34,49.42,82.31Z"/><path class="cls-4" d="M21.83,289.82a21,21,0,0,0,24.58,16.23,21.39,21.39,0,0,0,17-24.43h0s-1-37.9-29.48-149.48L7.61,137.3s-.55,100.3,14,151.08C21.68,288.71,21.83,289.82,21.83,289.82Z"/><path class="cls-6" d="M85.68,284l70.64,48.23a27.43,27.43,0,0,1-29,46.55c-1.13-.71-34.07-25.66-70.62-53.39C62.79,314.85,73.63,297.5,85.68,284Z"/><path d="M112.61,253c0,4.31-.14,8.71,0,13.11a.28.28,0,0,1,.08.25l-.06.61a87,87,0,0,0,1.25,12.86c2.59,14.14,10.33,26.94,11.64,41.35.73,8.05-1.28,15.82-3.3,23.55-1.68,6.49-3.56,13-4.87,19.54,22.48,1.86,45.28,1.59,67.67,2,11.25.22,22.48.75,33.73.84q17.49.13,35-.59c21.82-.89,43.6-2.74,65.3-5.25,2-17.41,3.09-34.95,4.69-52.41,1.34-14.57,3.68-29,4.39-43.66.7-14.25.38-28.51,0-42.76s-.8-28.62-.3-42.94a264.1,264.1,0,0,1,2.87-30.8c-.22-5.6-.35-11.19-.61-16.79-4.15-18.25-.6-38.34-4.34-56.65-4.25-20.76-22.77-47.09-45.84-48.4-3.25-.18-6.54.15-9.73-.5s-6.12-2.29-9.06-3.75c-27.6-13.79-70.67-15.51-96.19,4.17-11.08,8.55-19,19.34-24.93,31.34a185.67,185.67,0,0,0-8.41,29.58,287.8,287.8,0,0,0-4.64,32.53c-1.58,17.72-4,35.34-6.52,53-1,7.37-2.09,14.74-3.06,22.12a29.38,29.38,0,0,1-.7,7.49.28.28,0,0,1-.29.26c-.94,7.67-1.78,15.34-2.42,23-.75,8.94-1.23,17.9-1.33,26.87m145,39.5c-.39.27-.76-.38-.36-.65a36.55,36.55,0,0,0,6.07-5.66.29.29,0,0,1,.15-.16h0l.17-.18a.33.33,0,0,1,.21-.11l.17-.17c.2-.23.39-.47.61-.69a.39.39,0,0,1,.53,0,.37.37,0,0,1,0,.52,6.6,6.6,0,0,1-1.21,1.21,38,38,0,0,1-6.33,5.89M171,288.92c-.4-.26,0-.9.39-.64,3.07,2,6,4.09,9.27,5.77.42.22,0,.86-.39.64-3.24-1.68-6.19-3.82-9.27-5.77"/><path class="cls-7" d="M281.1,347.82c-.21-.12,1-2.43,2.87-6.69a115.16,115.16,0,0,0,10.09-47.38,109.29,109.29,0,0,0-5.88-34.93c-4.15-11.94-9.61-22.93-12.94-33.65a73.51,73.51,0,0,1-3.32-15.6,56.17,56.17,0,0,1,.45-13.93c1.38-8.48,4.88-14.78,8-18.33a21,21,0,0,1,2.2-2.27,12.53,12.53,0,0,1,1.78-1.47c1-.73,1.57-1.07,1.63-1,.18.22-2,1.76-4.74,5.44a37.89,37.89,0,0,0-6.91,17.92,55.29,55.29,0,0,0-.09,13.4,73.14,73.14,0,0,0,3.46,15c3.38,10.43,8.88,21.32,13.14,33.52a108.08,108.08,0,0,1,5.8,35.86,109.94,109.94,0,0,1-4.27,29.34A96.41,96.41,0,0,1,285,341.61c-2.23,4.16-3.74,6.29-3.87,6.21"/><path class="cls-7" d="M247.09,307.21c-.45-.08.63-6,1.38-15.56a179.7,179.7,0,0,0-.84-37.41c-1.67-14.53-6.11-27.21-7.07-37.05a45.51,45.51,0,0,1,0-11.61,20.68,20.68,0,0,1,.66-3.09c.21-.69.36-1,.46-1,.49.07-.8,6,.86,15.44.76,4.71,2.2,10.23,3.83,16.43a155.47,155.47,0,0,1,4.08,20.54,148.06,148.06,0,0,1,0,38c-1.28,9.66-3.07,15.43-3.39,15.35"/><path class="cls-7" d="M117.06,193.2a119.29,119.29,0,0,0,9.24-31.59c1.83-10.92,1.94-21.7,2.18-32.28a137.56,137.56,0,0,1,1.19-15.68,93.27,93.27,0,0,1,3.51-14.88,214.73,214.73,0,0,1,11.15-26.56,125.07,125.07,0,0,1,13.73-22.79A78,78,0,0,1,176,33.08a89.83,89.83,0,0,1,9.68-5.55l4.89-2.12,1.2-.52,1.22-.42,2.42-.83c3.16-1.2,6.38-1.81,9.4-2.64l4.55-.78,2.2-.38,2.18-.2,4.22-.39c1.38-.07,2.73,0,4.05-.07s2.6-.09,3.85,0l3.64.26a77.82,77.82,0,0,1,21.2,4.81c2.32.9,4,1.81,5.16,2.33a10.18,10.18,0,0,1,1.7.9,9.09,9.09,0,0,1-1.83-.64c-1.19-.43-2.9-1.24-5.23-2.05a81.52,81.52,0,0,0-21.08-4.24l-3.6-.2c-1.23-.09-2.5,0-3.79,0s-2.63.05-4,.14l-4.15.44-2.14.23-2.16.4-4.46.83c-3,.85-6.12,1.48-9.21,2.7l-2.36.84-1.2.42-1.16.52-4.77,2.13A87.31,87.31,0,0,0,177,34.59a76.72,76.72,0,0,0-17.31,16.07,123.65,123.65,0,0,0-13.33,22.51c-3.9,8.29-7.91,17-10.88,26.32a89.93,89.93,0,0,0-3.35,14.5A138.13,138.13,0,0,0,131,129.4c-.19,10.49-.26,21.51-2.08,32.61a121.21,121.21,0,0,1-9.71,33.07c-.62,1.31-1.26,2.62-1.94,3.91a18.41,18.41,0,0,0-.19-5.79"/><path class="cls-7" d="M112.67,266.33a.31.31,0,0,0-.31-.35c3-4.49,6.16-8.78,9.2-12.91,8.63-11.57,16.71-22.26,22.72-32.86s10-21,11.51-30.49a63.43,63.43,0,0,0-.65-24.55,49,49,0,0,0-5.91-14.41c-.91-1.55-1.74-2.64-2.27-3.39a5.41,5.41,0,0,1-.75-1.19,5.66,5.66,0,0,1,1,1,26.53,26.53,0,0,1,2.53,3.26,46.29,46.29,0,0,1,6.51,14.45A63.76,63.76,0,0,1,157.37,190c-1.4,9.77-5.3,20.47-11.34,31.23s-14,21.68-22.56,33.27c-3.73,5.14-7.56,10.47-11.18,16.12.11-1.42.25-2.83.38-4.25"/><path class="cls-7" d="M299.47,47.92A22.43,22.43,0,0,1,303.78,50a25.36,25.36,0,0,1,6,5,32.78,32.78,0,0,1,5.66,9,57.15,57.15,0,0,1,3.67,12.79,110.48,110.48,0,0,1,1.37,15.73c.12,5.66-.06,11.7-.39,18.09s-.85,13.1-.79,20.14a122.94,122.94,0,0,0,1.76,22,65.86,65.86,0,0,0,7.15,20.45l0,4.47c-.34-.52-.68-1.05-1-1.58a66.6,66.6,0,0,1-8.26-22.95,125,125,0,0,1-1.62-22.35c0-7.14.63-13.89,1-20.25s.65-12.35.61-18A112.06,112.06,0,0,0,317.77,77a57.1,57.1,0,0,0-3.35-12.57,32.4,32.4,0,0,0-5.28-8.89,26.31,26.31,0,0,0-5.66-5,27.71,27.71,0,0,0-4.12-2.27,6.31,6.31,0,0,1-1.44-.74,6.47,6.47,0,0,1,1.55.47"/><path class="cls-7" d="M310.13,163.17a24.81,24.81,0,0,1,1.14-3.64,4.14,4.14,0,0,1,.52-1.18,4.33,4.33,0,0,1-.25,1.27c-.19.83-.59,2-.85,3.67a46.57,46.57,0,0,0-.53,14.35,73,73,0,0,0,6.28,21.85c2.91,6.69,7.11,13.64,11.92,21.13.16,1.45.31,2.91.45,4.37-5.58-8.83-10.58-17-13.83-24.87a72.27,72.27,0,0,1-5.93-22.37,43.79,43.79,0,0,1,1.08-14.58"/><path class="cls-7" d="M175.47,241.37c-2.75,5.63-6.11,11.42-9.66,17.43s-7.26,12.31-10.41,19.13a119.41,119.41,0,0,0-10.91,44.93,135.9,135.9,0,0,0,.91,21.66c.87,7.52,2,14.6,3,21.22l-2.38-.06c-1.09-6.47-2.27-13.42-3.22-20.85a134.46,134.46,0,0,1-1.09-22.09,118.93,118.93,0,0,1,11.18-46,208.6,208.6,0,0,1,10.68-19.29c3.61-6,7-11.65,9.8-17.14a85.72,85.72,0,0,0,6.31-15.83c2.78-10.07,2.62-18.71,1.35-24.39s-2.89-8.59-2.61-8.72a7.92,7.92,0,0,1,1.27,2,32.12,32.12,0,0,1,2.42,6.44,41.29,41.29,0,0,1,1.37,10.82A60.63,60.63,0,0,1,181.61,225a83.89,83.89,0,0,1-6.14,16.37"/><path class="cls-8" d="M156.65,304.12a153.32,153.32,0,0,0,14.84-14.89c2.9,1.86,5.71,3.87,8.78,5.46.43.22.81-.42.39-.64-3-1.57-5.82-3.55-8.69-5.4a58.47,58.47,0,0,0,9.88-16.7c7.57-20.31,7.44-42.48,11.68-63.54a47.14,47.14,0,0,1,21.14,0c2.64.57,24.3,6.13,24,9.11-1.29,13.17-.79,34.29,4.72,46.51,4,8.85,11.87,15.49,20.85,21.29-.08.08-.15.17-.22.25a1.37,1.37,0,0,1-.17.17.33.33,0,0,0-.21.11l-.17.18h0a.29.29,0,0,0-.15.16,37,37,0,0,1-6.07,5.66c-.4.27,0,.92.36.65a37.58,37.58,0,0,0,6.33-5.89,4,4,0,0,0,.93-.9c6.27,4,13,7.61,19.38,11.29L283.34,321,145,315.76c3.75-4.07,7.64-8,11.67-11.64"/><path class="cls-6" d="M162,299.19a120.81,120.81,0,0,0,9.52-10c1.56,1,3.1,2,4.67,3,10.54,8.36,23.09,14,36.49,15.2a60.71,60.71,0,0,0,45.14-15.11,38.37,38.37,0,0,0,6.17-5.78,3.79,3.79,0,0,0,.93-.9c9.64,6.14,20.44,11.37,29.08,17.34l-2.33,61c-12.62,1.1-25.25,1.95-37.91,2.47q-17.49.72-35,.59c-11.25-.09-22.48-.62-33.73-.84-8.48-.17-17-.24-25.59-.35Z"/><path class="cls-6" d="M156.65,304.12a153.3,153.3,0,0,0,14.83-14.9c2.65,1.71,5.22,3.52,8,5,5,23.88,8.71,48,11.49,72.18q-3-.09-5.95-.15c-24.33-.49-49.14-.12-73.5-2.56,11.43-21.9,26.89-43,45.15-59.6"/><path class="cls-6" d="M257.62,292.47a38,38,0,0,0,6.33-5.89,4,4,0,0,0,.94-.9c11.69,7.46,25.14,13.57,34.3,21.3,12.86,10.85,24.21,24.28,35.36,36.23,1.64,1.75,6.68,7.43,13,14.39-8.5,1.18-17,2.32-25.53,3.33-19.69,2.33-39.44,4.13-59.25,5.17q-2.18-36.8-5.47-73.59a.31.31,0,0,0,.29,0"/><g class="cls-9"><g class="cls-10"><g class="cls-11"><path class="cls-12" d="M203.06,246.63A126,126,0,0,1,189,240c1.41-10.56,2.44-21.21,4.53-31.59a47.14,47.14,0,0,1,21.14,0c2.64.57,24.3,6.13,24,9.11-1,10.4-.91,25.74,1.89,37.76a129,129,0,0,1-37.51-8.61"/></g></g></g><path class="cls-8" d="M297.61,136.75c3.3-4.33,9.53-5.92,14.74-4.31a17.9,17.9,0,0,1,11.11,11.19c4.55,12.72-1.83,28.42-12.7,35.73a32.55,32.55,0,0,1-21,5.33"/><path d="M296.21,178.49c0-.14.7-.27,1.89-.65a10.31,10.31,0,0,0,4.37-2.57,4.81,4.81,0,0,0,.35-6.35c-.82-1.12-2.05-2.17-3.08-3.67a14.65,14.65,0,0,1-1.2-2.49A12.41,12.41,0,0,1,298,160a16,16,0,0,1,2.94-9.85,17.4,17.4,0,0,1,6.13-5.66,11.79,11.79,0,0,1,5.44-1.43c1.33.1,2,.32,2,.43s-.74.19-2,.31a13.39,13.39,0,0,0-4.82,1.85,17.41,17.41,0,0,0-5.33,5.46,14.83,14.83,0,0,0-2.51,8.76,11.05,11.05,0,0,0,.4,2.31,14.82,14.82,0,0,0,1,2.05c.82,1.25,2,2.32,2.95,3.68a6.07,6.07,0,0,1,1.15,4.67,6.56,6.56,0,0,1-2,3.64,9.61,9.61,0,0,1-5.17,2.35c-1.31.17-2,.05-2.05-.07"/><path class="cls-8" d="M167.48,57.89a42.87,42.87,0,0,1,17.68-15.16c19.3-8.93,42-9.46,62.49-4.87,15.7,3.51,32.24,10.16,42.61,23,9.62,11.92,12.95,29.47,14.24,44.36,1.91,22.12-1.88,43.68-4.51,65.61-1.63,13.57-4.41,27.4-11.8,38.89-15.11,23.51-45.88,26.78-71.21,22.82-14.95-2.34-26.89-6.59-38.12-17.12-13.35-12.52-17.17-29.33-20.71-46.8-3.9-19.2-4.94-38.91-4.45-58.47.45-17.63,3.6-37.34,13.78-52.27"/><g class="cls-13"><g class="cls-14"><g class="cls-15"><path class="cls-16" d="M287,56.6a38.69,38.69,0,0,1-19.15,32.24c-14.21,8.08-32.81,6.61-45.89,16.41-7,5.22-11.5,13-17.77,19.11a45.83,45.83,0,0,1-13.89,9.2,33.7,33.7,0,0,1-10.09,2.67c-11.26,1-22.15-2.24-27.69-12.89a230.48,230.48,0,0,0,21.84-12.13c4.64-2.88,9.37-6,12.28-10.63,4.55-7.23,3.75-16.51,6.16-24.71,3.46-11.81,13.71-20.83,25.28-25s24.31-4.1,36.46-2.16"/></g></g></g><path class="cls-8" d="M161.36,133.84c-7.22-20.5-35.34-14.53-40.7,3.56-2.17,7.33-1,15.39,2.5,22.26,8,15.8,26.2,24.42,44.4,20.16"/><path d="M162.1,48.87a157.07,157.07,0,0,1,37.54-18.16c5.47-1.79,10.81-3.37,16.11-4.59A159.51,159.51,0,0,1,247,30.5c14.61,3.47,30,7.91,42.85,15.25a61.46,61.46,0,0,1-2.65,9.07,47.29,47.29,0,0,1-29.66,27.71c-9.83,3-20.56,2.83-30,6.85C217.55,93.59,210.11,102,203,110.09s-14.67,16.43-24.69,20.45-23.26,2.27-29.09-6.81c-4.46-7-3.49-16-2.22-24.11,2.72-17.48,6.47-35.6,15.12-50.75"/><path class="cls-7" d="M169,125.36c-.07-.24,2-.73,5.26-2.69s7.34-5.6,11.34-11.07c2-2.71,4-5.87,6.32-9.22a66.36,66.36,0,0,1,8.22-10.22,40.68,40.68,0,0,1,12.26-8A121.82,121.82,0,0,1,227,79.11c10.07-3,19.66-5.54,27.73-9.39a50.28,50.28,0,0,0,18.53-14.2,33.91,33.91,0,0,0,6.87-14.15c.75-3.7.64-5.84.9-5.85s.63,2.12.2,6a32.38,32.38,0,0,1-6.36,15.19,45.92,45.92,0,0,1-7.9,8.31,56.83,56.83,0,0,1-11.1,7c-8.3,4.12-18.06,6.82-28.06,9.76a130,130,0,0,0-14.29,4.88,39,39,0,0,0-11.57,7.34,67.18,67.18,0,0,0-8.1,9.68c-2.34,3.26-4.47,6.38-6.66,9.09-4.31,5.47-8.85,9.12-12.4,10.82S169,125.5,169,125.36"/><path class="cls-7" d="M149.61,102.93c-.09,0-.11-.52,0-1.48,0-.48.09-1.08.17-1.77s.3-1.58.46-2.39a42.1,42.1,0,0,1,6.17-14.21,44.64,44.64,0,0,1,30.18-19.7,97,97,0,0,1,14.52-1.31c9.89-.24,19.25-.08,27.37-2a41.35,41.35,0,0,0,19.29-10.17A45,45,0,0,0,256.84,38c1.67-3.15,2.34-5,2.57-5s-.17,2.06-1.57,5.45a40.63,40.63,0,0,1-8.71,12.82A42.56,42.56,0,0,1,240.6,58a42.69,42.69,0,0,1-11.54,4.64c-8.53,2.18-18.14,2.07-27.91,2.32A100.86,100.86,0,0,0,187,66.12,45,45,0,0,0,174.67,70,45.74,45.74,0,0,0,158,84.23a47.16,47.16,0,0,0-6.75,13.35l-.7,2.27c-.14.57-.29,1.13-.43,1.69-.25.92-.43,1.4-.53,1.39"/><path class="cls-7" d="M176.11,52.33c-.25-.17,1.75-3.46,6.85-6.69a42.48,42.48,0,0,1,9.49-4.36,96.22,96.22,0,0,1,12.3-3c4.36-.81,8.5-1.54,12.18-2.4a65.79,65.79,0,0,0,9.58-2.91c5.29-2.09,8.11-4.35,8.4-4s-2.22,3.13-7.58,5.83a51.73,51.73,0,0,1-9.75,3.62c-3.77,1-8,1.84-12.31,2.65s-8.42,1.68-12,2.73a51.9,51.9,0,0,0-9.28,3.6c-5,2.6-7.5,5.28-7.85,4.95"/><g class="cls-13"><g class="cls-17"><g class="cls-18"><path class="cls-16" d="M129.32,142.24a31.55,31.55,0,0,1,2.21-7.2c1.75-3.95,3.39-7.78,8.16-5.22,3.25,1.74,5.91,5.48,7.57,8.71,2.92,5.7,4.92,11.22,4.42,17.77a3.88,3.88,0,0,1-.48,1.84c-.9,1.36-2.94,1.16-4.47.62s-3.25-1.3-4.7-.56c-3.61,1.83-.86,8,.54,10.36,0-.06-5.54-1-6.31-1.42a10.87,10.87,0,0,1-4.55-4.68,35.28,35.28,0,0,1-2.39-20.22"/></g></g></g><path d="M302.32,107.92S287.89,87,279.1,94.72s-5,8.73-5,8.73Z"/><path d="M181.84,106.46s29.29-31.25,40.34-19.33c6.45,7,1.62,11.34,1.62,11.34Z"/><path class="cls-19" d="M219.27,111.2c-1.48,3.42-6.11,6-9.33,7.38a7.69,7.69,0,0,0-5.62-3.18c-5.47-.21-10.17,6.73-10.5,15.51s3.82,16.06,9.28,16.27,10.17-6.74,10.51-15.51a24,24,0,0,0-.89-7.56c4.31-3.51,6.55-12.91,6.55-12.91"/><path class="cls-20" d="M190.48,125.47a14.47,14.47,0,0,0,15.28,6.87,14.48,14.48,0,0,0-15.28-6.87"/><path class="cls-19" d="M285.88,122.21c-1,2.34-4.15,4.1-6.39,5.09a5.53,5.53,0,0,0-3.79-1.89c-4.12-.16-7.67,5.08-7.92,11.69s2.88,12.11,7,12.26,7.66-5.08,7.92-11.69a17.54,17.54,0,0,0-1-6.79c2.78-2.64,4.22-8.67,4.22-8.67"/><path class="cls-20" d="M287.76,132.92A14.76,14.76,0,0,1,273.62,138a14.76,14.76,0,0,1,14.14-5.11"/><path class="cls-21" d="M240.24,169.37c-2.4-1-4.77-2.41-7.36-2.24a24.83,24.83,0,0,0,13,13.53,3.82,3.82,0,0,0,1.42.39,3.76,3.76,0,0,0,1.71-.56,29.2,29.2,0,0,0,8.82-7.27,5.51,5.51,0,0,0,1.17-2c.69-2.48-1.05-2-2.56-1.47a23.24,23.24,0,0,1-16.2-.39"/><path class="cls-22" d="M246.47,179.25c1.57-1.31,3.33-2.4,4.95-3.67a39.38,39.38,0,0,0,5.51-5.21c-7.92-5.92-7.51-14.4-6.75-24a28.07,28.07,0,0,1,4-12.29,27.89,27.89,0,0,1,6.85-7.66,10.2,10.2,0,0,1,2.87-1.45c-.52.55-.89,1.2-1.36,1.77a54.12,54.12,0,0,0-3.62,4.51,34.67,34.67,0,0,0-5.68,16.43,28.24,28.24,0,0,0,1.4,11.32,22.27,22.27,0,0,0,7.74,10.81s-5.8,6.27-6.37,6.77a28.29,28.29,0,0,1-4.75,3.46c-1.66,1-3.57,2.12-5.56,2a3.24,3.24,0,0,1-1.74-.59,6.46,6.46,0,0,0,1-.74c.14-.11.26-.24.39-.36q.57-.56,1.17-1.05"/><path class="cls-22" d="M207.31,209.79a29.27,29.27,0,0,0,23.64,6c-3.46,3.22-7.62,4.65-12.19,3.45s-9.1-5.36-11.45-9.46"/><path class="cls-23" d="M253.88,194.75a39.32,39.32,0,0,1-15.74,13.85,30,30,0,0,1-17.54,2.45,26.46,26.46,0,0,1-15.64-8.4c-8-8.63-9.72-20.47-9.72-20.47,37.16.78,57.79,12.1,58.61,12.55Z"/><path class="cls-24" d="M253.88,194.75s-1.19,1.73-6.89,2.66-41.16-6.88-45-8.78-6.77-6.45-6.77-6.45c37.16.78,57.79,12.1,58.61,12.55Z"/><path class="cls-25" d="M238.14,208.6a30,30,0,0,1-17.54,2.45,26.46,26.46,0,0,1-15.64-8.4c7.45-2.27,24-5.56,33.18,5.95"/><path class="cls-24" d="M220.41,321.18c-21.75,0-42.65-8.67-60.14-21.86A126.41,126.41,0,0,0,172,287.12c11.33,10.34,25.47,17.38,40.7,18.79,19.48,1.8,39.88-7,51.73-22.13,4.59,3,9.48,5.71,14.28,8.42-12.82,18.1-35.79,28.94-58.34,29"/><path class="cls-26" d="M250.83,296.89c1.53,2.06,3.13,4.29,4.74,6.64s3.11,4.63,4.48,6.8c-.52.31-1,.63-1.55.93-1.4-2.11-2.9-4.35-4.49-6.66s-3.22-4.64-4.72-6.76c.52-.3,1-.63,1.54-.95"/><path class="cls-26" d="M236.33,303.49c1.81,2.92,3.74,6.11,5.7,9.5.87,1.51,1.71,3,2.52,4.43-.61.2-1.21.41-1.83.6-.77-1.36-1.55-2.71-2.33-4.08-1.95-3.32-3.84-6.55-5.82-9.95.59-.16,1.17-.32,1.76-.5"/><path class="cls-26" d="M220.58,306.11c.42,3.62.83,7.62,1.2,11.86.09,1.09.18,2.15.26,3.21h-.51l-1.38,0c-.08-1-.17-2-.26-3-.34-4-.67-7.85-1-12,.57,0,1.14,0,1.71,0"/><path class="cls-26" d="M200.87,313c.22-3.21.44-6.33.65-9.45l1.82.52c-.16,2.9-.35,5.93-.57,9.07q-.22,3-.46,5.89l-1.86-.45c.14-1.84.28-3.69.42-5.58"/><path class="cls-26" d="M185.06,302.58c.66-1.83,1.31-3.6,1.95-5.33.55.32,1.1.61,1.66.91q-.88,2.47-1.83,5.07c-1.19,3.26-2.34,6.38-3.43,9.29l-1.64-.75c1-2.9,2.12-6,3.29-9.19"/><path class="cls-27" d="M290.89,66.18a9.93,9.93,0,0,1,2.49-.44c-.83.16-1.66.29-2.49.44"/><path class="cls-6" d="M261,395.22c-44.59,6.6-100.74-7.7-149.79-31.21l233.55-5.64c-19.61,17.65-47,31.4-83.76,36.85"/></g></g></g></svg>