<svg xmlns="http://www.w3.org/2000/svg" xmlns:xlink="http://www.w3.org/1999/xlink" viewBox="0 0 377.18 461"><defs><style>.cls-1{fill:none;}.cls-2{isolation:isolate;}.cls-3{clip-path:url(#clip-path);}.cls-4{fill:#333;}.cls-5{fill:#d18f76;}.cls-6{fill:#4f4a88;}.cls-7{opacity:0.16;}.cls-11,.cls-7{mix-blend-mode:multiply;}.cls-8{clip-path:url(#clip-path-2);}.cls-9{clip-path:url(#clip-path-3);}.cls-10{fill:#d25b51;}.cls-11{opacity:0.26;}.cls-12{clip-path:url(#clip-path-4);}.cls-13{clip-path:url(#clip-path-5);}.cls-14{fill:#f08371;}.cls-15{clip-path:url(#clip-path-6);}.cls-16{clip-path:url(#clip-path-7);}.cls-17{fill:#161818;}.cls-18{fill:#fdece4;}.cls-19{fill:#886339;}.cls-20{fill:#915d37;}.cls-21{fill:#f05f6a;}.cls-22{fill:#fff;}.cls-23{fill:#cb4b57;}.cls-24{fill:#2e2c66;}.cls-25{fill:#e9e8d7;}.cls-26{fill:#d59276;}</style><clipPath id="clip-path"><rect class="cls-1" width="377.18" height="461"/></clipPath><clipPath id="clip-path-2"><rect class="cls-1" x="162.72" y="271.1" width="68.56" height="63.17"/></clipPath><clipPath id="clip-path-3"><rect class="cls-1" x="165.84" y="268.8" width="62.32" height="67.79" transform="translate(-108.14 495.87) rotate(-89.28)"/></clipPath><clipPath id="clip-path-4"><rect class="cls-1" x="114.98" y="60.64" width="176.48" height="119.81"/></clipPath><clipPath id="clip-path-5"><rect class="cls-1" x="144.41" y="33.05" width="117.62" height="175.01" transform="translate(80.12 322.24) rotate(-89.28)"/></clipPath><clipPath id="clip-path-6"><rect class="cls-1" x="83.76" y="168.8" width="30.84" height="52.09"/></clipPath><clipPath id="clip-path-7"><rect class="cls-1" x="73.32" y="179.75" width="51.72" height="30.19" transform="translate(-96.9 291.57) rotate(-89.28)"/></clipPath></defs><title>ALMA</title><g class="cls-2"><g id="Layer_1" data-name="Layer 1"><g class="cls-3"><path d="M62.91,331.31c-.06,5.64-.17,11.4,0,17.16a.41.41,0,0,1,.11.34c0,.26,0,.53-.08.79a114.63,114.63,0,0,0,1.64,16.84C68,385,78.08,401.72,79.79,420.6c1,10.55-1.67,20.72-4.31,30.84-2.21,8.5-4.66,17-6.37,25.59,29.43,2.44,59.29,2.09,88.62,2.67,14.72.29,29.43,1,44.16,1.1q22.92.18,45.83-.77c28.59-1.17,57.11-3.59,85.52-6.88,2.62-22.8,4.05-45.77,6.15-68.63,1.75-19.09,4.81-38,5.75-57.19.91-18.65.49-37.34,0-56s-1-37.49-.39-56.24a346.41,346.41,0,0,1,3.76-40.34c-.29-7.33-.46-14.66-.8-22-5.43-23.9-.78-50.22-5.68-74.19-5.56-27.19-29.82-61.67-60-63.39-4.26-.24-8.57.2-12.75-.66s-8-3-11.86-4.91c-36.15-18-92.55-20.31-126,5.47C116.9,46.28,106.57,60.41,98.76,76.14a242.94,242.94,0,0,0-11,38.73,379.83,379.83,0,0,0-6.08,42.6c-2.06,23.21-5.26,46.29-8.54,69.36-1.37,9.65-2.73,19.31-4,29a38.84,38.84,0,0,1-.92,9.81.38.38,0,0,1-.38.35c-1.24,10-2.33,20.08-3.17,30.16-1,11.71-1.61,23.44-1.75,35.19M252.84,383c-.52.36-1-.49-.48-.85a47.67,47.67,0,0,0,7.95-7.41.39.39,0,0,1,.19-.21h0l.22-.23a.38.38,0,0,1,.27-.14l.22-.23c.27-.3.52-.62.81-.9a.5.5,0,0,1,.69,0,.49.49,0,0,1,0,.69,9.14,9.14,0,0,1-1.59,1.58,49.15,49.15,0,0,1-8.28,7.71m-113.45-4.65a.49.49,0,0,1,.51-.83c4,2.55,7.89,5.36,12.13,7.56.56.29.06,1.12-.5.83-4.24-2.2-8.11-5-12.14-7.56"/><path class="cls-4" d="M283.58,455.52c-.27-.15,1.28-3.18,3.76-8.76a152.28,152.28,0,0,0,8.51-24.32,150.44,150.44,0,0,0,4.7-37.73A143.46,143.46,0,0,0,292.86,339c-5.44-15.64-12.6-30-16.95-44.06a95.42,95.42,0,0,1-4.34-20.44,72.63,72.63,0,0,1,.58-18.24c1.8-11.1,6.4-19.35,10.53-24a26.8,26.8,0,0,1,2.88-3,16.46,16.46,0,0,1,2.33-1.93c1.33-.95,2.06-1.4,2.13-1.3.24.29-2.56,2.31-6.21,7.12s-7.64,12.78-9.05,23.48a73.05,73.05,0,0,0-.12,17.54,96.06,96.06,0,0,0,4.54,19.7c4.42,13.66,11.63,27.91,17.21,43.9a141.46,141.46,0,0,1,7.6,47,144.1,144.1,0,0,1-5.6,38.43,126.21,126.21,0,0,1-9.74,24.26c-2.92,5.44-4.89,8.23-5.07,8.12"/><path class="cls-4" d="M239,402.35c-.58-.12.83-7.84,1.81-20.39a235.51,235.51,0,0,0-1.1-49c-2.19-19-8-35.64-9.26-48.53a58.63,58.63,0,0,1,0-15.2,25,25,0,0,1,.86-4c.27-.91.47-1.37.6-1.34.64.09-1.05,7.86,1.13,20.22,1,6.17,2.88,13.4,5,21.51a204.49,204.49,0,0,1,5.34,26.9,193.57,193.57,0,0,1,0,49.75c-1.68,12.65-4,20.2-4.44,20.11"/><path class="cls-4" d="M68.74,253a156.52,156.52,0,0,0,12.11-41.37c2.39-14.3,2.54-28.41,2.85-42.27a183.13,183.13,0,0,1,1.55-20.54,121.85,121.85,0,0,1,4.61-19.48c4-12.49,9.39-23.9,14.6-34.78s11.06-21.08,18-29.86a102.68,102.68,0,0,1,23.43-21.4,117.58,117.58,0,0,1,12.68-7.27l6.4-2.78,1.57-.68,1.6-.54L171.29,31c4.14-1.59,8.35-2.38,12.31-3.46l6-1,2.89-.5,2.86-.26,5.52-.51c1.81-.09,3.58-.06,5.3-.09s3.41-.12,5,0l4.77.34a101.21,101.21,0,0,1,27.76,6.3c3,1.18,5.24,2.36,6.76,3.05A11.79,11.79,0,0,1,252.68,36a12.53,12.53,0,0,1-2.38-.84c-1.57-.56-3.8-1.63-6.86-2.69a107.77,107.77,0,0,0-27.61-5.56l-4.71-.25c-1.61-.12-3.27.05-5,.06s-3.44.05-5.22.17l-5.43.58-2.81.3-2.83.52L184,29.4c-3.88,1.11-8,1.94-12.06,3.54L168.87,34l-1.57.56-1.53.68-6.24,2.79a114.56,114.56,0,0,0-12.34,7.24,100.33,100.33,0,0,0-22.67,21C117.83,75,112.22,85,107.05,95.83S96.7,118.06,92.81,130.3a117.86,117.86,0,0,0-4.4,19A181.66,181.66,0,0,0,87,169.47c-.25,13.74-.35,28.18-2.73,42.71a159,159,0,0,1-12.72,43.31c-.8,1.72-1.65,3.43-2.53,5.12a24.13,24.13,0,0,0-.26-7.59"/><path class="cls-4" d="M63,348.81a.41.41,0,0,0-.41-.47c4-5.88,8.07-11.49,12.06-16.91,11.29-15.14,21.88-29.15,29.74-43s13.1-27.46,15.08-39.92a83.44,83.44,0,0,0-.85-32.15,64.32,64.32,0,0,0-7.74-18.87c-1.19-2-2.28-3.46-3-4.45a6.22,6.22,0,0,1-1-1.56s.48.41,1.28,1.33a35.62,35.62,0,0,1,3.31,4.27A60.71,60.71,0,0,1,120,216a83.29,83.29,0,0,1,1.5,32.82c-1.83,12.79-6.93,26.81-14.84,40.9s-18.4,28.39-29.55,43.57C72.26,340,67.24,347,62.5,354.36q.22-2.78.5-5.55"/><path class="cls-4" d="M307.64,62.76a29.73,29.73,0,0,1,5.65,2.69A33.85,33.85,0,0,1,321.15,72a42.8,42.8,0,0,1,7.4,11.8,74.6,74.6,0,0,1,4.81,16.75,143.3,143.3,0,0,1,1.79,20.6c.17,7.41-.08,15.32-.51,23.68s-1.11,17.17-1,26.39a161,161,0,0,0,2.31,28.75,85.67,85.67,0,0,0,9.36,26.79l-.07,5.85c-.44-.68-.88-1.37-1.3-2.07a86.86,86.86,0,0,1-10.82-30.06A162.6,162.6,0,0,1,331,171.18c0-9.35.82-18.18,1.3-26.51s.86-16.19.8-23.52a145.77,145.77,0,0,0-1.47-20.34,74.09,74.09,0,0,0-4.39-16.47,42.09,42.09,0,0,0-6.9-11.64,34.55,34.55,0,0,0-7.42-6.61,37.31,37.31,0,0,0-5.39-3,8.21,8.21,0,0,1-1.89-1,9.14,9.14,0,0,1,2,.62"/><path class="cls-4" d="M321.6,213.69a33.1,33.1,0,0,1,1.49-4.75,5.69,5.69,0,0,1,.68-1.56,5.94,5.94,0,0,1-.32,1.67c-.25,1.09-.78,2.66-1.12,4.81a60.83,60.83,0,0,0-.69,18.79c.81,8.16,3.49,17.95,8.22,28.61,3.81,8.76,9.32,17.86,15.61,27.67q.33,2.86.6,5.73c-7.31-11.56-13.85-22.29-18.12-32.56-4.63-10.91-7.15-21-7.76-29.31a57.27,57.27,0,0,1,1.41-19.1"/><path class="cls-4" d="M145.24,316.11c-3.6,7.38-8,14.95-12.65,22.83S123.08,355.06,119,364a156.63,156.63,0,0,0-14.3,58.84,180.47,180.47,0,0,0,1.2,28.38c1.14,9.84,2.61,19.11,3.92,27.78l-3.12-.08c-1.43-8.47-3-17.57-4.22-27.3A177.82,177.82,0,0,1,101,422.68a156.07,156.07,0,0,1,14.64-60.23,274.13,274.13,0,0,1,14-25.27c4.74-7.83,9.18-15.26,12.83-22.45A111.77,111.77,0,0,0,150.74,294c3.64-13.18,3.44-24.5,1.78-31.93s-3.8-11.26-3.43-11.43c.11-.06.68.85,1.67,2.66a42.39,42.39,0,0,1,3.17,8.43,54,54,0,0,1,1.78,14.18,79.74,79.74,0,0,1-2.42,18.77,110.4,110.4,0,0,1-8,21.43"/><path class="cls-5" d="M120.6,398.29c6.86-6.23,13.6-12.52,19.43-19.5,3.8,2.45,7.48,5.07,11.5,7.15.56.29,1.06-.55.5-.83-4-2.06-7.62-4.65-11.38-7.07a76.68,76.68,0,0,0,12.95-21.88c9.92-26.6,9.74-55.63,15.3-83.21a61.72,61.72,0,0,1,27.68-.05c3.46.73,31.83,8,31.45,11.92-1.69,17.26-1,44.92,6.18,60.92,5.22,11.59,15.54,20.28,27.3,27.87l-.29.34-.22.23a.38.38,0,0,0-.27.14l-.22.23h0a.39.39,0,0,0-.19.21,47.35,47.35,0,0,1-8,7.41c-.51.36,0,1.21.49.85a49.15,49.15,0,0,0,8.28-7.71,5,5,0,0,0,1.22-1.17c8.21,5.23,17.07,10,25.38,14.78l-1.2,31.51-181.21-6.9c4.91-5.33,10-10.44,15.29-15.25"/><path class="cls-6" d="M127.54,391.84A156.43,156.43,0,0,0,140,378.78c2.05,1.32,4.07,2.69,6.12,4,13.81,11,30.25,18.29,47.79,19.91,21.26,2,43.36-5.7,59.12-19.79a49.92,49.92,0,0,0,8.08-7.57,5.06,5.06,0,0,0,1.22-1.18c12.62,8.05,26.77,14.9,38.08,22.72l-3.05,79.94c-16.52,1.44-33.07,2.55-49.65,3.23q-22.9.93-45.83.77c-14.73-.12-29.44-.81-44.16-1.1-11.11-.22-22.3-.31-33.52-.46Z"/><path class="cls-6" d="M120.6,398.29A201.88,201.88,0,0,0,140,378.79c3.46,2.22,6.84,4.59,10.45,6.58,6.49,31.27,11.41,62.81,15.05,94.52-2.6-.07-5.19-.14-7.79-.19-31.87-.63-64.37-.16-96.26-3.36,15-28.67,35.21-56.3,59.13-78"/><path class="cls-6" d="M252.84,383a49.15,49.15,0,0,0,8.28-7.71,5.29,5.29,0,0,0,1.23-1.18c15.32,9.77,32.92,17.78,44.92,27.9,16.84,14.21,31.71,31.79,46.31,47.44,2.14,2.3,8.75,9.74,17.06,18.86-11.13,1.54-22.26,3-33.43,4.35-25.78,3.05-51.66,5.41-77.59,6.78q-2.85-48.2-7.17-96.38a.41.41,0,0,0,.39-.06"/><g class="cls-7"><g class="cls-8"><g class="cls-9"><path class="cls-10" d="M181.38,323A165.35,165.35,0,0,1,163,314.32c1.85-13.83,3.2-27.78,5.94-41.37a61.72,61.72,0,0,1,27.68-.06c3.46.74,31.83,8,31.45,11.93-1.34,13.63-1.19,33.72,2.47,49.46A168.92,168.92,0,0,1,181.38,323"/></g></g></g><path class="cls-5" d="M305.2,179.1c4.33-5.67,12.48-7.76,19.3-5.65s12.16,7.93,14.56,14.65c6,16.67-2.4,37.23-16.64,46.8a42.61,42.61,0,0,1-27.54,7"/><path d="M303.37,233.77c0-.19.91-.37,2.48-.86a13.52,13.52,0,0,0,5.72-3.37,6.31,6.31,0,0,0,.46-8.31c-1.07-1.46-2.69-2.85-4-4.81a19.23,19.23,0,0,1-1.58-3.26,16,16,0,0,1-.66-3.63c-.37-5,1.59-9.47,3.85-12.89a22.76,22.76,0,0,1,8-7.42,15.36,15.36,0,0,1,7.13-1.87c1.75.13,2.66.42,2.63.56s-1,.24-2.57.41a17.41,17.41,0,0,0-6.31,2.42,22.75,22.75,0,0,0-7,7.15c-2,3.18-3.63,7.24-3.29,11.47a14.45,14.45,0,0,0,.53,3,17.81,17.81,0,0,0,1.26,2.68c1.06,1.64,2.62,3.05,3.86,4.82a7.9,7.9,0,0,1,1.5,6.12,8.57,8.57,0,0,1-2.57,4.77,12.51,12.51,0,0,1-6.76,3.07c-1.72.22-2.68.07-2.69-.08"/><path class="cls-5" d="M134.77,75.82A56.28,56.28,0,0,1,157.94,56c25.27-11.69,55-12.39,81.84-6.38,20.55,4.6,42.21,13.31,55.79,30.14,12.6,15.61,17,38.59,18.65,58.1,2.51,29-2.46,57.2-5.9,85.93-2.13,17.77-5.78,35.87-15.46,50.93-19.78,30.78-60.08,35.07-93.26,29.88-19.57-3.07-35.2-8.63-49.91-22.42-17.49-16.4-22.49-38.41-27.13-61.29-5.11-25.15-6.47-51-5.83-76.57.59-23.1,4.72-48.91,18-68.46"/><g class="cls-11"><g class="cls-12"><g class="cls-13"><path class="cls-14" d="M291.32,74.12a50.67,50.67,0,0,1-25.08,42.23c-18.61,10.59-43,8.65-60.1,21.49-9.14,6.84-15.06,17.1-23.27,25a60.1,60.1,0,0,1-18.19,12,44.29,44.29,0,0,1-13.21,3.5c-14.76,1.32-29-2.94-36.28-16.88a303.49,303.49,0,0,0,28.61-15.89c6.08-3.77,12.27-7.87,16.09-13.92,6-9.47,4.9-21.63,8.06-32.37,4.54-15.46,18-27.28,33.11-32.78s31.84-5.36,47.75-2.82"/></g></g></g><path class="cls-5" d="M126.76,175.29c-9.45-26.85-46.29-19-53.3,4.66-2.84,9.6-1.27,20.15,3.27,29.16,10.43,20.69,34.32,32,58.16,26.4"/><path d="M127.73,64a205.36,205.36,0,0,1,49.16-23.78c7.17-2.35,14.17-4.42,21.11-6A208.28,208.28,0,0,1,238.89,40C258,44.49,278.17,50.3,295,59.92a80.77,80.77,0,0,1-3.46,11.87,61.92,61.92,0,0,1-38.85,36.29c-12.87,4-26.93,3.71-39.33,9-13,5.53-22.77,16.52-32.1,27.13S162.06,165.7,148.93,171s-30.46,3-38.09-8.93c-5.84-9.11-4.58-20.89-2.91-31.57,3.56-22.9,8.48-46.62,19.8-66.47"/><path class="cls-4" d="M136.74,164.18c-.09-.32,2.66-1,6.89-3.52s9.61-7.34,14.85-14.5c2.65-3.55,5.29-7.68,8.28-12.08a86.69,86.69,0,0,1,10.76-13.38,53.42,53.42,0,0,1,16.06-10.47,161.8,161.8,0,0,1,19.12-6.63c13.19-3.86,25.75-7.25,36.32-12.29a65.85,65.85,0,0,0,24.27-18.6,44.42,44.42,0,0,0,9-18.53c1-4.84.83-7.65,1.18-7.66.16,0,.82,2.78.25,7.89a42.41,42.41,0,0,1-8.33,19.9,59.81,59.81,0,0,1-10.34,10.88,74.42,74.42,0,0,1-14.54,9.22c-10.86,5.39-23.65,8.93-36.75,12.77a169,169,0,0,0-18.72,6.4,50.87,50.87,0,0,0-15.14,9.61,87.38,87.38,0,0,0-10.61,12.67c-3.07,4.27-5.86,8.36-8.72,11.91-5.66,7.16-11.6,11.94-16.24,14.16s-7.57,2.43-7.59,2.25"/><path class="cls-4" d="M111.38,134.8c-.13,0-.14-.68,0-1.94,0-.62.1-1.4.22-2.32s.39-2.06.6-3.13a55.11,55.11,0,0,1,8.08-18.61A58.59,58.59,0,0,1,159.75,83a127,127,0,0,1,19-1.7c12.95-.32,25.21-.11,35.85-2.65a54.15,54.15,0,0,0,25.26-13.33A58.57,58.57,0,0,0,251.8,49.81c2.19-4.13,3.08-6.61,3.37-6.51s-.22,2.69-2,7.13a53,53,0,0,1-11.41,16.79,55.21,55.21,0,0,1-11.18,8.69A55.9,55.9,0,0,1,215.43,82c-11.18,2.85-23.76,2.71-36.55,3a130,130,0,0,0-18.49,1.57,58.54,58.54,0,0,0-16.19,5.1,59.68,59.68,0,0,0-21.8,18.61,61.43,61.43,0,0,0-8.85,17.48c-.31,1-.62,2-.92,3-.19.75-.37,1.49-.56,2.22-.33,1.2-.56,1.82-.69,1.81"/><path class="cls-4" d="M146.09,68.53c-.34-.22,2.28-4.53,9-8.76a55.59,55.59,0,0,1,12.44-5.71,123.12,123.12,0,0,1,16.1-4c5.72-1.07,11.13-2,16-3.15a85.19,85.19,0,0,0,12.53-3.8c6.93-2.75,10.63-5.71,11-5.24.31.29-2.9,4.1-9.92,7.64a68.12,68.12,0,0,1-12.78,4.74c-4.93,1.34-10.42,2.41-16.12,3.48s-11,2.19-15.76,3.57a67.74,67.74,0,0,0-12.14,4.71c-6.61,3.4-9.83,6.91-10.28,6.48"/><g class="cls-11"><g class="cls-15"><g class="cls-16"><path class="cls-14" d="M84.8,186.29a41.87,41.87,0,0,1,2.89-9.44c2.3-5.17,4.45-10.18,10.69-6.83,4.26,2.28,7.75,7.18,9.91,11.4,3.83,7.47,6.45,14.7,5.79,23.28a5,5,0,0,1-.63,2.41c-1.17,1.78-3.85,1.52-5.85.81s-4.25-1.7-6.15-.74c-4.73,2.4-1.13,10.44.71,13.57,0-.07-7.27-1.29-8.27-1.86a14.2,14.2,0,0,1-6-6.12,46.28,46.28,0,0,1-3.13-26.48"/></g></g></g><path d="M311.38,141.34S292.47,113.92,281,124.06s-6.55,11.42-6.55,11.42Z"/><path d="M153.58,139.42s38.36-40.92,52.84-25.31c8.44,9.1,2.11,14.85,2.11,14.85Z"/><path class="cls-17" d="M202.6,145.64c-1.93,4.48-8,7.81-12.21,9.66a10.13,10.13,0,0,0-7.37-4.17c-7.15-.27-13.31,8.82-13.75,20.32s5,21,12.16,21.31,13.32-8.83,13.76-20.32a31.34,31.34,0,0,0-1.17-9.9c5.65-4.59,8.58-16.9,8.58-16.9"/><path class="cls-18" d="M164.9,164.33a19,19,0,0,0,20,9,19,19,0,0,0-20-9"/><path class="cls-17" d="M289.85,160.05c-1.33,3.07-5.44,5.37-8.37,6.67a7.28,7.28,0,0,0-5-2.48c-5.39-.2-10,6.65-10.37,15.31s3.78,15.86,9.18,16.06,10-6.65,10.36-15.31a22.75,22.75,0,0,0-1.35-8.89c3.64-3.46,5.53-11.36,5.53-11.36"/><path class="cls-18" d="M292.3,174.08a19.31,19.31,0,0,1-18.51,6.69,19.31,19.31,0,0,1,18.51-6.69"/><path class="cls-19" d="M230.07,221.81c-3.14-1.29-6.25-3.14-9.64-2.93a32.49,32.49,0,0,0,17,17.72,4.7,4.7,0,0,0,1.86.51,4.94,4.94,0,0,0,2.24-.73,38.28,38.28,0,0,0,11.54-9.52,7.45,7.45,0,0,0,1.54-2.61c.9-3.25-1.38-2.61-3.36-1.92a29.77,29.77,0,0,1-7.11,1.53,30.08,30.08,0,0,1-14.1-2.05"/><path class="cls-20" d="M238.23,234.75c2.06-1.71,4.36-3.13,6.48-4.8a51.26,51.26,0,0,0,7.22-6.83c-10.37-7.74-9.83-18.86-8.85-31.44a36.75,36.75,0,0,1,10.75-23.12,33.79,33.79,0,0,1,3.43-3,13,13,0,0,1,3.76-1.91c-.68.72-1.16,1.58-1.79,2.33a69,69,0,0,0-4.73,5.9,45.3,45.3,0,0,0-7.45,21.51,37.16,37.16,0,0,0,1.84,14.84c1.89,5.42,5.4,10.86,10.13,14.15.05,0-7.6,8.21-8.33,8.87a38.34,38.34,0,0,1-6.22,4.53c-2.18,1.27-4.68,2.77-7.28,2.57a4.31,4.31,0,0,1-2.29-.78,8.64,8.64,0,0,0,1.29-1l.5-.48c.5-.48,1-.94,1.54-1.38"/><path class="cls-20" d="M186.94,274.75a38.35,38.35,0,0,0,31,7.88c-4.54,4.22-10,6.08-16,4.51s-11.91-7-15-12.39"/><path class="cls-21" d="M247.93,255.06a51.45,51.45,0,0,1-20.61,18.13,39.18,39.18,0,0,1-23,3.21,34.57,34.57,0,0,1-20.48-11c-10.42-11.3-12.74-26.81-12.74-26.81,48.67,1,75.69,15.85,76.77,16.44Z"/><path class="cls-22" d="M247.93,255.06s-1.56,2.27-9,3.48S185,249.52,180,247s-8.86-8.45-8.86-8.45c48.67,1,75.69,15.85,76.77,16.44Z"/><path class="cls-23" d="M227.32,273.19a39.2,39.2,0,0,1-23,3.21,34.57,34.57,0,0,1-20.48-11c9.75-3,31.39-7.27,43.45,7.79"/><path class="cls-22" d="M204.1,420.63c-28.48.05-55.86-11.34-78.76-28.62a165.68,165.68,0,0,0,15.41-16c14.84,13.53,33.36,22.75,53.31,24.6,25.5,2.36,52.22-9.13,67.74-29,6,3.88,12.42,7.47,18.7,11-16.79,23.71-46.87,37.91-76.4,37.95"/><path class="cls-24" d="M243.93,388.82c2,2.71,4.11,5.62,6.22,8.7s4.07,6.07,5.86,8.91c-.68.41-1.34.83-2,1.22-1.83-2.77-3.8-5.7-5.88-8.72s-4.21-6.09-6.18-8.86c.69-.4,1.34-.83,2-1.25"/><path class="cls-24" d="M225,397.46c2.37,3.83,4.89,8,7.46,12.45,1.15,2,2.24,3.91,3.3,5.8-.79.27-1.59.54-2.39.79l-3.06-5.34-7.62-13c.77-.21,1.54-.43,2.31-.67"/><path class="cls-24" d="M204.33,400.9c.54,4.74,1.08,10,1.56,15.53.12,1.42.24,2.82.35,4.2l-.68,0c-.6,0-1.2,0-1.8,0-.11-1.32-.23-2.64-.35-4l-1.33-15.73c.75,0,1.5,0,2.25,0"/><path class="cls-24" d="M178.51,409.86c.29-4.21.57-8.3.85-12.38l2.38.68c-.21,3.8-.45,7.77-.75,11.88q-.28,3.94-.6,7.71l-2.43-.58c.18-2.42.37-4.84.55-7.31"/><path class="cls-24" d="M157.8,396.27c.87-2.38,1.72-4.71,2.56-7,.71.41,1.44.8,2.17,1.19-.78,2.15-1.57,4.37-2.4,6.63-1.55,4.28-3.06,8.37-4.5,12.18l-2.13-1c1.33-3.79,2.77-7.83,4.3-12"/><path class="cls-25" d="M296.4,86.68a12.82,12.82,0,0,1,3.26-.58c-1.08.21-2.17.38-3.26.58"/><path class="cls-26" d="M87.44,537.6a27.67,27.67,0,0,0,36.65,12.71c13.66-6.49,20-23,13.73-36.71h0s-13.56-48-86.26-181.07L19.65,347.69s32,128.12,67,188.16C86.89,536.24,87.44,537.6,87.44,537.6Z"/><path class="cls-26" d="M98.37,277.61c-4-1.19-8.74,1.34-10.71,4.08,0,0-15.81,19.93-18.82,18.49-2.77-1.33-2.77-11.4-2.77-11.4.36-7.9-2.25-25.45-2.25-25.45l-2.21-49.75a6.1,6.1,0,0,0-6.5-5.68c-3.37.23-6.18,4-6,7.33l1.05,45.1a1.68,1.68,0,0,1-1.61,1.51c-.83.07-1.93.09-2.21-1.3l-3.26-54.16a6.21,6.21,0,0,0-6.43-5.89,6,6,0,0,0-5.65,6.4l2.41,56c.2,1.63-1.89,2.73-2.54.95l-5.25-49.52a5.78,5.78,0,1,0-11.53.78l3.5,55.23c.26,2.4-1.8,2.81-2.12,1.23h0L9,233.35c-.22-3.19-2.25-5.3-5.43-5.08s-4.46,3.29-4.25,6.48L3.7,279.38C2.52,327,16.83,344.12,16.83,344.12,42.75,373.3,59,339.51,59,339.51A74.45,74.45,0,0,0,78.1,318.9c3.38-5.37,12.66-21.53,19.24-30.7a60.25,60.25,0,0,1,5-5.95C103.58,280.54,102,278.69,98.37,277.61Z"/></g></g></g></svg>