<svg xmlns="http://www.w3.org/2000/svg" xmlns:xlink="http://www.w3.org/1999/xlink" viewBox="0 0 259.66 360"><defs><style>.cls-1{fill:none;}.cls-2{isolation:isolate;}.cls-3{fill:#d18f76;}.cls-4{fill:#915d37;}.cls-5{fill:#4f4a88;}.cls-6{fill:#333;}.cls-7{opacity:0.16;}.cls-11,.cls-7{mix-blend-mode:multiply;}.cls-8{clip-path:url(#clip-path);}.cls-9{clip-path:url(#clip-path-2);}.cls-10{fill:#d25b51;}.cls-11{opacity:0.26;}.cls-12{clip-path:url(#clip-path-3);}.cls-13{clip-path:url(#clip-path-4);}.cls-14{fill:#f08371;}.cls-15{clip-path:url(#clip-path-5);}.cls-16{clip-path:url(#clip-path-6);}.cls-17{fill:#161818;}.cls-18{fill:#fdece4;}.cls-19{fill:#886339;}.cls-20{fill:#f05f6a;}.cls-21{fill:#fff;}.cls-22{fill:#cb4b57;}.cls-23{fill:#f3ecff;}.cls-24{fill:#e9e8d7;}</style><clipPath id="clip-path"><rect class="cls-1" x="71.86" y="178.1" width="48.03" height="44.25" transform="translate(-21.51 11.81) rotate(-6.34)"/></clipPath><clipPath id="clip-path-2"><rect class="cls-1" x="72.14" y="178.39" width="47.49" height="43.66" transform="translate(-19.13 10.34) rotate(-5.62)"/></clipPath><clipPath id="clip-path-3"><rect class="cls-1" x="24.31" y="30.96" width="123.63" height="83.93" transform="translate(-7.52 9.95) rotate(-6.34)"/></clipPath><clipPath id="clip-path-4"><rect class="cls-1" x="24.83" y="31.73" width="122.6" height="82.4" transform="translate(-6.72 8.78) rotate(-5.62)"/></clipPath><clipPath id="clip-path-5"><rect class="cls-1" x="8.63" y="114.46" width="21.61" height="36.49" transform="translate(-14.53 2.96) rotate(-6.34)"/></clipPath><clipPath id="clip-path-6"><rect class="cls-1" x="8.85" y="114.59" width="21.15" height="36.23" transform="translate(-12.89 2.54) rotate(-5.62)"/></clipPath></defs><title>ALMA</title><g class="cls-2"><g id="Layer_1" data-name="Layer 1"><path class="cls-3" d="M219,249.39l-9.52-59.72,20.44-36.49a2.73,2.73,0,0,1,5.12,1.43c-.25,7.91-4.4,23.48-9.19,30.38,0,0,21.54,10.58,20.3,26.54s-5.28,18.56-5.28,18.56l8.65,28.13-1.31-.38Z"/><path class="cls-4" d="M237.43,183.51s9.92,5,10.81,11.6-.3,6.45,1.07,10.34-5.82,19.72-12.83,19.13-4.54-6.67-6.08-9.58-2.08,1.48-3.07-4.58-4.13-3.15-2.76-8.81S230.12,190.58,237.43,183.51Z"/><polygon class="cls-4" points="229.62 184.88 221.64 196.41 219.44 190.9 229.62 184.88"/><path class="cls-3" d="M217.62,201.25S235.34,173.9,237,173.49c3.06-.77,9.54,6.06-4.18,23.18,0,0-7.75,9.15-5.69,16.32s7.62,12.91,7.62,12.91"/><path class="cls-5" d="M210.29,236.79l42.6-2.59s21.3,123.55-11.7,125.67-46.65-22.67-46.65-22.67l4.19-63.74L224.94,308Z"/><path d="M4.73,230.52c.39,3.93.76,7.95,1.31,11.95a.27.27,0,0,1,.1.22c0,.19,0,.38,0,.56a81.23,81.23,0,0,0,2.44,11.6c3.79,12.63,12.15,23.52,14.8,36.53,1.48,7.27.43,14.55-.62,21.81-.88,6.09-1.93,12.18-2.46,18.31,20.68-.58,41.45-3.13,61.91-5,10.27-.93,20.57-1.59,30.83-2.64q16-1.65,31.85-4.08c19.81-3,39.48-6.92,59-11.4.05-16.08-.72-32.19-1-48.26-.26-13.43.41-26.86-.42-40.27-.8-13.06-2.54-26-4.33-39s-3.62-26-4.61-39.13a240.07,240.07,0,0,1-.51-28.38c-.76-5.08-1.45-10.17-2.25-15.24-5.64-16.22-4.43-34.91-9.7-51.22-6-18.5-25.52-40.63-46.7-39.49-3,.16-6,.8-8.92.52s-5.81-1.46-8.64-2.5c-26.56-9.78-66-7-87.29,13.55C20.28,27.89,14.18,38.53,10,50.08A170.69,170.69,0,0,0,5.29,77.9,263.45,263.45,0,0,0,4.35,108c.36,16.32-.09,32.64-.58,48.95-.21,6.83-.41,13.66-.55,20.48a27.57,27.57,0,0,1,.12,6.91.28.28,0,0,1-.24.27C3,191.72,3,198.8,3.23,205.88c.22,8.23.69,16.45,1.5,24.64M141,251.85c-.33.28-.73-.27-.4-.56a33.36,33.36,0,0,0,5-5.77.26.26,0,0,1,.12-.17h0l.13-.18a.31.31,0,0,1,.19-.12c0-.06.09-.11.13-.18.16-.23.31-.47.49-.69a.35.35,0,0,1,.48-.05.36.36,0,0,1,.05.49,6.81,6.81,0,0,1-1,1.22,34.54,34.54,0,0,1-5.18,6m-79.34,5.53c-.39-.19-.11-.81.28-.62,3,1.47,5.92,3.12,9,4.32.41.16.13.78-.28.62-3.13-1.2-6-2.85-9-4.32"/><path class="cls-6" d="M168,299.94c-.2-.08.64-2.31,1.94-6.39A107.38,107.38,0,0,0,174,276a105.88,105.88,0,0,0,.36-26.64,100.39,100.39,0,0,0-8.9-31.25c-5-10.47-11.09-19.93-15.21-29.37a67.53,67.53,0,0,1-4.6-13.9,51,51,0,0,1-1-12.74,33.78,33.78,0,0,1,5.47-17.52,18.5,18.5,0,0,1,1.78-2.3,11.39,11.39,0,0,1,1.47-1.52c.85-.77,1.32-1.14,1.39-1.07s-1.61,1.8-3.78,5.43a34.88,34.88,0,0,0-4.48,17,50.6,50.6,0,0,0,1.27,12.22,67.15,67.15,0,0,0,4.68,13.36c4.14,9.17,10.26,18.54,15.38,29.24a99.1,99.1,0,0,1,8.92,32.11,100.77,100.77,0,0,1-.93,27.19,88.08,88.08,0,0,1-4.9,17.64c-1.61,4-2.77,6.11-2.9,6.05"/><path class="cls-6" d="M132.85,266.36c-.41,0,0-5.52-.31-14.33A165.83,165.83,0,0,0,128,218c-3-13.08-8.33-24.19-10.2-33.07a40.93,40.93,0,0,1-1.16-10.58,17.27,17.27,0,0,1,.29-2.89c.12-.65.22-1,.31-1,.45,0-.12,5.56,2.35,14,1.17,4.22,3,9.1,5.15,14.59a142.11,142.11,0,0,1,5.8,18.31A135.32,135.32,0,0,1,134.39,252c-.19,8.93-1.24,14.38-1.54,14.34"/><path class="cls-6" d="M2.74,175.56A109.72,109.72,0,0,0,8,145.82c.56-10.14-.43-20-1.29-29.66a126.81,126.81,0,0,1-.5-14.41,84.6,84.6,0,0,1,1.7-13.93,195.63,195.63,0,0,1,7.48-25.34A114.66,114.66,0,0,1,25.56,40.3,71.76,71.76,0,0,1,40.22,23.59a82,82,0,0,1,8.27-6l4.24-2.43,1-.59L54.85,14,57,13a89.14,89.14,0,0,1,8.3-3.36l4.07-1.17,2-.57,2-.4,3.81-.78c1.25-.21,2.48-.32,3.68-.48s2.36-.35,3.51-.37l3.35-.14A71.18,71.18,0,0,1,107.45,8c2.2.58,3.83,1.24,4.94,1.6a9.41,9.41,0,0,1,1.64.65,8.81,8.81,0,0,1-1.73-.4c-1.13-.27-2.77-.84-5-1.34A75.16,75.16,0,0,0,87.67,6.77L84.37,7c-1.13,0-2.28.28-3.46.42s-2.39.31-3.62.53l-3.74.82-1.93.42-1.93.59-4,1.21c-2.62,1.08-5.43,2-8.12,3.39l-2.07,1-1.05.5-1,.6-4.14,2.42a83.58,83.58,0,0,0-8,6A70.62,70.62,0,0,0,27.14,41.27a113.45,113.45,0,0,0-9.88,21.88A195.69,195.69,0,0,0,10,88.25a84.14,84.14,0,0,0-1.59,13.57A125.57,125.57,0,0,0,9,116c.88,9.59,1.93,19.65,1.39,29.95a111,111,0,0,1-5.5,31.14c-.43,1.26-.88,2.52-1.37,3.76a16.92,16.92,0,0,0-.76-5.26"/><path class="cls-6" d="M6.14,242.69a.28.28,0,0,0-.32-.29c2.32-4.4,4.73-8.62,7.09-12.71,6.69-11.41,13-22,17.38-32.26s7-20.14,7.41-29a58.38,58.38,0,0,0-3.07-22.32,44.9,44.9,0,0,0-6.85-12.54,37,37,0,0,0-2.42-2.87,4.44,4.44,0,0,1-.8-1,5.15,5.15,0,0,1,1,.83,25,25,0,0,1,2.63,2.71,42.52,42.52,0,0,1,7.4,12.53,58.09,58.09,0,0,1,3.58,22.73c-.28,9.05-2.75,19.2-7.17,29.62s-10.61,21.19-17.2,32.63C11.91,235.84,9,241.09,6.23,246.6c-.05-1.3-.07-2.6-.09-3.91"/><path class="cls-6" d="M154.36,24.62a20.37,20.37,0,0,1,4.14,1.44,24,24,0,0,1,6,3.92,30.17,30.17,0,0,1,6.06,7.65,52,52,0,0,1,4.64,11.29A100.64,100.64,0,0,1,178,63.12c.69,5.15,1.13,10.68,1.47,16.53s.56,12,1.32,18.45a114.18,114.18,0,0,0,3.83,19.84,60.25,60.25,0,0,0,8.6,17.93l.4,4.08c-.36-.44-.72-.89-1.07-1.34a61.09,61.09,0,0,1-9.86-20.09A114.52,114.52,0,0,1,179,98.31c-.71-6.52-.83-12.73-1.14-18.57s-.65-11.33-1.26-16.43A101.59,101.59,0,0,0,174,49.26a52.09,52.09,0,0,0-4.32-11.13A29.72,29.72,0,0,0,164,30.56a24.3,24.3,0,0,0-5.68-4,25.91,25.91,0,0,0-4-1.66,6.52,6.52,0,0,1-1.39-.52,5.42,5.42,0,0,1,1.46.27"/><path class="cls-6" d="M175.75,128.63a23.46,23.46,0,0,1,.67-3.43,4.38,4.38,0,0,1,.35-1.14,3.59,3.59,0,0,1-.09,1.19c-.09.78-.34,1.91-.41,3.43a42.92,42.92,0,0,0,1,13.14,67.29,67.29,0,0,0,7.94,19.29,143.81,143.81,0,0,0,13,18.06c.29,1.31.58,2.62.86,3.94-6-7.49-11.37-14.45-15.14-21.27A66.24,66.24,0,0,1,176.25,142a39.88,39.88,0,0,1-.5-13.4"/><path class="cls-6" d="M60.88,213.57c-1.94,5.42-4.41,11-7,16.87a199.27,199.27,0,0,0-7.56,18.5A109.31,109.31,0,0,0,40.88,291a124.64,124.64,0,0,0,3,19.67c1.56,6.76,3.3,13.1,4.88,19l-2.18.19c-1.65-5.79-3.43-12-5-18.69a122.5,122.5,0,0,1-3.24-20,109.34,109.34,0,0,1,5.54-43.07,191.25,191.25,0,0,1,7.78-18.67c2.7-5.82,5.21-11.34,7.2-16.63A77.67,77.67,0,0,0,63,197.75c1.52-9.45.51-17.32-1.23-22.37s-3.51-7.55-3.27-7.69c.08-.05.55.54,1.37,1.72A29.73,29.73,0,0,1,62.72,175a38,38,0,0,1,2.34,9.73A55.66,55.66,0,0,1,64.82,198a77.33,77.33,0,0,1-3.94,15.55"/><path class="cls-3" d="M50.07,272.7a141.1,141.1,0,0,0,12-15.08c2.84,1.4,5.61,2.94,8.57,4.09.41.15.69-.47.28-.63-2.93-1.12-5.67-2.64-8.47-4a53.54,53.54,0,0,0,7.32-16.23c4.85-19.28,2.49-39.49,4.22-59.12a43.23,43.23,0,0,1,19.27-2.18c2.47.25,22.78,3.13,22.82,5.88.16,12.14,2.75,31.35,9,41.93,4.53,7.67,12.39,12.92,21.17,17.3l-.18.25c0,.07-.09.12-.13.18a.31.31,0,0,0-.19.12l-.13.18h0a.26.26,0,0,0-.12.17,33.36,33.36,0,0,1-5,5.77c-.33.29.07.84.4.56a34.54,34.54,0,0,0,5.18-6,3.47,3.47,0,0,0,.75-.91c6.12,3,12.66,5.61,18.82,8.32l1.6,22-126.7,9.2c3-4.09,6.16-8,9.46-11.79"/><path class="cls-5" d="M54.41,267.67a109.52,109.52,0,0,0,7.67-10.06c1.53.76,3,1.55,4.57,2.31a63.54,63.54,0,0,0,34.81,10.16,55.66,55.66,0,0,0,39.63-18.35,35.48,35.48,0,0,0,5-5.89,3.77,3.77,0,0,0,.76-.92c9.4,4.63,19.79,8.3,28.27,12.87l4.05,55.9q-17.08,3.42-34.32,6.09-15.87,2.42-31.85,4.08c-10.26,1.05-20.56,1.71-30.83,2.64-7.75.71-15.55,1.51-23.37,2.28Z"/><path class="cls-5" d="M50.07,272.7a140.11,140.11,0,0,0,12-15.09c2.59,1.29,5.12,2.68,7.79,3.78,6.94,21.27,12.8,42.85,17.79,64.65l-5.44.46c-22.24,2-44.83,4.87-67.28,5.11,8.2-21.12,20.16-41.93,35.13-58.91"/><path class="cls-5" d="M141,251.85a34.54,34.54,0,0,0,5.18-6,3.77,3.77,0,0,0,.76-.92c11.42,5.62,24.3,9.83,33.44,16,12.82,8.59,24.53,19.69,35.91,29.45,1.67,1.43,6.84,6.11,13.33,11.81-7.63,1.94-15.27,3.83-22.93,5.62-17.72,4.12-35.56,7.76-53.51,10.72q-5.71-33.33-12.44-66.55a.29.29,0,0,0,.26-.07"/><g class="cls-7"><g class="cls-8"><g class="cls-9"><path class="cls-10" d="M86.57,215.57A114.67,114.67,0,0,1,73.08,211c.22-9.78.08-19.59.93-29.27a43.23,43.23,0,0,1,19.27-2.18c2.47.25,22.78,3.13,22.82,5.88.12,9.59,1.78,23.56,5.54,34.24a118.23,118.23,0,0,1-35.07-4.06"/></g></g></g><path class="cls-3" d="M161.65,105.81c2.58-4.29,8.1-6.37,13-5.43a16.45,16.45,0,0,1,11.27,9.08c5.43,11.14,1.2,26.1-8,33.87a29.86,29.86,0,0,1-18.63,7"/><path d="M164.61,144c0-.13.61-.32,1.66-.79a9.4,9.4,0,0,0,3.72-2.78,4.43,4.43,0,0,0-.32-5.83c-.86-.93-2.09-1.77-3.18-3a12.69,12.69,0,0,1-1.35-2.14,10.73,10.73,0,0,1-.74-2.48,14.53,14.53,0,0,1,1.68-9.27,15.89,15.89,0,0,1,5-5.78,10.81,10.81,0,0,1,4.82-1.86c1.23,0,1.89.09,1.88.19s-.66.24-1.76.48a12.07,12.07,0,0,0-4.2,2.18,15.83,15.83,0,0,0-4.32,5.51,13.64,13.64,0,0,0-1.4,8.24,10.1,10.1,0,0,0,.61,2.07,12.46,12.46,0,0,0,1.08,1.77c.87,1.06,2.06,1.92,3.06,3.06a5.54,5.54,0,0,1,1.52,4.14A6,6,0,0,1,171,141.2a8.79,8.79,0,0,1-4.47,2.66c-1.18.29-1.86.26-1.88.15"/><path class="cls-3" d="M35,47.07A39.44,39.44,0,0,1,49.6,31.46c16.69-10.09,37.34-12.88,56.49-10.77,14.67,1.61,30.42,6,41.18,16.67,10,9.9,14.79,25.56,17.48,39,4,20,2.71,40,2.53,60.28-.11,12.54-1.25,25.43-6.82,36.66-11.4,23-39.13,29.06-62.63,28C84,200.7,72.65,198,61.35,189.58c-13.45-10.07-18.63-25-23.63-40.58-5.5-17.11-8.44-35-10-52.87C26.36,80,27.24,61.72,35,47.07"/><g class="cls-11"><g class="cls-12"><g class="cls-13"><path class="cls-14" d="M143.87,33.79a35.47,35.47,0,0,1-14.19,31.34c-12.14,8.81-29.25,9.35-40.19,19.61C83.66,90.21,80.33,97.81,75.23,104a42.17,42.17,0,0,1-11.73,9.79,30.78,30.78,0,0,1-8.93,3.46c-10.17,2.06-20.43.2-26.56-9A210.42,210.42,0,0,0,46.69,95c4-3.1,7.94-6.43,10.13-10.94,3.41-7,1.74-15.44,3.11-23.16,2-11.11,10.4-20.38,20.52-25.38s21.75-6.2,33-5.66"/></g></g></g><path class="cls-3" d="M37.12,117c-8.66-18-33.7-9.67-36.75,7.37-1.23,6.9.68,14.13,4.53,20C13.76,158,31.27,164,47.44,158.25"/><path d="M29.19,39.39A144.23,144.23,0,0,1,61.58,19c4.81-2.19,9.52-4.17,14.24-5.82a146.4,146.4,0,0,1,28.91.84c13.68,1.68,28.15,4.17,40.62,9.57a56,56,0,0,1-1.5,8.53,43.35,43.35,0,0,1-24.24,28.27c-8.65,3.78-18.46,4.67-26.69,9.29C84.28,74.56,78.35,83,72.67,91.08S61,107.55,52.22,112.23,31.25,116.65,25,109c-4.77-5.89-4.8-14.19-4.47-21.76.72-16.22,2.31-33.11,8.65-47.81"/><path class="cls-6" d="M43.21,108.44c-.08-.21,1.78-.87,4.52-3A37.81,37.81,0,0,0,57,94.22c1.56-2.68,3.08-5.76,4.82-9A60.88,60.88,0,0,1,68.25,75a37.25,37.25,0,0,1,10.36-8.53A112.66,112.66,0,0,1,91.42,60.4c8.88-3.71,17.37-7,24.33-11.37A46,46,0,0,0,131.21,34.2a31.16,31.16,0,0,0,4.84-13.6c.31-3.44,0-5.39.22-5.42s.79,1.87.79,5.48a29.65,29.65,0,0,1-4.26,14.49,41.89,41.89,0,0,1-6.36,8.38A52.1,52.1,0,0,1,117,51.07c-7.15,4.59-15.77,8-24.6,11.73a119.29,119.29,0,0,0-12.54,5.91,35.74,35.74,0,0,0-9.8,7.86,61.24,61.24,0,0,0-6.4,9.64c-1.81,3.21-3.44,6.27-5.16,9-3.38,5.42-7.15,9.21-10.21,11.12s-5.08,2.27-5.11,2.14"/><path class="cls-6" d="M23.28,90c-.09,0-.15-.46-.18-1.34,0-.44,0-1,0-1.64s.12-1.47.18-2.22a38.54,38.54,0,0,1,4.18-13.58A41.06,41.06,0,0,1,53,50.15a87.7,87.7,0,0,1,13.11-2.66c9-1.23,17.54-2,24.75-4.62a37.94,37.94,0,0,0,16.56-11.23,41.08,41.08,0,0,0,7.1-11.72c1.21-3.05,1.63-4.84,1.85-4.8s0,1.9-.89,5.13a37,37,0,0,1-6.64,12.57,38.46,38.46,0,0,1-7.11,6.92,39.3,39.3,0,0,1-10,5.4C84.08,48,75.31,48.86,66.43,50.08A91.34,91.34,0,0,0,53.68,52.6,41.17,41.17,0,0,0,42.8,57.4,41.83,41.83,0,0,0,29.06,72.05a43.08,43.08,0,0,0-4.81,12.86c-.14.72-.27,1.44-.41,2.14-.07.53-.14,1.06-.22,1.58-.13.87-.25,1.32-.34,1.32"/><path class="cls-6" d="M42.32,41.13c-.25-.13,1.25-3.33,5.57-6.8a39.66,39.66,0,0,1,8.21-4.94,89.05,89.05,0,0,1,10.91-4c3.9-1.18,7.59-2.26,10.87-3.42a60.75,60.75,0,0,0,8.43-3.62c4.61-2.45,7-4.79,7.26-4.49s-1.7,3.08-6.32,6.08a47.28,47.28,0,0,1-8.53,4.29c-3.33,1.32-7.06,2.48-11,3.66s-7.51,2.38-10.7,3.71A47.12,47.12,0,0,0,49,35.82c-4.34,2.88-6.31,5.57-6.66,5.31"/><g class="cls-11"><g class="cls-15"><g class="cls-16"><path class="cls-14" d="M8.76,127.86a29.26,29.26,0,0,1,1.28-6.8c1.2-3.78,2.31-7.43,6.91-5.59,3.15,1.27,5.95,4.41,7.79,7.18,3.24,4.9,5.62,9.74,5.83,15.76a3.62,3.62,0,0,1-.25,1.73c-.68,1.32-2.57,1.36-4,1s-3.09-.85-4.33,0c-3.11,2,0,7.36,1.54,9.4,0,0-5.16-.34-5.91-.66a9.92,9.92,0,0,1-4.61-3.8,32.27,32.27,0,0,1-4.23-18.19"/></g></g></g><path d="M163,79s-15.28-17.63-22.51-9.68-3.68,8.46-3.68,8.46Z"/><path d="M53,89.91S76.57,58.45,87.85,68.19c6.59,5.69,2.62,10.18,2.62,10.18Z"/><path class="cls-17" d="M87.63,90.44c-1,3.27-5,6.06-7.75,7.68a7.06,7.06,0,0,0-5.45-2.34c-5,.37-8.59,7.17-8,15.21s5.12,14.26,10.12,13.9,8.59-7.18,8-15.21a21.88,21.88,0,0,0-1.57-6.8c3.57-3.64,4.66-12.44,4.66-12.44"/><path class="cls-18" d="M62.83,106.37a14.73,14.73,0,0,0,6.56,4.69,14.83,14.83,0,0,0,8.07,0,14.79,14.79,0,0,0-6.57-4.69,14.78,14.78,0,0,0-8.06,0"/><path class="cls-17" d="M149.49,93.74c-.68,2.23-3.37,4.15-5.31,5.29a5.08,5.08,0,0,0-3.65-1.35c-3.77.28-6.48,5.41-6,11.46s3.86,10.75,7.63,10.48,6.47-5.41,6-11.47a16,16,0,0,0-1.63-6.08c2.27-2.69,3-8.33,3-8.33"/><path class="cls-18" d="M152.28,103.31a13.52,13.52,0,0,1-12.36,6.09,13.52,13.52,0,0,1,12.36-6.09"/><path class="cls-19" d="M112.65,141.36c-2.29-.66-4.6-1.71-6.94-1.3a22.77,22.77,0,0,0,13.23,11,3.2,3.2,0,0,0,1.33.21,3.46,3.46,0,0,0,1.5-.68,26.84,26.84,0,0,0,7.31-7.52,5.21,5.21,0,0,0,.86-1.94c.38-2.33-1.16-1.71-2.48-1.07a21.39,21.39,0,0,1-14.81,1.28"/><path class="cls-4" d="M119.33,149.73c1.3-1.34,2.8-2.52,4.14-3.84a36.22,36.22,0,0,0,4.5-5.31c-7.82-4.59-8.31-12.37-8.59-21.21a25.74,25.74,0,0,1,5.69-16.93,25.27,25.27,0,0,1,2.16-2.35,9,9,0,0,1,2.47-1.62c-.42.55-.69,1.19-1.06,1.76a47.47,47.47,0,0,0-2.84,4.47,30.65,30.65,0,0,0-2,5,31.19,31.19,0,0,0-1.47,10.6,25.77,25.77,0,0,0,2.42,10.18,20.45,20.45,0,0,0,8.15,9.08s-4.66,6.3-5.12,6.81a26.42,26.42,0,0,1-4,3.64c-1.41,1.05-3,2.29-4.87,2.35a3,3,0,0,1-1.65-.37,5.39,5.39,0,0,0,.82-.76l.32-.38c.3-.37.63-.73,1-1.08"/><path class="cls-4" d="M86.71,181.55a26.87,26.87,0,0,0,22.17,3.09c-2.83,3.29-6.48,5-10.77,4.38s-8.84-4-11.4-7.47"/><path class="cls-20" d="M127.65,163.12a36,36,0,0,1-12.94,14.22,27.48,27.48,0,0,1-15.75,4,24.19,24.19,0,0,1-15.11-6.07c-8.13-7.07-10.94-17.69-10.94-17.69,34-3,53.92,5.19,54.72,5.52Z"/><path class="cls-21" d="M127.65,163.12s-.9,1.7-6,3.12-38.23-2.1-41.91-3.45-6.82-5.2-6.82-5.2c34-3,53.92,5.19,54.72,5.52Z"/><path class="cls-22" d="M114.71,177.34a27.48,27.48,0,0,1-15.75,4,24.14,24.14,0,0,1-15.11-6.08c6.56-2.82,21.3-7.48,30.86,2.07"/><path class="cls-23" d="M109.94,281.8c-19.83,2.23-39.77-3.59-57-13.84a118.19,118.19,0,0,0,9.49-12.32c11.38,8.27,25,13.26,39,13,17.94-.32,35.66-10.39,44.92-25.4,4.5,2.23,9.23,4.24,13.88,6.22-9.86,17.81-29.7,30-50.26,32.34"/><path class="cls-5" d="M135.21,256.57c1.61,1.72,3.3,3.59,5,5.57s3.29,3.91,4.76,5.75l-1.31,1c-1.49-1.79-3.09-3.68-4.77-5.62s-3.4-3.91-5-5.69c.44-.33.87-.68,1.3-1"/><path class="cls-5" d="M122.66,264.05c2,2.48,4,5.2,6.16,8.09,1,1.29,1.86,2.55,2.75,3.78-.54.25-1.07.5-1.61.73l-2.54-3.47-6.31-8.49,1.55-.64"/><path class="cls-5" d="M108.57,268c.75,3.25,1.53,6.87,2.29,10.69.2,1,.38,1.95.57,2.9l-.47.07-1.26.1c-.18-.9-.36-1.81-.55-2.73L107,268.22l1.56-.18"/><path class="cls-5" d="M91.29,276.27c-.12-2.95-.24-5.82-.36-8.69.56.11,1.13.21,1.71.29.14,2.67.28,5.45.39,8.33.07,1.85.13,3.65.18,5.42l-1.74-.22q-.09-2.53-.18-5.13"/><path class="cls-5" d="M75.82,268.41q.63-2.6,1.24-5.05c.53.23,1.07.44,1.6.66-.37,1.56-.75,3.16-1.15,4.81-.75,3.1-1.49,6.06-2.19,8.82-.52-.17-1-.34-1.57-.53.64-2.73,1.33-5.66,2.07-8.71"/><path class="cls-24" d="M148.38,42.14a9.54,9.54,0,0,1,2.23-.66c-.74.23-1.48.44-2.23.66"/><path class="cls-5" d="M154.45,345.2c-40,10.53-92.63,3.18-139.74-13.29L227.1,303.12c-16.09,18.07-39.68,33.39-72.65,42.08"/></g></g></svg>