<svg xmlns="http://www.w3.org/2000/svg" xmlns:xlink="http://www.w3.org/1999/xlink" viewBox="0 0 392.25 433.04"><defs><style>.cls-1{fill:none;}.cls-2{isolation:isolate;}.cls-3{fill:#d18f76;}.cls-4{fill:#886339;}.cls-5{fill:#4f4a88;}.cls-6{fill:#333;}.cls-7{fill:#d59276;}.cls-8{opacity:0.16;}.cls-11,.cls-8{mix-blend-mode:multiply;}.cls-9{clip-path:url(#clip-path);}.cls-10{fill:#d55b51;}.cls-11{opacity:0.26;}.cls-12{clip-path:url(#clip-path-2);}.cls-13{fill:#f48771;}.cls-14{clip-path:url(#clip-path-3);}.cls-15{fill:#161818;}.cls-16{fill:#ffefe6;}.cls-17{fill:#8b6339;}.cls-18{fill:#935d37;}.cls-19{fill:#f3ecff;}.cls-20{opacity:0.15;mix-blend-mode:overlay;}.cls-21{clip-path:url(#clip-path-4);}.cls-22{fill:#d8eef1;}.cls-23{fill:#f05c69;}.cls-24{fill:#cd4b57;}.cls-25{fill:#e4e4e4;}</style><clipPath id="clip-path"><rect class="cls-1" x="83.89" y="214.56" width="56.9" height="52.31"/></clipPath><clipPath id="clip-path-2"><rect class="cls-1" x="42.19" y="38.41" width="146.91" height="98.73"/></clipPath><clipPath id="clip-path-3"><rect class="cls-1" x="16.42" y="129.53" width="25.35" height="43.41"/></clipPath><clipPath id="clip-path-4"><rect class="cls-1" x="227.92" y="34.91" width="0.47" height="0.49"/></clipPath></defs><title>ALMA</title><g class="cls-2"><g id="Layer_1" data-name="Layer 1"><path class="cls-3" d="M389.79,248.3c-.16.51-.32,1-.5,1.53h0c-.3.91-.64,1.85-1,2.8-.27.72-.56,1.45-.86,2.18h0c-3.89,9.5-10,19.64-18,25.24,0,0-16-9.42-18.64-13.63a96.7,96.7,0,0,1-4.69-17.81s-2.39-10.74,0-14.57a8.46,8.46,0,0,1,7-3.71s.1-28.78,5.88-36,4.12,13.59,4.56,29.3c.24-1,3.16-6.42,8.72-5.45,3.32.59,2.07,7.86,2,8.24.29-.37,5.84-7.42,8.9-5.59,3.52,2.11,1,11.72,1,11.72s4.26-3.86,7.43.06C392.91,234.27,392.22,240.59,389.79,248.3Z"/><path class="cls-4" d="M389.79,248.3c-.16.51-.32,1-.5,1.53h0c-.3.91-.64,1.85-1,2.8a6.14,6.14,0,0,1-2.91,1.19c-5.84.78-5.56-7.64-5.56-7.64s-3.75,2.05-6.64.41-2.64-5.81-2.64-5.81-3.83,2.63-6.47.19c-3.87-3.59-.67-11.35-.67-11.35s-1.24,6.22,2.07,9,7.59-3.38,7.8-3.68c-.07.33-1.82,8.09,1.79,9.54s6.27-3.61,6.4-3.86c-.05.31-1.38,8.58,2.74,10.15C386.5,251.67,388.48,250,389.79,248.3Z"/><path class="cls-4" d="M359.41,235.44a18.68,18.68,0,0,1,3.48,10.3c.08,6-9.77,5.75-15.59-.49,0,0,1.82,5,9.64,6.87C363.26,253.62,371.26,248.13,359.41,235.44Z"/><path class="cls-4" d="M364,246.87s9.46,10.83,1.28,19.59a9.72,9.72,0,0,0,5.83-9.15c-.08-10.13-7.21-13.07-7.21-13.07Z"/><path class="cls-5" d="M350,264.13s-16.66,22.62-34.34,44.74-46.56,67.39-46.56,67.39c-22.33-6.1-75.24-68.8-90.27-87.05-2.88,33.87,2.09,65.49,17.61,94.1,18.8,17.4,64.8,57.07,85.07,48.55,25.8-10.85,92.58-156.08,92.58-156.08A31.69,31.69,0,0,1,350,264.13Z"/><path d="M.1,266.15c0,4.74,0,9.58.16,14.4a.35.35,0,0,1,.1.29l-.06.67a95.62,95.62,0,0,0,1.55,14.11c3,15.51,11.73,29.47,13.36,45.3.92,8.84-1.19,17.4-3.29,25.93-1.77,7.16-3.73,14.3-5.08,21.55,24.73,1.73,49.79,1.12,74.41,1.3,12.36.09,24.72.51,37.08.46q19.24-.09,38.46-1.13c24-1.29,47.89-3.62,71.71-6.68,1.95-19.17,2.91-38.46,4.43-57.67,1.27-16,3.64-32,4.22-48.06.57-15.67,0-31.35-.59-47s-1.26-31.46-.92-47.2a290.8,290.8,0,0,1,2.73-33.9c-.32-6.15-.54-12.3-.9-18.44-4.82-20-1.19-42.15-5.56-62.22-4.95-22.76-25.67-51.44-51-52.56-3.58-.16-7.2.25-10.71-.42s-6.76-2.43-10-4C129.61-3.89,82.25-5.19,54.47,16.8c-12.07,9.54-20.59,21.52-27,34.8a204.87,204.87,0,0,0-8.83,32.63A317.4,317.4,0,0,0,14,120c-1.49,19.51-3.93,38.91-6.44,58.31-1,8.12-2.09,16.23-3.05,24.36A32.94,32.94,0,0,1,3.86,211a.35.35,0,0,1-.33.3c-.93,8.43-1.74,16.88-2.34,25.35C.5,246.43.09,256.29.1,266.15m160,41.41c-.44.3-.84-.41-.42-.71a39,39,0,0,0,6.6-6.31.33.33,0,0,1,.16-.17h0l.18-.2a.35.35,0,0,1,.23-.12l.18-.19c.22-.26.43-.53.67-.77a.41.41,0,0,1,.58.58,8,8,0,0,1-1.32,1.34,41.42,41.42,0,0,1-6.87,6.56m-95.27-2.7c-.45-.28,0-1,.41-.71,3.41,2.1,6.69,4.41,10.27,6.21.47.24.06.95-.41.71-3.59-1.8-6.86-4.11-10.27-6.21"/><path class="cls-6" d="M186.63,368.08c-.23-.13,1-2.69,3.06-7.39a127.08,127.08,0,0,0,6.88-20.51,126.21,126.21,0,0,0,3.55-31.72,120,120,0,0,0-6.94-38.31c-4.73-13.07-10.89-25.07-14.69-36.81a80.57,80.57,0,0,1-3.86-17.11,61,61,0,0,1,.3-15.32c1.39-9.33,5.16-16.31,8.58-20.25a21.26,21.26,0,0,1,2.39-2.53,12.7,12.7,0,0,1,1.93-1.64c1.11-.82,1.71-1.2,1.78-1.12.2.24-2.13,2-5.14,6a41.8,41.8,0,0,0-7.35,19.8,61.15,61.15,0,0,0,.09,14.73,80.08,80.08,0,0,0,4,16.48c3.85,11.42,10.05,23.31,14.9,36.67A118.64,118.64,0,0,1,203,308.43a120.68,120.68,0,0,1-4.3,32.31,104.69,104.69,0,0,1-7.92,20.46c-2.38,4.6-4,7-4.16,6.88"/><path class="cls-6" d="M148.68,323.92c-.49-.1.61-6.59,1.31-17.14a198.49,198.49,0,0,0-1.44-41.1c-2-16-7.11-29.83-8.3-40.64a49.68,49.68,0,0,1-.14-12.75,21.66,21.66,0,0,1,.68-3.41c.22-.76.39-1.15.49-1.13.54.07-.8,6.61,1.16,17,.9,5.17,2.57,11.22,4.44,18a172.14,172.14,0,0,1,4.77,22.53,162.36,162.36,0,0,1,.54,41.75c-1.27,10.63-3.15,17-3.51,16.93"/><path class="cls-6" d="M4.17,200.38a131.43,131.43,0,0,0,9.72-34.85c1.86-12,1.83-23.87,1.95-35.51a153.46,153.46,0,0,1,1.08-17.25,101.65,101.65,0,0,1,3.67-16.41C23.85,85.84,28.21,76.21,32.47,67s9.06-17.8,14.77-25.25a86.24,86.24,0,0,1,19.44-18.2,99,99,0,0,1,10.57-6.24l5.35-2.4,1.3-.58,1.34-.48,2.65-.94c3.46-1.37,7-2.08,10.3-3l5-.92,2.42-.45,2.4-.25,4.63-.48c1.51-.1,3-.09,4.45-.14s2.86-.13,4.23,0l4,.24a85.25,85.25,0,0,1,23.37,5c2.56,1,4.42,1.93,5.7,2.49a10.14,10.14,0,0,1,1.88,1,10.32,10.32,0,0,1-2-.68c-1.32-.46-3.21-1.33-5.78-2.18a90,90,0,0,0-23.23-4.38l-4-.16c-1.36-.08-2.75.07-4.18.1s-2.88.08-4.37.2l-4.56.54-2.35.28-2.37.47-4.89,1a104.86,104.86,0,0,0-10.08,3.1l-2.59.95L84.58,16l-1.27.59L78.09,19A97.55,97.55,0,0,0,67.81,25.2,84.44,84.44,0,0,0,49,43.1,136,136,0,0,0,34.66,68C30.49,77.2,26.2,86.81,23.07,97.12a99,99,0,0,0-3.49,16,151.37,151.37,0,0,0-1,17c-.07,11.53,0,23.65-1.84,35.88A133,133,0,0,1,6.53,202.42c-.66,1.45-1.35,2.9-2.07,4.33a20.28,20.28,0,0,0-.29-6.37"/><path class="cls-6" d="M.36,280.84a.35.35,0,0,0-.35-.39c3.28-5,6.65-9.73,9.94-14.32C19.27,253.3,28,241.44,34.46,229.69S45.17,206.5,46.69,196a69.82,69.82,0,0,0-1-27,53.79,53.79,0,0,0-6.7-15.76,44.8,44.8,0,0,0-2.54-3.7,5.38,5.38,0,0,1-.84-1.3,6.44,6.44,0,0,1,1.09,1.1,31,31,0,0,1,2.82,3.55,51,51,0,0,1,7.35,15.8,69.92,69.92,0,0,1,1.61,27.53c-1.4,10.75-5.54,22.57-12,34.49s-15.14,24-24.34,36.88C8,273.34,3.9,279.25,0,285.51c.1-1.56.23-3.12.36-4.67"/><path class="cls-6" d="M202.67,38.16a25.1,25.1,0,0,1,4.77,2.2,28.34,28.34,0,0,1,6.66,5.39,36,36,0,0,1,6.34,9.83,61.5,61.5,0,0,1,4.21,14,120.67,120.67,0,0,1,1.73,17.26c.22,6.22.1,12.87-.18,19.89s-.75,14.42-.59,22.16A137.22,137.22,0,0,0,227.85,153,72.16,72.16,0,0,0,236,175.39v4.92c-.38-.57-.75-1.15-1.11-1.73a73,73,0,0,1-9.41-25.12,137.77,137.77,0,0,1-2.08-24.54c-.09-7.85.49-15.27.81-22.27s.55-13.59.42-19.75a120.8,120.8,0,0,0-1.45-17.06,62.06,62.06,0,0,0-3.85-13.77,35.6,35.6,0,0,0-5.92-9.7,29.09,29.09,0,0,0-6.3-5.47,30.3,30.3,0,0,0-4.55-2.44,7.31,7.31,0,0,1-1.6-.79,7.39,7.39,0,0,1,1.71.49"/><path class="cls-6" d="M216,164.7a29,29,0,0,1,1.2-4,4.69,4.69,0,0,1,.56-1.31,5.3,5.3,0,0,1-.25,1.41,41.17,41.17,0,0,0-.89,4,51.29,51.29,0,0,0-.39,15.78,80.72,80.72,0,0,0,7.21,23.93c3.29,7.31,8,14.89,13.39,23.06.21,1.6.39,3.2.57,4.8-6.26-9.63-11.87-18.57-15.56-27.14-4-9.11-6.22-17.52-6.82-24.52a48.42,48.42,0,0,1,1-16"/><path class="cls-6" d="M69,252.52c-2.94,6.24-6.55,12.64-10.37,19.3A237.65,237.65,0,0,0,47.49,293a131.26,131.26,0,0,0-11.38,49.54,149.79,149.79,0,0,0,1.3,23.8c1.07,8.25,2.39,16,3.58,23.28l-2.61,0c-1.29-7.09-2.69-14.72-3.83-22.88A148.49,148.49,0,0,1,33,342.44a131.37,131.37,0,0,1,11.65-50.71,231.51,231.51,0,0,1,11.48-21.35c3.89-6.63,7.54-12.91,10.53-19a92.92,92.92,0,0,0,6.72-17.49c2.92-11.1,2.63-20.6,1.15-26.82s-3.3-9.41-3-9.55A8.44,8.44,0,0,1,73,199.75a36.34,36.34,0,0,1,2.75,7,45.91,45.91,0,0,1,1.65,11.88,66.84,66.84,0,0,1-1.84,15.78A92.06,92.06,0,0,1,69,252.52"/><path class="cls-7" d="M49.23,321.76a168.68,168.68,0,0,0,16.1-16.57c3.21,2,6.33,4.17,9.73,5.88.47.24.88-.47.41-.71-3.36-1.68-6.45-3.82-9.63-5.81a64.3,64.3,0,0,0,10.64-18.5c8-22.43,7.59-46.79,12-70a51.84,51.84,0,0,1,23.23-.34c2.92.58,26.81,6.4,26.53,9.68-1.24,14.5-.4,37.71,5.83,51.07,4.5,9.67,13.25,16.85,23.21,23.1l-.24.29-.18.19a.35.35,0,0,0-.23.12l-.18.2h0a.33.33,0,0,0-.16.17,39,39,0,0,1-6.6,6.31c-.42.3,0,1,.42.71a41.42,41.42,0,0,0,6.87-6.56,4.36,4.36,0,0,0,1-1c6.94,4.31,14.43,8.18,21.46,12.14l-.68,26.46L36.56,334.72c4.06-4.53,8.28-8.87,12.67-13"/><path class="cls-5" d="M55,316.61a134.09,134.09,0,0,0,10.32-11.32c1.74,1.11,3.45,2.25,5.18,3.35,11.7,9.23,25.58,15.33,40.32,16.54,17.87,1.45,36.34-5.35,49.41-17.59a42.54,42.54,0,0,0,6.71-6.57,4.45,4.45,0,0,0,1-1c10.68,6.75,22.63,12.47,32.2,19l-1.71,68.5c-13.86,1.41-27.74,2.54-41.64,3.3q-19.22,1.05-38.46,1.15c-12.36.06-24.72-.37-37.08-.46-9.33-.07-18.72,0-28.14,0Z"/><path class="cls-5" d="M49.23,322.2a172.9,172.9,0,0,0,16.09-17c2.93,1.88,5.79,3.88,8.84,5.55,5.78,26.87,10.24,54,13.63,81.26l-6.54-.09c-26.75-.19-54,.57-80.83-1.84,12.25-24.86,29-48.88,48.81-67.87"/><path class="cls-5" d="M160.06,307.69a41.68,41.68,0,0,0,6.87-6.67,4.12,4.12,0,0,0,1-1c13,8.19,27.83,14.83,38,23.35,14.28,12,26.94,26.82,39.37,40,1.82,1.93,7.45,8.22,14.52,15.92-9.33,1.44-18.66,2.83-28,4.07-21.62,2.89-43.31,5.18-65.06,6.63q-2.91-41.13-7-82.26a.32.32,0,0,0,.33-.05"/><g class="cls-8"><g class="cls-9"><path class="cls-10" d="M99.45,257.92a137.81,137.81,0,0,1-15.55-7.08c1.4-11.63,2.39-23.35,4.54-34.79a51.84,51.84,0,0,1,23.23-.34c2.92.58,26.81,6.4,26.53,9.68-1,11.45-.65,28.31,2.59,41.48a141.23,141.23,0,0,1-41.34-8.95"/></g></g><path class="cls-7" d="M201.85,135.84c3.58-4.81,10.4-6.64,16.14-5s10.29,6.53,12.38,12.14c5.17,13.93-1.62,31.27-13.47,39.46a35.79,35.79,0,0,1-23,6.15"/><path d="M200.9,181.74c0-.16.76-.32,2.06-.75a11.26,11.26,0,0,0,4.77-2.88,5.3,5.3,0,0,0,.3-7c-.92-1.21-2.29-2.36-3.44-4a15.66,15.66,0,0,1-1.35-2.72,13.53,13.53,0,0,1-.6-3,17.5,17.5,0,0,1,3.1-10.86,19,19,0,0,1,6.65-6.31,13.06,13.06,0,0,1,6-1.65c1.47.1,2.24.33,2.22.45s-.81.21-2.16.37a14.61,14.61,0,0,0-5.26,2.1,19.16,19.16,0,0,0-5.79,6.07,16.34,16.34,0,0,0-2.64,9.66,11.88,11.88,0,0,0,.48,2.54,14.86,14.86,0,0,0,1.08,2.23c.91,1.37,2.23,2.54,3.3,4a6.66,6.66,0,0,1,1.32,5.12,7.08,7.08,0,0,1-2.11,4,10.51,10.51,0,0,1-5.64,2.65c-1.44.21-2.24.09-2.25,0"/><path class="cls-7" d="M57.72,51A47.15,47.15,0,0,1,77,34C98,24,123,23.06,145.57,27.82c17.3,3.64,35.58,10.72,47.15,24.7,10.74,13,14.65,32.21,16.27,48.57,2.41,24.29-1.46,48-4.05,72.19-1.6,14.94-4.47,30.17-12.43,42.91-16.28,26.05-50.06,30.07-78,26.06C98.08,239.89,84.9,235.38,72.41,224,57.56,210.39,53.13,192,49,172.81c-4.55-21.05-6-42.71-5.69-64.21C43.54,89.21,46.74,67.5,57.72,51"/><g class="cls-11"><g class="cls-12"><path class="cls-13" d="M189.09,47.87a42.52,42.52,0,0,1-20.6,35.71c-15.51,9.08-36,7.72-50.22,18.67-7.6,5.84-12.46,14.51-19.27,21.26a50.43,50.43,0,0,1-15.13,10.3,36.9,36.9,0,0,1-11.06,3.08c-12.37,1.26-24.38-2.16-30.62-13.78A255.52,255.52,0,0,0,66,109.47c5.06-3.23,10.22-6.73,13.35-11.86,4.91-8,3.9-18.2,6.43-27.25,3.65-13,14.79-23.09,27.45-27.87s26.66-4.83,40-2.87"/></g></g><path class="cls-7" d="M52,134.52C43.82,112.09,13,119,7.36,139c-2.29,8.09-.86,16.93,3.05,24.44,9,17.25,29.14,26.48,49.09,21.54"/><path d="M51.68,41.11a172.9,172.9,0,0,1,41-20.49c6-2,11.84-3.85,17.66-5.26a175.31,175.31,0,0,1,34.38,4.38C160.84,23.35,177.8,28,192,35.92a67,67,0,0,1-2.78,10A52,52,0,0,1,157,76.79c-10.75,3.48-22.56,3.39-32.91,7.94-10.87,4.77-18.93,14.1-26.66,23.1S81.57,126.1,70.6,130.66s-25.53,2.81-32.06-7.09c-5-7.58-4.06-17.48-2.78-26.47,2.75-19.25,6.63-39.21,15.92-56"/><path class="cls-6" d="M60.3,125.09c-.08-.26,2.22-.83,5.74-3s8-6.26,12.32-12.33c2.18-3,4.35-6.51,6.82-10.22a72.28,72.28,0,0,1,8.89-11.35,44.76,44.76,0,0,1,13.36-9,136.19,136.19,0,0,1,16-5.76c11-3.39,21.53-6.36,30.35-10.71A55.33,55.33,0,0,0,174,46.88a37.36,37.36,0,0,0,7.35-15.65c.78-4.07.62-6.43.91-6.44.14,0,.72,2.32.3,6.62a35.63,35.63,0,0,1-6.78,16.79,50.47,50.47,0,0,1-8.57,9.24,62.38,62.38,0,0,1-12.1,7.89C146,70,135.3,73.07,124.34,76.44A142.58,142.58,0,0,0,108.7,82a42.78,42.78,0,0,0-12.61,8.22A73.68,73.68,0,0,0,87.32,101c-2.53,3.61-4.83,7.08-7.19,10.09-4.67,6.07-9.61,10.15-13.49,12.06s-6.32,2.11-6.34,2"/><path class="cls-6" d="M38.7,100.7c-.1,0-.12-.57-.06-1.62,0-.53.07-1.18.16-2s.31-1.74.47-2.63a46.3,46.3,0,0,1,6.59-15.71,49.15,49.15,0,0,1,32.9-22.07A106.12,106.12,0,0,1,94.7,55.08c10.87-.4,21.16-.35,30.06-2.6A45.39,45.39,0,0,0,145.82,41a49.51,49.51,0,0,0,9.85-13.15c1.79-3.49,2.51-5.58,2.76-5.5s-.16,2.27-1.65,6a44.46,44.46,0,0,1-9.4,14.21A46.84,46.84,0,0,1,138.09,50a47.26,47.26,0,0,1-12.61,5.26c-9.35,2.51-19.91,2.52-30.65,2.93a109,109,0,0,0-15.5,1.52,49.3,49.3,0,0,0-13.54,4.45A50.19,50.19,0,0,0,47.69,80,51.67,51.67,0,0,0,40.45,94.8c-.25.85-.5,1.68-.74,2.51q-.23.94-.45,1.86c-.26,1-.45,1.54-.56,1.53"/><path class="cls-6" d="M67.13,44.71c-.28-.18,1.88-3.82,7.44-7.45a47.11,47.11,0,0,1,10.37-4.92,104.75,104.75,0,0,1,13.47-3.49c4.79-1,9.32-1.81,13.37-2.81a72.83,72.83,0,0,0,10.48-3.33c5.79-2.38,8.86-4.9,9.18-4.51s-2.39,3.47-8.25,6.52a57.27,57.27,0,0,1-10.67,4.11C108.39,30,103.8,31,99,31.92s-9.23,1.95-13.19,3.16a57.1,57.1,0,0,0-10.15,4.09c-5.51,2.92-8.17,5.9-8.56,5.54"/><g class="cls-11"><g class="cls-14"><path class="cls-13" d="M16.94,144.2a34.68,34.68,0,0,1,2.33-7.95c1.87-4.36,3.62-8.59,8.89-5.85,3.6,1.87,6.58,5.95,8.44,9.47,3.3,6.23,5.57,12.27,5.11,19.47a4.13,4.13,0,0,1-.5,2c-1,1.51-3.22,1.32-4.91.74s-3.58-1.38-5.17-.55c-3.94,2.07-.83,8.77.74,11.38,0-.06-6.11-1-7-1.47a11.87,11.87,0,0,1-5.06-5.08,38.74,38.74,0,0,1-2.91-22.19"/></g></g><path d="M206.64,104.08s-16.16-22.81-25.71-14.19-5.38,9.66-5.38,9.66Z"/><path d="M74.18,104.14s31.76-34.76,44.07-21.81c7.19,7.56,1.94,12.44,1.94,12.44Z"/><path class="cls-15" d="M115.38,108.84c-1.57,3.77-6.62,6.64-10.14,8.24A8.44,8.44,0,0,0,99,113.66c-6-.16-11.08,7.54-11.33,17.19s4.43,17.6,10.44,17.76,11.08-7.55,11.32-17.2a26,26,0,0,0-1.08-8.29c4.69-3.92,7-14.28,7-14.28"/><path class="cls-16" d="M83.94,124.92a17.72,17.72,0,0,0,7.27,6.36,17.69,17.69,0,0,0,9.62,1,17.7,17.7,0,0,0-7.28-6.36,17.65,17.65,0,0,0-9.61-1"/><path class="cls-15" d="M188.76,120c-1.08,2.59-4.5,4.57-6.95,5.69a6.07,6.07,0,0,0-4.2-2c-4.53-.12-8.36,5.69-8.54,13s3.34,13.27,7.87,13.39,8.35-5.69,8.54-13a19.12,19.12,0,0,0-1.24-7.44c3-3,4.52-9.6,4.52-9.6"/><path class="cls-16" d="M191,131.76a16.23,16.23,0,0,1-15.46,5.81A16.21,16.21,0,0,1,191,131.76"/><path class="cls-17" d="M139.25,172.48c-2.65-1-5.29-2.57-8.13-2.36a27.32,27.32,0,0,0,14.48,14.7,4,4,0,0,0,1.57.4,3.91,3.91,0,0,0,1.87-.64,32,32,0,0,0,9.59-8.11,6.06,6.06,0,0,0,1.26-2.2c.72-2.74-1.18-2.18-2.84-1.58a24.71,24.71,0,0,1-6,1.36,25.21,25.21,0,0,1-11.85-1.57"/><path class="cls-18" d="M146.23,183.25c1.71-1.45,3.63-2.67,5.39-4.1a42.57,42.57,0,0,0,6-5.8c-8.78-6.39-8.45-15.73-7.75-26.3a30.88,30.88,0,0,1,8.77-19.52,30,30,0,0,1,2.85-2.55,10.69,10.69,0,0,1,3.14-1.64c-.57.61-1,1.34-1.48,2a58.93,58.93,0,0,0-3.91,5,37.13,37.13,0,0,0-3,5.67,37.58,37.58,0,0,0-3,12.47,31.06,31.06,0,0,0,1.7,12.43,24.44,24.44,0,0,0,8.65,11.78s-6.29,7-6.9,7.52a31.39,31.39,0,0,1-5.17,3.87c-1.82,1.09-3.9,2.38-6.09,2.23a3.44,3.44,0,0,1-1.92-.63,7,7,0,0,0,1.07-.81l.42-.42c.4-.4.83-.8,1.27-1.17"/><path class="cls-18" d="M112.51,229.35a32.17,32.17,0,0,0,26.07,6.29c-3.76,3.59-8.31,5.21-13.36,4s-10.07-5.77-12.71-10.25"/><path class="cls-19" d="M119.55,339.63c-23.91.34-47-8.93-66.41-23.19A139.42,139.42,0,0,0,65.9,302.86c12.6,11.21,28.25,18.75,45,20.09,21.44,1.71,43.74-8.22,56.56-25,5.09,3.19,10.5,6.14,15.81,9.05-13.84,20.08-38.94,32.31-63.72,32.66"/><path class="cls-5" d="M152.65,312.51c1.71,2.25,3.5,4.67,5.31,7.24s3.47,5.05,5,7.41c-.57.35-1.12.71-1.69,1-1.57-2.31-3.25-4.75-5-7.26s-3.6-5.06-5.28-7.37c.57-.34,1.12-.71,1.68-1.07"/><path class="cls-5" d="M136.8,320c2,3.18,4.19,6.67,6.4,10.37q1.47,2.46,2.83,4.83c-.67.23-1.33.47-2,.68l-2.62-4.44-6.54-10.86,1.93-.58"/><path class="cls-5" d="M119.53,323.07c.5,4,1,8.37,1.47,13,.12,1.19.23,2.36.34,3.52l-.56,0c-.51,0-1,0-1.52,0l-.33-3.32c-.43-4.37-.84-8.63-1.28-13.19.62,0,1.25,0,1.88,0"/><path class="cls-5" d="M98,330.86c.2-3.53.39-7,.58-10.4.67.19,1.33.37,2,.54-.13,3.2-.29,6.53-.5,10-.13,2.22-.28,4.37-.43,6.48-.68-.14-1.36-.3-2-.46.13-2,.26-4.07.39-6.14"/><path class="cls-5" d="M80.43,319.68q1-3,2.07-5.88l1.83,1c-.62,1.82-1.27,3.68-1.93,5.6-1.26,3.6-2.49,7.05-3.65,10.26-.61-.27-1.21-.53-1.81-.81,1.08-3.19,2.25-6.59,3.49-10.14"/><g class="cls-20"><g class="cls-21"><path class="cls-22" d="M228.16,35.4a.25.25,0,0,1,0-.49.25.25,0,0,1,0,.49"/></g></g><path class="cls-23" d="M117,210.66a19.68,19.68,0,0,0,.49,9c1.57,5.37,5.44,9.4,10.48,10.26,6.08,1,12.17-3,15.13-9.41a21.23,21.23,0,0,0,1.61-5.17c1.59-9.37-3.36-18-11-19.29S118.62,201.29,117,210.66Z"/><path class="cls-24" d="M117.52,219.69c1.57,5.37,5.44,9.4,10.48,10.26,6.08,1,12.17-3,15.13-9.41-2.35-1.78-6.9-4.2-14.22-3.87C124.52,217,120.49,217.79,117.52,219.69Z"/><path class="cls-25" d="M133.79,196c4.94.84,8.75,4.78,10.39,10l-23.46-4.06C124,197.59,128.84,195.16,133.79,196Z"/></g></g></svg>