<svg id="Layer_1" data-name="Layer 1" xmlns="http://www.w3.org/2000/svg" viewBox="0 0 93.61 62.88"><defs><style>.cls-1{fill:#4f4a88;fill-rule:evenodd;}</style></defs><title>A</title><path class="cls-1" d="M91.27,43.41a1,1,0,0,1-.42,0c-.33-.07-.58-.32-1.06-.45a18,18,0,0,0-3-.38c-4.57-.31-11.86-.3-19.73-.29-12.34,0-26.12.43-33.31.57a19,19,0,0,0-2.21.06,10.2,10.2,0,0,0-1.49.47.79.79,0,0,0-.81.77.8.8,0,0,0,.78.82,8.39,8.39,0,0,0,1.48.51,16.32,16.32,0,0,0,2.22.12c7.19.3,21,.85,33.33.92,7.88,0,15.19.16,19.75-.3a21.74,21.74,0,0,0,5.39-1.08,3.52,3.52,0,0,0,1.14-2.37,19.76,19.76,0,0,0,.16-4.6c-.29-2.82-.57-5.69-.72-8.55-.1-1.89-.13-3.78-.09-5.66,0-1.28.37-3.71-.07-5.21a2.7,2.7,0,0,0-2.92-2.17c-10.9.53-21.19.48-30.29.78-11.27.38-20.71,1-27.32,1.46a15,15,0,0,0-1.82.13,10.71,10.71,0,0,0-1.21.39.23.23,0,0,0-.22.24.24.24,0,0,0,.24.22c.41.1.77.25,1.22.32a17.85,17.85,0,0,0,1.82.05c6.62.19,16.07.89,27.35.85,9.16,0,19.48-.73,30.41-1.54.17,0,.08.21.12.38a7,7,0,0,1,.14,1.35c0,1-.07,2.06-.06,2.74,0,1.94.16,3.89.33,5.84.27,2.89.65,5.78,1,8.63a15.73,15.73,0,0,1,.1,2.31,12.4,12.4,0,0,1-.24,2.38,2,2,0,0,1-.08.26"/><path class="cls-1" d="M35.89,58.68c-1.2-.93-2.39-2.08-3.07-2.59L18.26,45.53,5.68,36.65a24.92,24.92,0,0,1-2.07-1.52,2.88,2.88,0,0,1-.89-1c1,.36,2.57-2.18,3.07-2.64l10.46-9.75c2.77-2.58,5.57-5.24,8.27-8,1.81-1.83,3.58-3.7,5.27-5.6a35.69,35.69,0,0,1,3.39-3.45l0,0,.1,1.35c.41,2.75.67,5.81,1,8.78.12,1.28.3,2.52.38,3.75,0,.42-.19.93.07,1.25l.14.18,0,0a1.62,1.62,0,0,1,.79.06c.08,0,0,.24.21.25s.17-.19.25-.21a2.86,2.86,0,0,1,.82.06l.07,0,.09-.08c.09-.07,0-.23.07-.35a29.39,29.39,0,0,0,.6-4,67,67,0,0,0-.43-10.2L37,3s-.07-.85-.12-1.17a2.14,2.14,0,0,0-2-1.83,6.1,6.1,0,0,0-3.3,1.43,30.19,30.19,0,0,0-4.21,4.66c-2,2.36-4.16,4.68-6.35,7s-4.47,4.5-6.72,6.67L4,29.54a30,30,0,0,0-3.2,2.63A2.81,2.81,0,0,0,0,33.92a3.7,3.7,0,0,0,.93,2.3,17,17,0,0,0,3.15,2.62l12.52,9L31,58.55c.79.61,2.29,2.13,3.66,3.13a6,6,0,0,0,2.54,1.19,1.82,1.82,0,0,0,2-1.42,22.18,22.18,0,0,0,.38-4.38L38.35,45.42a1.72,1.72,0,1,0-3.43.3l1.32,11.46c0,.11-.21.79-.35,1.5"/><path class="cls-1" d="M90.09,39.12a3.37,3.37,0,0,0,2.57-1.93,5,5,0,0,0,.06-4,14.14,14.14,0,0,0-2.47-3.83A7.14,7.14,0,0,0,88.74,28L85.87,25l.08.05,1.54,1c.27.18.75.67,1,.82a1.94,1.94,0,0,0,1.25.24,1.7,1.7,0,0,0,1.58-1.94A3.4,3.4,0,0,0,91,23.81a1.82,1.82,0,0,0-.31-2.44l-1.61-1.22c-.72-.52-1.5-1.13-2.32-1.63a7.66,7.66,0,0,0-2.11-.91,1.65,1.65,0,0,0-2.14,1.09,1.25,1.25,0,0,0-.07.23c-.32-.19-.6-.36-.84-.48l-.15-.05-.11-.07a2.69,2.69,0,0,0-.77-.17,21.44,21.44,0,0,0-4-.42c-.76,0-1.59,0-2.45.06-4.62-.11-10.26-.12-13.36-.1h-.12l-.32,0c-.63-.06-1.09-.07-1.29-.07a1.82,1.82,0,0,0-1.64.92,2.8,2.8,0,0,0-.23.71l-.08.08a1.05,1.05,0,0,0,.06.33,1.32,1.32,0,0,0,.37.87c-2.15-.43-3.86-.79-4.81-1a1.33,1.33,0,0,0-1.57.58,1.38,1.38,0,0,0-.25,1l-4-1a1.62,1.62,0,0,0-2,.75c-1.8-.46-3.28-.87-4.29-1.21a1.3,1.3,0,0,0-1.87.8,16.41,16.41,0,0,0-1.63-1.08,7.17,7.17,0,0,0-.67-.35c-.16-.57-.81-1.42-1-2-.42-1-1-2.09-1.48-3.15A5.17,5.17,0,0,0,34.2,12a11.64,11.64,0,0,0-.26-2,1.43,1.43,0,0,0,.29,0A1.39,1.39,0,0,0,35,7.65c-.08-.11-.47-.48-.62-.62a9.37,9.37,0,0,0-1.13-1,3,3,0,0,0-1-.43,1.72,1.72,0,0,0-.77,0,1.33,1.33,0,0,0-1-.73,1.27,1.27,0,0,0-1.35.57L22.71,14,21.2,15.75a20.53,20.53,0,0,0-3.08,2.37c-1.51,1.37-2.89,2.91-4.33,4.27l-1.85,1.75c-.84.68-1.68,1.35-2.49,2a1.47,1.47,0,0,0-.17.16,1.35,1.35,0,0,0-.41.92,1.51,1.51,0,0,0,.22,1l-.19.11-.2.13L6,30.63A13.41,13.41,0,0,0,3.61,34a1.74,1.74,0,0,0,.11,1.76,7.23,7.23,0,0,0,1.9,1.53l7.24,5,.78.44L16.79,45c3.85,2.82,7.79,5.54,11.68,8.33A93.64,93.64,0,0,1,36,59.12a.23.23,0,0,0,.32-.32c-.44-.49-.89-1-1.34-1.44a1.49,1.49,0,0,0,1.89-.66,1.76,1.76,0,0,0,.16-.31c.68.37,1,.1.25-1.48a13.07,13.07,0,0,0-1.6-2.47l-.1-.2a29.31,29.31,0,0,1-1-3.09,2.29,2.29,0,0,0,.66.2A2,2,0,0,0,37,48.8a1.84,1.84,0,0,0,.58-1.68,2.38,2.38,0,0,0-.44-1.06l-.1-.12a2.24,2.24,0,0,0,.2-.41,2.53,2.53,0,0,0,.35-.09,1.74,1.74,0,0,0,1.28-1.72l.14,0,10.28.94L72,44.33c.32,0,.95.33,1.26.38a1.86,1.86,0,0,0,1.07-.13A1.48,1.48,0,0,0,75.4,43a1.56,1.56,0,0,0,1.17-.26c2.26.27,4.55.42,6.78.69l2.84.42c.25,0,.86.13,1.24.18l.92.16a1.89,1.89,0,0,0,1.48-.65,2.37,2.37,0,0,0,.49-1.07,1.39,1.39,0,0,0,.42-.26,1.69,1.69,0,0,0-.34-2.93ZM7.65,35l-.19-.15-.11.06h0l.37.25.1-.06Zm6-6.17a3.94,3.94,0,0,1-.36-.37l-.17.13a12.94,12.94,0,0,0-1.58,1.56l.29.17.36.22a1.41,1.41,0,0,1,1-1.6,1.37,1.37,0,0,1,.5-.11m-3.07,4.76v0l-.09-.06h-.22l.28.13Zm5.65-7.16h0l0,0Zm3.17-2.66-.81-1.06-.47.39c.39.19.78.4,1.17.61ZM23,20.33l-.72-.89-.55.51-.4.37.1.06a38.21,38.21,0,0,1,3.62,3l1,.87Zm2.24-2.93a1.25,1.25,0,0,1,0-.24l0-.18-.16-.37,0-.09-.19.23-.25.27.57.38m3.55-.47-.6-2.1c-.1-.33-.34-.94-.54-1.59l-.07.08A2.91,2.91,0,0,0,27.69,15c.23.55.48,1.08.75,1.61l.09.08ZM27.24,47.05l-2-1.52L25,45.34l-1.25-.84c.47.37.94.75,1.39,1.14s1.11,1,1.65,1.54l.79.58,2.78,2.12ZM47.11,24.74l-.23-.2-.94-.26,1.66,1.45a7.52,7.52,0,0,0,1.56,1l.43,0Zm21,16.3c-.32-.12-.65-.23-1-.34-1.13-.38-2.4-.61-3.71-.93-3.1-.35-6.35-.7-8.9-1.08-3-.45-5.07-1.11-5.58-1.56l-1.56-1.29-1.08-.3c.23.29.46.57.68.86a26.27,26.27,0,0,1,2.79,4.52ZM55.32,27.19l1.72.14-2.65-.74.16.14a3.78,3.78,0,0,0,.77.46m15.28-4a5.91,5.91,0,0,1-.49-.63l-1.84-.21L66,22.14,64.54,22c2,.4,4,.84,6.06,1.29M89.31,35.37a.12.12,0,0,0,.08-.15s0,0,0,0a1.56,1.56,0,0,0-.07-1,6,6,0,0,0-.6-.57L84.2,30.08c-1.25-1-4.79-2-9.06-3-3.13-.76-6.64-1.49-10-2.16,2.92.83,5.84,1.71,8.52,2.59s5.16,1.78,7.14,2.65c2.83.77,4.93,1.7,5.72,2.56l.78.9a8.52,8.52,0,0,1,1,.9,5.62,5.62,0,0,1,.65.84.55.55,0,0,0,.31,0l0-.12,0,0a.51.51,0,0,1-.07.17h0v0ZM81.61,25l-1.15-1.12c-.07.1-.28-.27-.32-.31l.32.31a.05.05,0,0,0,0,0c.13-.61-1.89-.26-3.53-.44h0C78.4,24,80,24.45,81.61,25"/><path class="cls-1" d="M66.61,40.42c0-.06-.2-.09-.4-.1a33.53,33.53,0,0,0-6.45-1.06l-1.2-.07c-3-.33-5.93-.76-8.91-.9-1.36-.07-2.78-.41-4.06,0-.22.07-.27.18-.46.31a.22.22,0,0,0-.23.22.12.12,0,0,0,0,.1l-1,0a.62.62,0,0,0-.24,1.22,32.06,32.06,0,0,0,4.54,1c3,.43,6.06.49,9.1.67a49.28,49.28,0,0,1,7.18.79l.65.16,1,.23a1.26,1.26,0,0,0,.73,0c.13-.05,1.61-2-.17-2.5Z"/><path class="cls-1" d="M90.49,43.58a15.64,15.64,0,0,0,.2-6l0,3.84a4.43,4.43,0,0,0,.33-2.59,40.42,40.42,0,0,1-7.7-8,20.57,20.57,0,0,0,6.13,4.15,32.28,32.28,0,0,0-24-8.24,116.38,116.38,0,0,1,12.86,2,3.85,3.85,0,0,1,2.47,1.2L62.47,24a18.56,18.56,0,0,0,7.78.21,36.26,36.26,0,0,0-7.55-2.33l7.53.23-5.41-.61Q69.91,22.92,75.09,24l-5.27-.39A82.35,82.35,0,0,0,86,24.72l-8-1.49a2.81,2.81,0,0,0,2.15,1l-1.84-1.08c4.73-.53,9,2.92,11.67,6.88l-.4-4,.71,4.34-.87-8.46a6.29,6.29,0,0,1,.11-2.63,6.58,6.58,0,0,1,.56,5.29,11.61,11.61,0,0,0-.11-4c-1.86,2-1.67,5.13-1.11,7.81s1.33,5.54.27,8.06l-3.11-5.25a4.54,4.54,0,0,0-1.93-2.08A4.41,4.41,0,0,0,81.81,29a159.57,159.57,0,0,0-21.35,4.1c-3.86,1-7.82,2.26-10.78,4.95A59.82,59.82,0,0,0,56,39.34a57.17,57.17,0,0,0-9.12-1.45c-.2.25.47.38.51.06s-.31-.55-.61-.69l-2.15-1,3.38.82a27.36,27.36,0,0,0-7.6-1.12,9.25,9.25,0,0,0-6.85,3A9.25,9.25,0,0,0,32,46.16a27.39,27.39,0,0,0,2.48,7.14,7,7,0,0,0,1.44-5.69,39.54,39.54,0,0,0,.16,5.55,28.51,28.51,0,0,0-1-4.84l.24,2.85L25.68,46l7.66,4.62c-4-1.9-8-3.83-11.27-6.75L26,46.6,22.54,43l4.9,3.63-5-15.24c-1.24-3.83-2.39-8.35,0-11.59a33.57,33.57,0,0,1,5.1,5.22l-3.91-3.11a15.5,15.5,0,0,0,2.64,2.48L22,21.55"/><path class="cls-1" d="M55.46,26.26l-6.17.35a20.13,20.13,0,0,0,5.8-.05,1.23,1.23,0,0,1,.76,0c.23.13.32.5.1.64a53,53,0,0,1-10.36-1c4.16.08,8.3.52,12.43,1q-7.85-2.13-15.84-3.57a7.22,7.22,0,0,0,4.11,1.55,3.73,3.73,0,0,0-1.45-.75,1.29,1.29,0,0,0-1.39.62,1.81,1.81,0,0,0,.18,1.39,53.17,53.17,0,0,0,6,9.84L45.27,36a4.2,4.2,0,0,0,2.15.6L45,36.1"/><path class="cls-1" d="M36.83,59.62a5.82,5.82,0,0,0-2.2-2.51,4.58,4.58,0,0,1,.87.71,6,6,0,0,0-1.76-2.26"/><path class="cls-1" d="M2.8,34a20,20,0,0,0,6.56.88,11.17,11.17,0,0,1-3.54-1c1.39-1.46,3.4-2.1,5.25-2.92s3.74-2.05,4.28-4L10.7,30.36C17.5,26.2,21.43,18.6,27.64,13.6l-4.22,6.85L29.86,13a22.81,22.81,0,0,1-.67,6.58,25.29,25.29,0,0,1,1-5.25,5.86,5.86,0,0,0-1.41,2.45,32.63,32.63,0,0,1,4.43-4,2.22,2.22,0,0,1,.92-.49,1.36,1.36,0,0,1,1.46,1.39,1.85,1.85,0,0,1-1.41,1.62c.64-2.58,1.25-5.44,0-7.78-.52-1-1.35-2-1-3a5.06,5.06,0,0,0-.56,2.59l.79-1c-.47-.18-.91.32-1.16.75q-5.39,9.1-10.36,18.44a5.27,5.27,0,0,0-.8,2.4c0,1.49,1.26,2.64,2.31,3.71,5,5.11,7.25,12.29,9.3,19.16q-1.48-6.57-2.9-13.15a2.85,2.85,0,0,1,0-1.78A2.78,2.78,0,0,1,32,34.42c15.75-2.41,32,.5,47.69-2L61.4,36.81c-.37.08-.81.26-.83.64a.86.86,0,0,0,.37.62,6.8,6.8,0,0,0,2.51,1.39c.32.1.69.21.81.52s-.35.7-.53.41l6.73.09a16.44,16.44,0,0,1-5.71.65,8.13,8.13,0,0,1,3.5-.29,25.88,25.88,0,0,1-9.16-.43,71.3,71.3,0,0,1,12.78-8.56c0-1.33-1.59-2-2.88-2.32L53.63,25.68l13-3.11a208.13,208.13,0,0,0-41.62,5"/><path class="cls-1" d="M22.72,22.09a.76.76,0,0,0,.37-.83,35.44,35.44,0,0,0-3.57,3.68"/></svg>