<svg xmlns="http://www.w3.org/2000/svg" xmlns:xlink="http://www.w3.org/1999/xlink" viewBox="0 0 97 104.48"><defs><style>.cls-1{fill:none;}.cls-2{isolation:isolate;}.cls-3{fill:#4f4a88;}.cls-4{clip-path:url(#clip-path);}.cls-5{fill:#333;}.cls-6{fill:#d18f76;}.cls-7{opacity:0.16;}.cls-11,.cls-7{mix-blend-mode:multiply;}.cls-8{clip-path:url(#clip-path-2);}.cls-9{clip-path:url(#clip-path-3);}.cls-10{fill:#d25b51;}.cls-11{opacity:0.26;}.cls-12{clip-path:url(#clip-path-4);}.cls-13{clip-path:url(#clip-path-5);}.cls-14{fill:#f08371;}.cls-15{clip-path:url(#clip-path-6);}.cls-16{clip-path:url(#clip-path-7);}.cls-17{fill:#161818;}.cls-18{fill:#fdece4;}.cls-19{fill:#886339;}.cls-20{fill:#915d37;}.cls-21{fill:#fff;}.cls-22{fill:#2e2c66;}.cls-23{fill:#e9e8d7;}.cls-24{fill:#d59276;}</style><clipPath id="clip-path"><circle class="cls-1" cx="48.12" cy="48.12" r="48.12"/></clipPath><clipPath id="clip-path-2"><rect class="cls-1" x="42.11" y="55.33" width="11.95" height="11.01"/></clipPath><clipPath id="clip-path-3"><rect class="cls-1" x="42.65" y="54.93" width="10.87" height="11.82" transform="translate(-13.35 108.15) rotate(-89.28)"/></clipPath><clipPath id="clip-path-4"><rect class="cls-1" x="33.78" y="18.64" width="30.77" height="20.89"/></clipPath><clipPath id="clip-path-5"><rect class="cls-1" x="38.91" y="13.82" width="20.51" height="30.51" transform="translate(19.47 77.88) rotate(-89.28)"/></clipPath><clipPath id="clip-path-6"><rect class="cls-1" x="28.34" y="37.49" width="5.38" height="9.08"/></clipPath><clipPath id="clip-path-7"><rect class="cls-1" x="26.52" y="39.4" width="9.02" height="5.26" transform="translate(-11.39 72.53) rotate(-89.28)"/></clipPath></defs><title>C</title><g class="cls-2"><g id="Layer_1" data-name="Layer 1"><circle class="cls-3" cx="48.88" cy="48.12" r="48.12"/><g class="cls-4"><path d="M24.7,65.83c0,1,0,2,0,3a.08.08,0,0,1,0,.06V69A20.33,20.33,0,0,0,25,72c.59,3.23,2.36,6.15,2.66,9.44a15.85,15.85,0,0,1-.75,5.38c-.39,1.48-.82,3-1.12,4.46,5.14.43,10.34.37,15.46.47,2.56,0,5.13.17,7.7.19s5.32,0,8-.13c5-.21,9.95-.63,14.91-1.2.45-4,.7-8,1.07-12,.3-3.33.84-6.63,1-10s.09-6.51,0-9.76-.18-6.54-.07-9.81a59.07,59.07,0,0,1,.66-7c0-1.28-.08-2.56-.14-3.83-1-4.17-.14-8.76-1-12.94-1-4.74-5.2-10.75-10.47-11a15,15,0,0,1-2.22-.12,8.85,8.85,0,0,1-2.07-.85c-6.3-3.15-16.13-3.54-22,.95A20.21,20.21,0,0,0,31,21.34,43.53,43.53,0,0,0,29,28.09,66.41,66.41,0,0,0,28,35.52c-.37,4-.92,8.07-1.49,12.09-.24,1.68-.48,3.37-.7,5a6.53,6.53,0,0,1-.16,1.71.07.07,0,0,1-.07.06c-.21,1.75-.4,3.5-.55,5.26-.17,2-.28,4.09-.31,6.14m33.12,9c-.09.07-.18-.08-.09-.14a8.15,8.15,0,0,0,1.39-1.3l0,0h0l0-.05.05,0,0,0,.14-.16a.08.08,0,1,1,.12.12,1.85,1.85,0,0,1-.28.28,8.3,8.3,0,0,1-1.44,1.34M38,74a.08.08,0,1,1,.09-.14c.7.44,1.37.93,2.11,1.32.1.05,0,.19-.08.14C39.42,75,38.74,74.48,38,74"/><path class="cls-5" d="M63.18,87.48A10.33,10.33,0,0,1,63.83,86a26.56,26.56,0,0,0,1.49-4.25,26.11,26.11,0,0,0,.82-6.57,25.24,25.24,0,0,0-1.34-8c-.95-2.73-2.2-5.23-3-7.68a16.54,16.54,0,0,1-.76-3.57,12.73,12.73,0,0,1,.11-3.18A8.41,8.41,0,0,1,63,48.55a5.07,5.07,0,0,1,.5-.52,2.7,2.7,0,0,1,.41-.34c.23-.16.36-.24.37-.22s-.45.4-1.08,1.24a8.59,8.59,0,0,0-1.58,4.09,13,13,0,0,0,0,3.06,16.88,16.88,0,0,0,.79,3.43c.77,2.39,2,4.87,3,7.66a24.85,24.85,0,0,1,1.33,8.19,25.16,25.16,0,0,1-1,6.7,22.13,22.13,0,0,1-1.7,4.23,7,7,0,0,1-.88,1.41"/><path class="cls-5" d="M55.41,78.21c-.1,0,.15-1.36.32-3.55a42,42,0,0,0-.19-8.54c-.39-3.32-1.4-6.22-1.62-8.47a10.48,10.48,0,0,1,0-2.65,5.31,5.31,0,0,1,.15-.7c0-.16.09-.24.11-.23a22.15,22.15,0,0,0,.2,3.52c.17,1.08.5,2.34.87,3.75A34.75,34.75,0,0,1,56.18,66a33.7,33.7,0,0,1,0,8.67,12.65,12.65,0,0,1-.78,3.51"/><path class="cls-5" d="M25.72,52.18A27.07,27.07,0,0,0,27.83,45a51.38,51.38,0,0,0,.5-7.37A32.79,32.79,0,0,1,28.6,34a20.68,20.68,0,0,1,.8-3.39A49.38,49.38,0,0,1,32,24.55a28.92,28.92,0,0,1,3.13-5.2,17.62,17.62,0,0,1,4.09-3.73,19.88,19.88,0,0,1,2.21-1.27l1.11-.49.28-.11.28-.1.55-.19c.72-.27,1.46-.41,2.15-.6l1-.18.51-.09.5,0,1-.09c.31,0,.62,0,.92,0s.6,0,.88,0l.84.06a17.55,17.55,0,0,1,4.83,1.09c.53.21.92.42,1.18.54a1.91,1.91,0,0,1,.39.2l-.42-.14c-.27-.1-.66-.29-1.19-.47a18.52,18.52,0,0,0-4.81-1l-.83,0c-.28,0-.57,0-.86,0l-.91,0-1,.11-.49.05-.49.09-1,.19a19.83,19.83,0,0,0-2.1.62l-.54.19-.28.09-.26.12-1.09.49A19.08,19.08,0,0,0,39.4,16a17.7,17.7,0,0,0-4,3.67,28.55,28.55,0,0,0-3,5.14,47.82,47.82,0,0,0-2.48,6,20.17,20.17,0,0,0-.77,3.31,31,31,0,0,0-.25,3.52,50.32,50.32,0,0,1-.48,7.45,27.57,27.57,0,0,1-2.21,7.55c-.14.3-.29.59-.45.89a4.17,4.17,0,0,0,0-1.32"/><path class="cls-5" d="M24.72,68.88c0-.06,0-.08-.07-.08.69-1,1.41-2,2.1-3a74.17,74.17,0,0,0,5.19-7.51,20.76,20.76,0,0,0,2.62-7,14.43,14.43,0,0,0-.14-5.6,11.29,11.29,0,0,0-1.35-3.29,9.34,9.34,0,0,0-.52-.78c-.12-.17-.18-.26-.17-.27s.08.07.22.23a6.49,6.49,0,0,1,.58.75,10.54,10.54,0,0,1,1.48,3.3,14.38,14.38,0,0,1,.26,5.72,20.76,20.76,0,0,1-2.58,7.13,74.23,74.23,0,0,1-5.16,7.6c-.85,1.17-1.72,2.39-2.55,3.68l.09-1"/><path class="cls-5" d="M67.37,19a5.81,5.81,0,0,1,1,.47,6,6,0,0,1,1.37,1.14A7.75,7.75,0,0,1,71,22.67a13.65,13.65,0,0,1,.84,2.92,26,26,0,0,1,.31,3.59c0,1.29,0,2.67-.09,4.13s-.19,3-.18,4.6a29,29,0,0,0,.4,5,15,15,0,0,0,1.64,4.67l0,1-.22-.36A15.13,15.13,0,0,1,71.81,43a28.25,28.25,0,0,1-.37-5.1c0-1.63.14-3.17.23-4.62s.15-2.83.14-4.11a25.68,25.68,0,0,0-.26-3.54,12.72,12.72,0,0,0-.77-2.87,7.12,7.12,0,0,0-1.2-2,5.9,5.9,0,0,0-1.29-1.15,6.08,6.08,0,0,0-.94-.52A1.37,1.37,0,0,1,67,18.9a1.41,1.41,0,0,1,.35.1"/><path class="cls-5" d="M69.81,45.32a4.89,4.89,0,0,1,.26-.83q.09-.27.12-.27a1.09,1.09,0,0,1-.06.29c0,.19-.14.46-.2.84a10.85,10.85,0,0,0-.12,3.28,16.84,16.84,0,0,0,1.44,5A34.68,34.68,0,0,0,74,58.44c0,.33.07.66.1,1a41.06,41.06,0,0,1-3.16-5.68,16.84,16.84,0,0,1-1.35-5.11,9.8,9.8,0,0,1,.25-3.33"/><path class="cls-5" d="M39.06,63.18c-.63,1.28-1.4,2.6-2.21,4S35.2,70,34.48,71.52A27.37,27.37,0,0,0,32,81.78a32,32,0,0,0,.21,5c.2,1.72.46,3.33.69,4.84h-.55c-.25-1.48-.52-3.06-.73-4.76a30.61,30.61,0,0,1-.25-5,27.25,27.25,0,0,1,2.55-10.5,46.7,46.7,0,0,1,2.44-4.41c.82-1.37,1.6-2.66,2.24-3.91A19.72,19.72,0,0,0,40,59.32a12,12,0,0,0,.31-5.57c-.28-1.3-.66-2-.6-2s.12.15.29.47a6.87,6.87,0,0,1,.55,1.47,9,9,0,0,1,.31,2.47,14,14,0,0,1-.42,3.27,19.42,19.42,0,0,1-1.4,3.74"/><path class="cls-6" d="M34.76,77.5a34,34,0,0,0,3.39-3.4,21.77,21.77,0,0,0,2,1.25c.09.05.18-.09.08-.14-.69-.36-1.33-.82-2-1.24a13.22,13.22,0,0,0,2.25-3.81c1.73-4.64,1.7-9.7,2.67-14.51a10.79,10.79,0,0,1,4.83,0c.6.13,5.55,1.4,5.48,2.08-.29,3-.18,7.83,1.08,10.62a12.06,12.06,0,0,0,4.76,4.86l0,.06,0,0-.05,0,0,.05h0l0,0a8.15,8.15,0,0,1-1.39,1.3c-.09.06,0,.21.09.14a8.3,8.3,0,0,0,1.44-1.34.7.7,0,0,0,.21-.21c1.43.92,3,1.74,4.43,2.58l-.21,5.5L32.1,80.16c.85-.93,1.74-1.82,2.66-2.66"/><path class="cls-3" d="M36,76.38a27.51,27.51,0,0,0,2.18-2.28l1.06.7a15.83,15.83,0,0,0,8.33,3.47,13.85,13.85,0,0,0,10.31-3.45,8.39,8.39,0,0,0,1.41-1.32.87.87,0,0,0,.22-.21c2.19,1.41,4.66,2.6,6.63,4l-.53,13.94c-2.88.25-5.76.45-8.65.57-2.67.1-5.33.15-8,.13s-5.14-.14-7.7-.19c-1.94,0-3.89-.06-5.85-.08Z"/><path class="cls-3" d="M34.76,77.5a34,34,0,0,0,3.39-3.4c.6.39,1.19.81,1.82,1.15,1.13,5.45,2,11,2.62,16.48l-1.35,0c-5.56-.11-11.23,0-16.79-.59A49.74,49.74,0,0,1,34.76,77.5"/><path class="cls-3" d="M57.82,74.84a8.3,8.3,0,0,0,1.44-1.34.87.87,0,0,0,.22-.21c2.67,1.71,5.74,3.1,7.83,4.87a96.69,96.69,0,0,1,8.07,8.27c.38.4,1.53,1.7,3,3.29-1.94.27-3.89.52-5.83.76-4.5.53-9,.94-13.53,1.18q-.49-8.4-1.25-16.81a.06.06,0,0,0,.07,0"/><g class="cls-7"><g class="cls-8"><g class="cls-9"><path class="cls-10" d="M45.36,64.38a29.4,29.4,0,0,1-3.21-1.52c.32-2.41.56-4.84,1-7.21a10.79,10.79,0,0,1,4.83,0c.6.13,5.55,1.4,5.48,2.08a29.3,29.3,0,0,0,.43,8.62,29.28,29.28,0,0,1-8.56-2"/></g></g></g><path class="cls-6" d="M67,39.29a3.15,3.15,0,0,1,3.36-1,4.11,4.11,0,0,1,2.54,2.56,7.29,7.29,0,0,1-7.7,9.37"/><path d="M66.63,48.82s.16-.06.43-.15a2.39,2.39,0,0,0,1-.59,1.1,1.1,0,0,0,.08-1.45c-.19-.25-.47-.49-.71-.84a3.61,3.61,0,0,1-.27-.56,2.78,2.78,0,0,1-.12-.64,3.59,3.59,0,0,1,.68-2.24,3.93,3.93,0,0,1,1.39-1.3,2.79,2.79,0,0,1,1.25-.32c.3,0,.46.07.46.1s-.17,0-.45.07a2.78,2.78,0,0,0-1.1.42,3.9,3.9,0,0,0-1.22,1.24,3.42,3.42,0,0,0-.57,2,1.84,1.84,0,0,0,.09.53,2.52,2.52,0,0,0,.22.47c.18.29.46.53.67.84a1.35,1.35,0,0,1,.26,1.07,1.52,1.52,0,0,1-.44.83,2.16,2.16,0,0,1-1.18.53c-.3,0-.47,0-.47,0"/><path class="cls-6" d="M37.23,21.28a9.87,9.87,0,0,1,4-3.46,22.6,22.6,0,0,1,14.27-1.11c3.58.8,7.36,2.32,9.73,5.25,2.2,2.72,3,6.73,3.25,10.13.44,5-.43,10-1,15A20.86,20.86,0,0,1,64.8,56c-3.45,5.37-10.48,6.12-16.26,5.21a15.11,15.11,0,0,1-8.71-3.91c-3-2.86-3.92-6.69-4.73-10.68a59.79,59.79,0,0,1-1-13.35c.1-4,.82-8.53,3.14-11.94"/><g class="cls-11"><g class="cls-12"><g class="cls-13"><path class="cls-14" d="M64.53,21a8.84,8.84,0,0,1-4.38,7.36c-3.24,1.84-7.49,1.51-10.47,3.74-1.6,1.2-2.63,3-4.06,4.37a10.68,10.68,0,0,1-3.17,2.1,7.74,7.74,0,0,1-2.31.61c-2.57.23-5.06-.51-6.32-2.94a52.77,52.77,0,0,0,5-2.77A8.22,8.22,0,0,0,41.61,31c1-1.65.86-3.77,1.41-5.64a9.14,9.14,0,0,1,5.77-5.72,16.77,16.77,0,0,1,8.33-.49"/></g></g></g><path class="cls-6" d="M35.84,38.62c-1.65-4.68-8.07-3.31-9.3.82a7,7,0,0,0,.57,5.08,9,9,0,0,0,10.14,4.6"/><path d="M36,19.22a36.07,36.07,0,0,1,8.57-4.15c1.25-.4,2.47-.76,3.68-1a35.92,35.92,0,0,1,7.13,1,37.24,37.24,0,0,1,9.78,3.48,14.35,14.35,0,0,1-.6,2.07,10.81,10.81,0,0,1-6.78,6.33c-2.24.69-4.69.64-6.85,1.56s-4,2.88-5.6,4.73S42,37,39.7,37.87s-5.31.52-6.64-1.56c-1-1.58-.8-3.64-.51-5.5.62-4,1.48-8.13,3.46-11.59"/><path class="cls-5" d="M37.58,36.69c0-.06.46-.17,1.2-.62a9.46,9.46,0,0,0,2.59-2.52c.46-.62.92-1.34,1.44-2.11a14.89,14.89,0,0,1,1.88-2.33,9.06,9.06,0,0,1,2.8-1.83,26.63,26.63,0,0,1,3.33-1.15A44.15,44.15,0,0,0,57.15,24a11.38,11.38,0,0,0,4.23-3.24A7.61,7.61,0,0,0,63,17.51c.17-.84.15-1.34.21-1.34a3.18,3.18,0,0,1,0,1.38A7.43,7.43,0,0,1,61.75,21a10.58,10.58,0,0,1-1.8,1.9,12.78,12.78,0,0,1-2.54,1.6A39.76,39.76,0,0,1,51,26.75a31.11,31.11,0,0,0-3.26,1.11,9.1,9.1,0,0,0-2.64,1.68,15.6,15.6,0,0,0-1.85,2.21c-.53.74-1,1.46-1.52,2.08A8.94,8.94,0,0,1,38.9,36.3a2.83,2.83,0,0,1-1.32.39"/><path class="cls-5" d="M33.15,31.56s0-.11,0-.33a3.43,3.43,0,0,1,0-.41c0-.18.07-.36.11-.54A9.61,9.61,0,0,1,34.7,27a10.42,10.42,0,0,1,3.91-3.51,10.56,10.56,0,0,1,3-1,22.38,22.38,0,0,1,3.31-.29,31.22,31.22,0,0,0,6.25-.47,9.37,9.37,0,0,0,4.41-2.32,10.45,10.45,0,0,0,2.08-2.7,7.67,7.67,0,0,1,.59-1.14,3.55,3.55,0,0,1-.36,1.25,9.42,9.42,0,0,1-2,2.92,9.62,9.62,0,0,1-2,1.52,10,10,0,0,1-2.63,1.06,29.65,29.65,0,0,1-6.38.53,22.19,22.19,0,0,0-3.22.27,10,10,0,0,0-6.62,4.13,10.75,10.75,0,0,0-1.55,3.05c-.05.18-.1.35-.16.52l-.1.39c-.05.21-.09.32-.12.31"/><path class="cls-5" d="M39.21,20c-.06,0,.39-.79,1.56-1.53a9.57,9.57,0,0,1,2.17-1,20.85,20.85,0,0,1,2.8-.69c1-.19,1.94-.35,2.79-.55a16,16,0,0,0,2.18-.66c1.21-.48,1.85-1,1.92-.92A3.87,3.87,0,0,1,50.9,16a10.77,10.77,0,0,1-2.23.83c-.86.24-1.81.42-2.81.61a27.36,27.36,0,0,0-2.74.62,11.47,11.47,0,0,0-2.12.82c-1.15.59-1.72,1.21-1.79,1.13"/><g class="cls-11"><g class="cls-15"><g class="cls-16"><path class="cls-14" d="M28.52,40.54A7.23,7.23,0,0,1,29,38.9c.41-.9.78-1.78,1.87-1.2a4.84,4.84,0,0,1,1.73,2,7.53,7.53,0,0,1,1,4.06,1,1,0,0,1-.11.42c-.21.31-.68.27-1,.14a1.48,1.48,0,0,0-1.08-.13c-.82.42-.19,1.82.13,2.37a14.22,14.22,0,0,1-1.45-.32,2.47,2.47,0,0,1-1-1.07,8,8,0,0,1-.55-4.62"/></g></g></g><path d="M68,32.71s-3.29-4.79-5.3-3-1.14,2-1.14,2Z"/><path d="M40.51,32.37S47.2,25.24,49.72,28c1.48,1.58.37,2.59.37,2.59Z"/><path class="cls-17" d="M49.06,33.45a4.11,4.11,0,0,1-2.13,1.69,1.76,1.76,0,0,0-1.28-.73c-1.25,0-2.33,1.54-2.4,3.54s.87,3.67,2.12,3.72,2.32-1.54,2.4-3.54a5.34,5.34,0,0,0-.21-1.73,6.65,6.65,0,0,0,1.5-2.95"/><path class="cls-18" d="M42.49,36.71A3.65,3.65,0,0,0,44,38.05a3.6,3.6,0,0,0,2,.23,3.65,3.65,0,0,0-1.49-1.34,3.7,3.7,0,0,0-2-.23"/><path class="cls-17" d="M64.27,36a2.91,2.91,0,0,1-1.46,1.16,1.26,1.26,0,0,0-.87-.43c-.94,0-1.75,1.16-1.8,2.67s.65,2.76,1.6,2.8,1.74-1.16,1.8-2.67A4.18,4.18,0,0,0,63.31,38a5,5,0,0,0,1-2"/><path class="cls-18" d="M64.7,38.41a3.37,3.37,0,0,1-3.23,1.17,3.35,3.35,0,0,1,3.23-1.17"/><path class="cls-19" d="M53.85,46.74a4,4,0,0,0-1.68-.52,5.59,5.59,0,0,0,3,3.09.73.73,0,0,0,.32.09.79.79,0,0,0,.39-.13,6.68,6.68,0,0,0,2-1.65,1.27,1.27,0,0,0,.27-.46c.16-.57-.24-.46-.58-.33a5.43,5.43,0,0,1-3.7-.09"/><path class="cls-20" d="M55.27,49c.36-.3.76-.55,1.13-.84A8.84,8.84,0,0,0,57.66,47c-1.81-1.35-1.72-3.28-1.54-5.48a6.5,6.5,0,0,1,1.87-4,5.88,5.88,0,0,1,.6-.52,2,2,0,0,1,.65-.33c-.12.12-.2.27-.31.4a11.57,11.57,0,0,0-.82,1,7.42,7.42,0,0,0-.65,1.17,7.66,7.66,0,0,0-.65,2.58,6.51,6.51,0,0,0,.32,2.59,5,5,0,0,0,1.77,2.46s-1.33,1.44-1.46,1.55a6,6,0,0,1-1.08.79,2.38,2.38,0,0,1-1.27.45.72.72,0,0,1-.4-.14,1.24,1.24,0,0,0,.23-.17l.08-.08.27-.24"/><path class="cls-20" d="M46.33,56a6.68,6.68,0,0,0,5.4,1.37,2.91,2.91,0,0,1-2.79.79A4.82,4.82,0,0,1,46.33,56"/><path class="cls-21" d="M57,52.53a9,9,0,0,1-3.59,3.16,6.81,6.81,0,0,1-4,.56,6,6,0,0,1-3.57-1.92,9.94,9.94,0,0,1-2.22-4.67c8.49.18,13.2,2.76,13.39,2.87Z"/><path class="cls-21" d="M57,52.53s-.27.4-1.57.61-9.4-1.57-10.27-2a4.69,4.69,0,0,1-1.55-1.47c8.49.18,13.2,2.76,13.39,2.87Z"/><path class="cls-21" d="M53.37,55.69a6.81,6.81,0,0,1-4,.56,6,6,0,0,1-3.57-1.92c1.7-.51,5.48-1.26,7.58,1.36"/><path class="cls-21" d="M49.32,81.4a23,23,0,0,1-13.73-5,29.34,29.34,0,0,0,2.68-2.79,16.13,16.13,0,0,0,9.3,4.29,13.76,13.76,0,0,0,11.81-5c1,.68,2.17,1.3,3.26,1.92A16.61,16.61,0,0,1,49.32,81.4"/><path class="cls-22" d="M56.27,75.85c.35.47.71,1,1.08,1.52s.71,1.06,1,1.55l-.35.22c-.32-.49-.67-1-1-1.53s-.73-1.06-1.08-1.54l.36-.22"/><path class="cls-22" d="M53,77.36c.41.67.85,1.4,1.3,2.17.2.34.39.68.57,1l-.42.14c-.17-.31-.35-.62-.53-.93-.44-.76-.87-1.5-1.33-2.27l.41-.12"/><path class="cls-22" d="M49.36,78c.09.83.19,1.74.27,2.71l.06.73h-.43l-.06-.7c-.08-.9-.15-1.79-.23-2.74h.39"/><path class="cls-22" d="M44.86,79.52q.07-1.09.15-2.16l.41.12c0,.66-.08,1.36-.13,2.07,0,.46-.07.91-.1,1.35l-.43-.1c0-.43.07-.85.1-1.28"/><path class="cls-22" d="M41.25,77.15l.44-1.21.38.2c-.13.38-.27.77-.42,1.16-.27.75-.53,1.46-.78,2.12l-.37-.17q.34-1,.75-2.1"/><path class="cls-23" d="M65.41,23.18a2.3,2.3,0,0,1,.57-.11l-.57.11"/><path class="cls-3" d="M58.59,98.31c-10.18,1.5-23-1.76-34.2-7.13l53.33-1.29c-4.48,4-10.74,7.17-19.13,8.42"/><path class="cls-24" d="M29,101.79A4.82,4.82,0,0,0,35.37,104a4.92,4.92,0,0,0,2.4-6.4h0S35.4,89.24,22.73,66l-5.57,2.64S22.73,91,28.85,101.49C28.89,101.56,29,101.79,29,101.79Z"/><path class="cls-24" d="M30.89,56.46a1.92,1.92,0,0,0-1.87.71s-2.76,3.48-3.28,3.23-.49-2-.49-2A33,33,0,0,0,24.86,54l-.38-8.67a1.07,1.07,0,0,0-1.14-1,1.24,1.24,0,0,0-1,1.28l.18,7.86a.29.29,0,0,1-.28.26c-.15,0-.34,0-.39-.22L21.25,44a1.08,1.08,0,0,0-1.12-1,1,1,0,0,0-1,1.11l.42,9.76c0,.28-.33.48-.44.17l-.92-8.64a1,1,0,0,0-1.07-.94,1,1,0,0,0-.94,1.08l.61,9.63c.05.42-.31.49-.37.21h0l-1.13-6.65a.86.86,0,0,0-.94-.89c-.56,0-.78.58-.75,1.13l.76,7.78c-.21,8.31,2.29,11.29,2.29,11.29,4.52,5.09,7.35-.8,7.35-.8a13,13,0,0,0,3.33-3.6c.59-.93,2.21-3.75,3.36-5.35a10.47,10.47,0,0,1,.86-1C31.79,57,31.52,56.65,30.89,56.46Z"/></g></g></g></svg>