<svg id="Layer_1" data-name="Layer 1" xmlns="http://www.w3.org/2000/svg" viewBox="0 0 67.77 103.84"><defs><style>.cls-1{fill:#4f4a88;}</style></defs><title>C</title><path class="cls-1" d="M46.09,0a2.7,2.7,0,0,1-.35.94A49.68,49.68,0,0,0,36.4,15.11a26.26,26.26,0,0,0-2.08,7.24,13.14,13.14,0,0,0,1.33,7.36c.7,1.49,1.56,2.91,2.39,4.33.29.48.27.74-.2,1.11-1.63,1.29-3.21,2.64-4.82,4-.7.56-1,.51-1.2-.36-.75-3.06-1.59-6.1-2.08-9.2-.63-3.95-.94-7.95-1.4-11.92-.09-.75-.24-1.49-.36-2.23-.06-.35-.28-.8.27-.92s.56.4.66.72c.52,1.72,1,3.45,1.53,5.17a6.35,6.35,0,0,0,.41,1.05,3.48,3.48,0,0,0,.51.58,2.45,2.45,0,0,0,.5-.58c.37-.93.68-1.88,1-2.8.74-1.83,1.38-3.72,2.29-5.46a23.57,23.57,0,0,0,2.33-9.77c0-.47.13-.94.2-1.42L38,2a3.07,3.07,0,0,1,.24.68c.09,1,.12,2,.21,3a5.28,5.28,0,0,0,.28,1,4,4,0,0,0,.93-.52c1.23-1.24,2.42-2.53,3.66-3.78C44.12,1.51,45,.77,45.79,0Z"/><path class="cls-1" d="M31,53.75a3.78,3.78,0,0,1-.34-.73A26.7,26.7,0,0,1,30,45.79a6.16,6.16,0,0,1,.69-2.11c1.43-2.8,3.75-4.78,6.13-6.72,2-1.62,3.93-3.27,5.9-4.89a2,2,0,0,0,.71-1.49A39.26,39.26,0,0,0,43.09,20c-.18-1-.44-1.9-.66-2.85-.06-.28-.09-.57-.13-.85l.18-.12a2.9,2.9,0,0,1,.51.48c.4.57.75,1.18,1.15,1.76s.66.4.92-.06.33-.73.5-1.09a37.59,37.59,0,0,1,5.2-8.15c.12-.15.35-.21.52-.32,0,.22.08.48,0,.66-.92,1.91-1.87,3.81-2.82,5.72a15.06,15.06,0,0,0-1.45,10,5.2,5.2,0,0,0,.57,1.16c.33-.29.77-.51,1-.86,2.3-4.34,4.56-8.69,5.08-13.69a15.93,15.93,0,0,0-1.41-8.92A4,4,0,0,1,52,1.7a4.1,4.1,0,0,1,1.16.52,8.82,8.82,0,0,1,2.54,5.4,29.73,29.73,0,0,1-1.57,14.62,4.23,4.23,0,0,0-.19.57c-.14.67.09.92.75.75,1.09-.27,2.17-.58,3.24-.89a12.78,12.78,0,0,1,4.85-.19c.16,0,.31.19.46.29a2.06,2.06,0,0,1-.56.38c-2.15.71-4.33,1.35-6.48,2.1a10,10,0,0,0-5.45,4.38c-3.43,5.59-8.06,10.07-13.1,14.17a17.47,17.47,0,0,0-6.33,9.35A4.87,4.87,0,0,1,31,53.75Z"/><path class="cls-1" d="M18.2,95.13H14.35v-4h8.46v2.35c0,2.64,0,5.27,0,7.9a1,1,0,0,1-.4.83c-4.09,1.77-8.27,2.32-12.52.63C5.25,101,3.1,96.41,3.56,91.7a10.22,10.22,0,0,1,8.85-9.42,12.26,12.26,0,0,1,9.83,2.16c.14.11.26.23.45.4l-3.16,3.61a6.37,6.37,0,0,0-4.77-1.91,5.92,5.92,0,0,0-5.83,5.64,10.93,10.93,0,0,0,.33,3.18,5.41,5.41,0,0,0,5.19,4A17.25,17.25,0,0,0,17.64,99a.79.79,0,0,0,.53-.56C18.23,97.37,18.2,96.3,18.2,95.13Z"/><path class="cls-1" d="M39.27,82.66h5V95.74a7.88,7.88,0,0,1-7.11,8,10.88,10.88,0,0,1-6-.75,7.06,7.06,0,0,1-4.44-6.45c-.15-4.58,0-9.17,0-13.81h4.95v.77c0,3.93,0,7.87,0,11.81a3.69,3.69,0,0,0,2.92,3.92c2.9.42,4.7-1.12,4.71-4.06,0-3.84,0-7.68,0-11.52Z"/><path class="cls-1" d="M67.21,103.26c-1.76,0-3.48,0-5.21,0-.18,0-.43-.28-.51-.49-.42-1-.8-1.94-1.16-2.93a.73.73,0,0,0-.81-.58q-3.37,0-6.77,0a.72.72,0,0,0-.79.59c-.34,1-.7,2-1.1,3a.82.82,0,0,1-.53.47c-1.67,0-3.35,0-5.13,0,.59-1.41,1.13-2.75,1.69-4.08,2.2-5.25,4.42-10.5,6.6-15.76a1,1,0,0,1,1.19-.8c1.17.07,2.36,0,3.53,0a.84.84,0,0,1,.67.39Q63,93,67.15,102.9A2,2,0,0,1,67.21,103.26Zm-8.53-8.14-2.4-6.61h-.17l-2.44,6.6Z"/><path class="cls-1" d="M25.57,38.44c-1.12-1.84-2-3.57-3.13-5.11A60,60,0,0,0,14.19,24a11.69,11.69,0,0,0-7.7-3.09L.78,20.76c-.25,0-.5-.05-.76-.07l0-.3a8,8,0,0,1,1.07-.18q4.5-.11,9-.17c.88,0,.91-.06.84-.94-.1-1.4-.16-2.8-.22-4.2a.79.79,0,0,1,.28-.57,3,3,0,0,1,.2.49,12.94,12.94,0,0,0,3.67,6.49c2.87,2.91,5.61,5.94,8.4,8.93a1.35,1.35,0,0,1,.19.33l.27-.17c-.5-1.16-.94-2.36-1.52-3.48a20.91,20.91,0,0,0-4.47-5.53c-.21-.18-.25-.54-.36-.82a2.43,2.43,0,0,1,.92.18,19.87,19.87,0,0,1,7.46,10.1,19.4,19.4,0,0,0,4.42,7.06c.65.65,1.2,1.4,1.69,2l-2.45,4.3c-.39-.67-.81-1.41-1.25-2.13a1.56,1.56,0,0,0-1.51-.78,36.31,36.31,0,0,1-11.86-1.46c-1.53-.45-3-1-4.57-1.46-.2-.07-.34-.34-.52-.51a2.06,2.06,0,0,1,.74-.16,28.61,28.61,0,0,0,3.27.44c-1.18-.91-2.4-1.77-3.54-2.74-1.37-1.16-2.69-2.4-4-3.64-.2-.19-.21-.58-.3-.87a2.61,2.61,0,0,1,.83.27A32.5,32.5,0,0,0,17,37a24.72,24.72,0,0,0,6.77,1.58C24.26,38.57,24.78,38.49,25.57,38.44Z"/><path class="cls-1" d="M40.84,42.89c-2.49,7.39-2,14.92-1.18,22.58-.71.08-1.34.19-2,.21q-3.15.07-6.29.09c-.78,0-1.15-.45-1.26-1.21a18.13,18.13,0,0,1,1-8.26A29,29,0,0,1,40.33,43c.07-.06.16-.11.24-.17Z"/><path class="cls-1" d="M31.8,81H28.69V67.45c1.14,0,2.27,0,3.39,0,.21,0,.48.3.62.53,1.52,2.44,3,4.9,4.54,7.35.12.2.26.39.48.71V67.49H40.9V81c-1.19,0-2.34,0-3.48,0-.2,0-.44-.29-.57-.5-1.52-2.44-3-4.9-4.54-7.35-.12-.2-.26-.4-.51-.77Z"/><path class="cls-1" d="M43.69,81V67.44c.45,0,.89,0,1.33,0a47.49,47.49,0,0,1,6.21.34c3.57.63,5.28,3.45,5,7-.23,3.18-2.58,5.81-6.82,6.1C47.54,81.08,45.63,81,43.69,81ZM46.9,70.22v8c1-.07,1.89-.09,2.8-.22a3.56,3.56,0,0,0,3.12-3.78,3.44,3.44,0,0,0-3-3.74C48.84,70.3,47.89,70.29,46.9,70.22Z"/><path class="cls-1" d="M22.72,67.48h3.34v.8c0,2.39,0,4.77,0,7.15.1,4-2.74,6.13-6.4,5.88a5.13,5.13,0,0,1-5.11-4.06,3.83,3.83,0,0,1-.1-.82V67.5h3.29v.83c0,2.48,0,5,0,7.44a2.33,2.33,0,0,0,2.66,2.54,2.17,2.17,0,0,0,2.19-1.88,6,6,0,0,0,.09-1.12C22.72,72.73,22.72,70.15,22.72,67.48Z"/><path class="cls-1" d="M58.37,80.93V67.49h9v2.73H61.63v2.45H67.1v2.69H61.62v2.76h6.15v2.81Z"/><path class="cls-1" d="M12.49,67.5v2.78H7V73H12v2.73H6.93v5.24H3.65V67.5Z"/></svg>