<?xml version="1.0" standalone="no"?>
<!DOCTYPE svg PUBLIC "-//W3C//DTD SVG 20010904//EN"
 "http://www.w3.org/TR/2001/REC-SVG-20010904/DTD/svg10.dtd">
<svg version="1.0" xmlns="http://www.w3.org/2000/svg"
 width="5000.000000pt" height="1417.000000pt" viewBox="0 0 5000.000000 1417.000000"
 preserveAspectRatio="xMidYMid meet">
<metadata>
Created by potrace 1.16, written by Peter Selinger 2001-2019
</metadata>
<g transform="translate(0.000000,1417.000000) scale(0.100000,-0.100000)"
fill="#000000" stroke="none">
<path d="M4840 11860 l0 -1410 -1535 0 -1535 0 0 -4775 0 -4775 3383 0 c2013
0 3473 4 3607 10 261 11 469 31 700 66 2141 327 3962 1767 4788 3784 251 614
396 1257 443 1960 14 218 6 736 -15 950 -80 790 -281 1490 -626 2180 -583
1167 -1513 2113 -2680 2728 -584 307 -1295 536 -1955 631 -401 58 -264 55
-2507 58 l-2068 4 0 -1411z m4140 266 c85 -9 202 -23 260 -32 1792 -263 3306
-1461 3980 -3149 163 -409 269 -836 326 -1315 21 -180 30 -712 15 -907 -96
-1230 -604 -2336 -1471 -3204 -411 -411 -829 -710 -1355 -969 -553 -272 -1086
-425 -1735 -497 -142 -16 -397 -17 -3127 -20 l-2973 -4 0 3624 0 3624 713 7
c391 3 828 9 970 12 l257 7 0 -2797 0 -2797 1718 4 c1219 3 1745 8 1812 16
693 85 1262 320 1785 737 141 113 386 358 499 499 421 528 671 1138 736 1800
15 144 14 511 0 650 -69 663 -310 1261 -715 1770 -495 623 -1185 1048 -1960
1208 -310 65 -252 62 -1557 58 l-1188 -3 0 851 0 852 1428 -4 c1254 -3 1446
-6 1582 -21z m-645 -2812 c483 -66 926 -286 1276 -634 687 -683 861 -1717 434
-2578 -300 -603 -841 -1038 -1486 -1196 -255 -62 -209 -60 -1451 -63 l-1138
-4 0 906 0 905 729 0 729 0 27 -32 c146 -176 424 -280 663 -248 324 43 572
258 658 571 25 89 25 299 0 388 -120 436 -573 680 -996 536 -160 -54 -322
-179 -397 -305 l-17 -30 -698 0 -698 0 0 888 0 889 212 6 c116 4 421 8 677 8
256 1 608 5 781 9 367 9 542 5 695 -16z"/>
<path d="M2795 13140 c-526 -82 -905 -522 -905 -1050 0 -608 504 -1088 1109
-1057 283 15 522 125 719 332 192 202 285 439 285 725 0 286 -92 520 -285 725
-201 213 -442 322 -733 330 -71 2 -157 0 -190 -5z"/>
<path d="M45120 10304 c-201 -35 -375 -66 -387 -69 l-23 -5 0 -3180 0 -3180
395 0 395 0 0 1805 0 1805 28 11 c62 24 278 71 442 96 153 24 203 28 400 27
194 0 239 -3 328 -22 477 -104 674 -396 732 -1087 6 -72 10 -628 10 -1377 l0
-1258 395 0 396 0 -4 1388 c-3 1527 -1 1474 -67 1802 -70 348 -201 612 -405
815 -229 230 -533 367 -930 421 -181 24 -554 25 -720 0 -209 -30 -450 -88
-591 -143 -12 -4 -14 143 -14 1106 0 611 -3 1110 -7 1110 -5 -1 -172 -30 -373
-65z"/>
<path d="M25892 10265 c-189 -43 -362 -162 -461 -315 -81 -125 -121 -326 -102
-502 22 -192 74 -304 200 -428 137 -135 291 -203 487 -217 269 -18 520 92 671
292 99 131 139 279 130 484 -9 223 -59 346 -196 481 -94 93 -187 149 -316 190
-90 29 -316 37 -413 15z"/>
<path d="M33265 9515 c-165 -29 -333 -58 -372 -65 l-73 -12 0 -1996 c0 -1254
4 -2058 10 -2162 18 -286 59 -519 121 -695 139 -395 407 -640 814 -745 185
-48 361 -63 645 -57 334 8 463 31 788 142 179 60 222 79 222 98 0 38 -147 637
-156 637 -6 0 -83 -27 -170 -60 -268 -102 -380 -123 -664 -123 -303 -1 -442
43 -581 182 -86 86 -131 167 -173 313 -61 210 -60 187 -63 1441 l-4 1147 826
0 825 0 0 335 0 335 -825 0 -825 0 0 670 0 670 -22 -1 c-13 -1 -158 -25 -323
-54z"/>
<path d="M17584 8375 c-138 -20 -352 -76 -478 -125 -545 -213 -943 -622 -1175
-1207 -228 -576 -226 -1428 5 -2013 268 -682 854 -1121 1661 -1245 54 -8 187
-20 296 -27 513 -31 1253 72 1653 229 77 30 94 41 93 58 0 11 -37 241 -83 510
-65 389 -85 490 -97 488 -8 -1 -59 -18 -113 -38 -436 -157 -1090 -216 -1483
-135 -451 93 -741 363 -807 753 l-7 37 1414 0 1414 0 11 178 c46 691 -57 1259
-303 1677 -169 287 -439 533 -745 678 -177 85 -326 131 -545 168 -160 28 -560
35 -711 14z m568 -1057 c218 -72 403 -259 473 -479 24 -77 50 -198 58 -276 l5
-43 -820 0 c-776 0 -819 1 -814 18 2 9 10 44 16 77 20 98 69 245 111 326 79
152 188 259 344 334 129 63 197 75 390 71 139 -3 170 -6 237 -28z"/>
<path d="M29510 8374 c-532 -22 -1109 -105 -1562 -226 l-78 -20 0 -2129 0
-2129 625 0 625 0 0 1694 c0 1452 2 1695 14 1699 8 3 90 13 183 22 211 21 516
17 608 -9 238 -66 361 -201 430 -472 54 -215 55 -249 55 -1646 l0 -1288 630 0
630 0 0 1323 c0 806 -4 1375 -10 1457 -44 579 -195 975 -480 1260 -245 245
-588 393 -1032 444 -126 15 -485 26 -638 20z"/>
<path d="M37609 8315 c-425 -67 -756 -227 -1048 -510 -330 -319 -541 -754
-622 -1282 -27 -178 -37 -589 -19 -784 74 -823 415 -1397 1020 -1717 351 -185
742 -262 1274 -249 257 6 414 22 619 63 217 43 555 146 573 175 7 11 -96 640
-107 653 -4 4 -40 -5 -81 -21 -84 -34 -245 -83 -368 -112 -378 -90 -919 -87
-1239 5 -516 150 -805 555 -877 1231 l-7 63 1489 2 1489 3 -1 320 c0 352 -12
483 -65 749 -57 285 -165 559 -302 760 -83 123 -266 305 -386 385 -218 144
-451 228 -744 266 -146 19 -477 19 -598 0z m496 -674 c100 -21 204 -59 280
-104 293 -173 481 -527 502 -949 l6 -118 -1071 0 -1072 0 0 26 c0 97 87 398
155 535 161 327 446 554 770 614 108 20 323 18 430 -4z"/>
<path d="M42345 8315 c-789 -111 -1373 -609 -1630 -1390 -85 -258 -123 -485
-132 -795 -19 -655 138 -1223 449 -1621 304 -390 740 -632 1283 -715 167 -26
614 -26 795 -1 381 54 641 117 755 184 19 11 19 16 -34 340 -30 180 -55 329
-55 330 -1 1 -44 -14 -96 -34 -298 -112 -674 -165 -1004 -143 -246 16 -420 61
-596 151 -377 194 -587 542 -662 1099 -19 142 -16 546 6 695 88 614 362 995
826 1149 168 55 275 70 505 70 292 0 536 -43 773 -136 57 -22 107 -36 111 -32
5 5 45 149 90 319 45 171 84 317 86 325 4 12 -17 24 -82 47 -198 71 -347 108
-578 143 -182 29 -653 37 -810 15z"/>
<path d="M20350 8272 c0 -19 188 -618 297 -947 402 -1215 817 -2252 1292
-3227 l111 -228 525 0 526 0 106 218 c472 972 875 1975 1263 3142 128 384 330
1022 330 1043 0 4 -292 7 -650 7 -357 0 -650 -2 -650 -5 0 -40 -260 -929 -435
-1485 -151 -483 -461 -1390 -475 -1390 -9 0 -128 331 -246 685 -224 674 -509
1608 -629 2060 -14 55 -28 108 -31 118 -5 16 -46 17 -670 17 -365 0 -664 -4
-664 -8z"/>
<path d="M25450 6075 l0 -2205 625 0 625 0 0 2205 0 2205 -625 0 -625 0 0
-2205z"/>
</g>
</svg>
