<svg id="Layer_1" data-name="Layer 1" xmlns="http://www.w3.org/2000/svg" viewBox="0 0 109.65 168.01"><defs><style>.cls-1{fill:#fff;}</style></defs><title>A</title><path class="cls-1" d="M74.58,0A4.37,4.37,0,0,1,74,1.52,80.53,80.53,0,0,0,58.9,24.44a42.54,42.54,0,0,0-3.37,11.73,21.12,21.12,0,0,0,2.15,11.9c1.14,2.41,2.53,4.7,3.88,7,.45.78.43,1.19-.33,1.79-2.64,2.08-5.2,4.28-7.81,6.4-1.12.92-1.6.84-1.94-.58-1.21-4.94-2.57-9.86-3.36-14.88-1-6.39-1.52-12.86-2.27-19.29-.14-1.21-.38-2.4-.58-3.6-.09-.57-.45-1.29.43-1.5s.91.66,1.07,1.18c.85,2.78,1.65,5.58,2.48,8.36a9.15,9.15,0,0,0,.67,1.69,5.17,5.17,0,0,0,.82.94c.27-.31.66-.57.81-.93.6-1.5,1.1-3,1.71-4.54,1.19-3,2.23-6,3.7-8.83,2.6-5,3.43-10.31,3.76-15.8.05-.77.22-1.53.33-2.3l.45,0a4.2,4.2,0,0,1,.39,1.09c.14,1.62.19,3.24.34,4.85a8,8,0,0,0,.45,1.57,6.22,6.22,0,0,0,1.5-.83c2-2,3.92-4.1,5.92-6.11,1.29-1.29,2.66-2.49,4-3.73Z"/><path class="cls-1" d="M50.16,87a5.71,5.71,0,0,1-.56-1.18c-.66-3.87-1.45-7.74-1-11.69a10,10,0,0,1,1.11-3.42C52,66.15,55.74,62.93,59.6,59.8c3.2-2.61,6.36-5.28,9.54-7.92a3.14,3.14,0,0,0,1.14-2.4,62.58,62.58,0,0,0-.57-17.07c-.29-1.55-.71-3.07-1-4.61-.1-.46-.15-.92-.22-1.38l.3-.2a5.46,5.46,0,0,1,.81.78c.65.93,1.22,1.92,1.86,2.85.52.74,1.08.65,1.5-.1.32-.56.54-1.18.8-1.76a60.86,60.86,0,0,1,8.42-13.18,3,3,0,0,1,.85-.52,2.72,2.72,0,0,1,0,1.07c-1.5,3.09-3,6.16-4.57,9.24A24.45,24.45,0,0,0,76,40.75,8.29,8.29,0,0,0,77,42.61c.53-.46,1.24-.81,1.54-1.39,3.72-7,7.37-14.06,8.21-22.15A25.72,25.72,0,0,0,84.44,4.64a6.33,6.33,0,0,1-.3-1.88A6.14,6.14,0,0,1,86,3.6a14.28,14.28,0,0,1,4.12,8.73A48.16,48.16,0,0,1,87.59,36a5.85,5.85,0,0,0-.31.92c-.23,1.08.14,1.49,1.2,1.22,1.77-.45,3.51-1,5.26-1.45a20.69,20.69,0,0,1,7.84-.31c.26,0,.49.3.74.46a3.58,3.58,0,0,1-.9.63c-3.49,1.14-7,2.19-10.49,3.39a16.32,16.32,0,0,0-8.82,7.09c-5.55,9.05-13,16.3-21.2,22.93C56,74.88,52.27,79.72,50.67,86A5.51,5.51,0,0,1,50.16,87Z"/><path class="cls-1" d="M29.45,153.92H23.21v-6.5h13.7v3.81c0,4.26,0,8.52,0,12.78a1.77,1.77,0,0,1-.65,1.34c-6.62,2.86-13.39,3.75-20.27,1-7.47-3-11-10.38-10.2-18a16.56,16.56,0,0,1,14.32-15.25c5.71-.94,11.14-.1,15.91,3.51.22.17.42.37.73.65l-5.12,5.83A10.34,10.34,0,0,0,23.89,140a9.57,9.57,0,0,0-9.44,9.12A17.87,17.87,0,0,0,15,154.3a8.77,8.77,0,0,0,8.39,6.41,30.11,30.11,0,0,0,5.17-.52,1.32,1.32,0,0,0,.87-.91C29.49,157.55,29.45,155.81,29.45,153.92Z"/><path class="cls-1" d="M63.55,133.75h8.11v21.16a12.76,12.76,0,0,1-11.5,12.89,17.59,17.59,0,0,1-9.75-1.21c-4.43-2.05-7-5.6-7.18-10.43-.24-7.41-.07-14.84-.07-22.36h8v1.25c0,6.37,0,12.74,0,19.11,0,3.36,2,6,4.73,6.35,4.7.67,7.61-1.82,7.62-6.58,0-6.21,0-12.42,0-18.62Z"/><path class="cls-1" d="M108.74,167.07c-2.84,0-5.63,0-8.42,0-.29,0-.69-.47-.84-.8-.66-1.56-1.29-3.14-1.87-4.74a1.19,1.19,0,0,0-1.3-.95q-5.48.07-11,0a1.16,1.16,0,0,0-1.29.95q-.82,2.42-1.78,4.77c-.13.33-.55.75-.85.76-2.71.06-5.42,0-8.3,0,.94-2.28,1.83-4.44,2.73-6.59,3.56-8.5,7.15-17,10.68-25.51a1.69,1.69,0,0,1,1.92-1.29c1.9.11,3.82,0,5.72.06a1.42,1.42,0,0,1,1.08.63q6.74,16,13.38,32.13A2.83,2.83,0,0,1,108.74,167.07Zm-13.8-13.16-3.88-10.7-.27,0c-1.31,3.53-2.61,7.06-4,10.68Z"/><path class="cls-1" d="M41.37,62.19c-1.81-3-3.23-5.77-5.06-8.26A97.26,97.26,0,0,0,23,38.83a19,19,0,0,0-12.46-5c-3.08-.1-6.16-.16-9.24-.24-.41,0-.81-.07-1.22-.11L0,33a11.54,11.54,0,0,1,1.73-.28q7.29-.18,14.59-.29c1.43,0,1.48-.09,1.37-1.52-.17-2.26-.26-4.53-.36-6.79a1.21,1.21,0,0,1,.46-.92,4.74,4.74,0,0,1,.32.78,20.86,20.86,0,0,0,5.94,10.51c4.64,4.7,9.07,9.62,13.59,14.44a3.16,3.16,0,0,1,.31.54l.43-.27c-.81-1.88-1.52-3.82-2.47-5.63a33.53,33.53,0,0,0-7.23-9c-.32-.3-.39-.88-.58-1.33a4.12,4.12,0,0,1,1.49.3c6,4,9.64,9.78,12.08,16.34a31.29,31.29,0,0,0,7.15,11.41c1,1.06,1.94,2.27,2.74,3.22l-4,7c-.64-1.09-1.32-2.29-2-3.46a2.47,2.47,0,0,0-2.44-1.25,59.26,59.26,0,0,1-19.19-2.37c-2.48-.73-4.94-1.54-7.39-2.37-.33-.11-.56-.54-.84-.82A3.32,3.32,0,0,1,16.89,61a43.18,43.18,0,0,0,5.29.71c-1.91-1.47-3.89-2.87-5.73-4.43-2.22-1.88-4.34-3.88-6.45-5.89-.32-.31-.33-.93-.49-1.41a4.21,4.21,0,0,1,1.35.45,53,53,0,0,0,16.62,9.41c3.57,1.18,7.14,2.4,11,2.56C39.26,62.41,40.1,62.28,41.37,62.19Z"/><path class="cls-1" d="M66.08,69.4c-4,11.95-3.26,24.13-1.92,36.54-1.14.12-2.16.3-3.18.33-3.39.08-6.79.13-10.18.15-1.26,0-1.86-.73-2-2-.66-4.62.26-9,1.67-13.37A46.94,46.94,0,0,1,65.26,69.58c.11-.1.25-.18.38-.28Z"/><path class="cls-1" d="M51.46,131h-5V109.13c1.85,0,3.67,0,5.48,0,.35,0,.78.48,1,.85,2.46,4,4.89,7.93,7.34,11.9.2.32.43.63.79,1.15V109.21h5.13V131c-1.92,0-3.77,0-5.62,0-.33,0-.71-.46-.92-.8-2.47-3.95-4.9-7.92-7.35-11.89-.2-.33-.42-.65-.82-1.25Z"/><path class="cls-1" d="M70.69,131V109.13c.73,0,1.44,0,2.16,0,3.35.15,6.76,0,10,.56,5.78,1,8.55,5.57,8.13,11.4-.37,5.14-4.17,9.4-11,9.88C76.92,131.18,73.84,131,70.69,131Zm5.19-17.39v12.87c1.57-.11,3.07-.13,4.53-.35,3.15-.46,5-2.81,5-6.12s-1.74-5.54-4.93-6C79,113.74,77.49,113.74,75.88,113.62Z"/><path class="cls-1" d="M36.76,109.19h5.41v1.29c0,3.86-.08,7.71,0,11.56.18,6.51-4.43,9.93-10.35,9.53-4.44-.31-7.31-2.61-8.26-6.58a5.88,5.88,0,0,1-.16-1.32c0-4.79,0-9.57,0-14.45h5.33v1.33c0,4,0,8,0,12,0,2.75,1.6,4.19,4.3,4.1a3.52,3.52,0,0,0,3.55-3,10.09,10.09,0,0,0,.15-1.82C36.76,117.68,36.76,113.5,36.76,109.19Z"/><path class="cls-1" d="M94.44,130.94V109.19h14.62v4.42H99.71v4h8.85v4.34H99.71v4.47h9.94v4.54Z"/><path class="cls-1" d="M20.21,109.22v4.5H11.27v4.33h8.17v4.41H11.21V131H5.91V109.22Z"/></svg>