<svg id="Layer_1" data-name="Layer 1" xmlns="http://www.w3.org/2000/svg" viewBox="0 0 93.61 62.88"><defs><style>.cls-1{fill:#4f4a88;fill-rule:evenodd;}</style></defs><title>A</title><path class="cls-1" d="M2.33,19.47a1.19,1.19,0,0,1,.42,0c.34.06.59.32,1.07.44a16,16,0,0,0,2.95.38c4.57.32,11.85.3,19.73.29,12.34,0,26.12-.43,33.3-.57A19.12,19.12,0,0,0,62,19.93a8.74,8.74,0,0,0,1.48-.46.8.8,0,0,0,.82-.78.79.79,0,0,0-.78-.81,9.57,9.57,0,0,0-1.48-.52,16.45,16.45,0,0,0-2.22-.11c-7.19-.31-21-.85-33.33-.92-7.89,0-15.2-.16-19.76.3A22.05,22.05,0,0,0,1.37,17.7,3.55,3.55,0,0,0,.23,20.08a19.68,19.68,0,0,0-.16,4.59c.29,2.83.57,5.69.72,8.55.1,1.89.13,3.78.08,5.66,0,1.29-.37,3.71.08,5.21a2.7,2.7,0,0,0,2.92,2.18c10.9-.54,21.19-.48,30.29-.79,11.27-.37,20.71-1,27.31-1.46a15,15,0,0,0,1.83-.13,8.87,8.87,0,0,0,1.2-.39.23.23,0,0,0,.23-.23.23.23,0,0,0-.24-.22,9.07,9.07,0,0,0-1.22-.32,15.49,15.49,0,0,0-1.82,0c-6.62-.19-16.07-.89-27.36-.85-9.15,0-19.47.73-30.4,1.54-.17,0-.09-.21-.12-.38a7.17,7.17,0,0,1-.14-1.35c0-1,.07-2.06.06-2.75,0-1.94-.16-3.89-.34-5.84-.26-2.89-.64-5.78-1-8.63A15.84,15.84,0,0,1,2,22.11a12.57,12.57,0,0,1,.24-2.38l.07-.26"/><path class="cls-1" d="M57.72,4.2c1.2.93,2.39,2.08,3.07,2.59L75.35,17.35l12.58,8.88c.5.37,1.35.9,2.07,1.53a2.86,2.86,0,0,1,.89,1c-1-.36-2.57,2.19-3.07,2.64L77.36,41.13c-2.78,2.58-5.57,5.23-8.27,8-1.81,1.84-3.58,3.7-5.28,5.6a33.29,33.29,0,0,1-3.38,3.45l0,0-.11-1.35c-.4-2.76-.67-5.81-1-8.79-.12-1.28-.31-2.51-.38-3.74,0-.43.19-.93-.08-1.26l-.13-.17,0,0a1.5,1.5,0,0,1-.79-.07c-.08,0,0-.23-.21-.25s-.17.19-.25.21a2.84,2.84,0,0,1-.82-.06h-.07l-.09.07c-.1.08,0,.23-.07.35a29.88,29.88,0,0,0-.6,4,67.25,67.25,0,0,0,.42,10.21l.4,2.57s.07.85.12,1.17a2.13,2.13,0,0,0,2,1.83A6.11,6.11,0,0,0,62,61.46a30.48,30.48,0,0,0,4.2-4.66c2-2.37,4.16-4.69,6.36-6.95s4.47-4.51,6.72-6.68l10.34-9.82a31.31,31.31,0,0,0,3.19-2.63A2.79,2.79,0,0,0,93.61,29a3.79,3.79,0,0,0-.93-2.29,16.63,16.63,0,0,0-3.15-2.62L77,15,62.66,4.33C61.87,3.72,60.37,2.2,59,1.21A6.24,6.24,0,0,0,56.46,0a1.83,1.83,0,0,0-2,1.43,22.09,22.09,0,0,0-.38,4.37l1.14,11.66a1.73,1.73,0,0,0,3.44-.3L57.37,5.71c0-.12.21-.79.35-1.51"/><path class="cls-1" d="M3.51,23.76A3.35,3.35,0,0,0,1,25.69a5,5,0,0,0-.06,4,14.08,14.08,0,0,0,2.47,3.82,7.18,7.18,0,0,0,1.51,1.38l2.86,3-.08,0-1.53-1c-.27-.18-.75-.67-1-.82a2,2,0,0,0-1.25-.23,1.69,1.69,0,0,0-1.58,1.93,3.21,3.21,0,0,0,.37,1.38A1.8,1.8,0,0,0,3,41.51c.4.32,1.38,1.06,1.61,1.22.71.53,1.5,1.14,2.32,1.64a8.25,8.25,0,0,0,2.1.91,1.65,1.65,0,0,0,2.14-1.09A1.35,1.35,0,0,0,11.2,44c.32.2.6.36.83.48l.15.06.12.07a3.1,3.1,0,0,0,.77.17,23.13,23.13,0,0,0,4,.42c.77,0,1.59,0,2.46-.07,4.61.12,10.26.13,13.35.11H33l.33,0c.63.05,1.09.06,1.29.06a1.78,1.78,0,0,0,1.63-.92,2.34,2.34,0,0,0,.24-.7l.08-.08a1.11,1.11,0,0,0-.06-.34,1.39,1.39,0,0,0-.37-.87c2.15.44,3.86.79,4.81,1a1.45,1.45,0,0,0,1.81-1.6l4,1A1.59,1.59,0,0,0,48.71,42c1.81.47,3.29.88,4.29,1.21a1.31,1.31,0,0,0,1.88-.79c.53.38,1.08.76,1.62,1.07a6.29,6.29,0,0,0,.68.35c.16.58.81,1.42,1,2,.42,1.06,1,2.1,1.48,3.15a5,5,0,0,0-.29,1.87,11.64,11.64,0,0,0,.26,2,1.79,1.79,0,0,0-.29,0,1.4,1.4,0,0,0-.8,2.31c.09.11.47.47.63.62a9.33,9.33,0,0,0,1.13,1,2.91,2.91,0,0,0,.95.44,1.71,1.71,0,0,0,.77,0,1.28,1.28,0,0,0,1,.73,1.26,1.26,0,0,0,1.34-.56L70.9,48.9l1.51-1.77a20.47,20.47,0,0,0,3.08-2.36c1.5-1.37,2.89-2.92,4.33-4.28l1.85-1.75c.84-.67,1.68-1.35,2.49-2a.91.91,0,0,0,.17-.16,1.4,1.4,0,0,0,.41-.91,1.55,1.55,0,0,0-.22-1l.19-.12.2-.13,2.66-2.13A13.26,13.26,0,0,0,90,28.93a1.69,1.69,0,0,0-.1-1.75A7,7,0,0,0,88,25.64l-7.23-5L80,20.18l-3.15-2.29C73,15.06,69,12.34,65.14,9.56a92,92,0,0,1-7.54-5.8.24.24,0,0,0-.33,0,.22.22,0,0,0,0,.32c.44.49.89,1,1.34,1.44a1.47,1.47,0,0,0-1.89.65,2.38,2.38,0,0,0-.16.32c-.68-.38-1-.1-.26,1.48a13,13,0,0,0,1.61,2.47l.09.2a30,30,0,0,1,1,3.08,2.6,2.6,0,0,0-.67-.2,2,2,0,0,0-1.72.55,1.88,1.88,0,0,0-.58,1.69,2.42,2.42,0,0,0,.45,1.06l.1.12a1.25,1.25,0,0,0-.2.4,1.61,1.61,0,0,0-.35.1,1.75,1.75,0,0,0-1.29,1.72l-.13,0-10.28-.94-22.75.35c-.32,0-1-.33-1.26-.38a2,2,0,0,0-1.07.12,1.5,1.5,0,0,0-1.07,1.61,1.59,1.59,0,0,0-1.17.27c-2.25-.28-4.54-.43-6.77-.7l-2.84-.42c-.25,0-.87-.13-1.24-.17l-.92-.16a1.91,1.91,0,0,0-1.48.64,2.47,2.47,0,0,0-.49,1.08,1.53,1.53,0,0,0-.43.25,1.69,1.69,0,0,0,.35,2.93ZM86,27.92l.19.15.1-.05h0l-.37-.25-.1.06Zm-6,6.17a4.11,4.11,0,0,1,.37.38l.17-.14a12.25,12.25,0,0,0,1.58-1.56l-.3-.17-.35-.21a1.4,1.4,0,0,1-1,1.59,1.07,1.07,0,0,1-.51.11M83,29.33v0l.09.05h.21L83,29.26ZM77.36,36.5l0,0h0ZM74.2,39.15,75,40.21l.46-.38-1.16-.62Zm-3.58,3.4.73.9.55-.52.4-.36-.1-.07a36.72,36.72,0,0,1-3.62-3l-1-.88Zm-2.23,2.93a1.47,1.47,0,0,1,0,.25l-.05.17.16.37,0,.09.19-.23.25-.26-.57-.39M64.83,46c.22.73.41,1.45.61,2.11.1.33.34.94.54,1.59l.06-.08a2.75,2.75,0,0,0-.13-1.69c-.22-.55-.47-1.09-.74-1.61l-.1-.09Zm1.53-30.12,2,1.52.28.19,1.25.84-1.4-1.13c-.57-.49-1.11-1-1.64-1.54L66,15.12,63.26,13ZM46.5,38.15l.23.19.94.26L46,37.16a8,8,0,0,0-1.56-1l-.43,0Zm-21-16.31c.32.12.65.24,1,.35,1.13.37,2.4.6,3.72.93,3.1.34,6.34.69,8.9,1.08,2.94.44,5.07,1.1,5.58,1.56L46.25,27l1.08.3c-.24-.28-.46-.57-.68-.86A26.49,26.49,0,0,1,43.85,22ZM38.29,35.69l-1.72-.13,2.65.74-.16-.14a4,4,0,0,0-.77-.47M23,39.65a5.91,5.91,0,0,1,.49.63l1.84.2,2.25.27,1.48.19c-2-.41-4-.84-6.06-1.29M4.29,27.52s-.08.06-.08.15,0,0,0,0a1.56,1.56,0,0,0,.07,1,5,5,0,0,0,.6.57L9.41,32.8c1.25,1,4.79,2,9.06,3,3.13.76,6.64,1.5,10,2.16-2.91-.82-5.83-1.7-8.52-2.58s-5.15-1.79-7.13-2.65C10,32,7.87,31.07,7.08,30.21l-.78-.9a7.79,7.79,0,0,1-1-.91,5.11,5.11,0,0,1-.65-.83.57.57,0,0,0-.31-.06l0,.12,0,.05a.44.44,0,0,1,.06-.16h0v0ZM12,37.92,13.15,39c.07-.09.28.28.32.31L13.15,39a.08.08,0,0,0,0,.05c-.13.61,1.89.26,3.53.44h0c-1.45-.6-3.06-1.1-4.66-1.61"/><path class="cls-1" d="M27,22.46c0,.07.2.09.39.11a33.63,33.63,0,0,0,6.46,1.06l1.2.06C38,24,41,24.46,44,24.6c1.36.07,2.78.41,4.06,0,.22-.07.27-.18.46-.32a.22.22,0,0,0,.23-.22.18.18,0,0,0,0-.1c.33,0,.66,0,1,0a.63.63,0,1,0,.24-1.23,31.9,31.9,0,0,0-4.53-1c-3-.43-6.07-.49-9.1-.67a52,52,0,0,1-7.18-.79l-.65-.16c-.24-.06-.83-.21-1-.24a1.18,1.18,0,0,0-.72.06c-.13,0-1.61,2,.17,2.49Z"/><path class="cls-1" d="M3.11,19.3a15.84,15.84,0,0,0-.19,6l0-3.84a4.38,4.38,0,0,0-.33,2.6,40.15,40.15,0,0,1,7.7,8A20.54,20.54,0,0,0,4.13,28a32.31,32.31,0,0,0,24,8.25,118.62,118.62,0,0,1-12.85-2A3.86,3.86,0,0,1,12.78,33l18.35,5.89a18.55,18.55,0,0,0-7.78-.2,37.15,37.15,0,0,0,7.56,2.33l-7.54-.24,5.42.62Q23.71,40,18.52,38.93l5.26.4A82.3,82.3,0,0,0,7.57,38.17l8,1.48a2.87,2.87,0,0,0-2.15-1l1.83,1.08c-4.72.53-9-2.91-11.66-6.87l.4,4L3.3,32.51,4.17,41a6.29,6.29,0,0,1-.11,2.63,6.51,6.51,0,0,1-.56-5.28,11.56,11.56,0,0,0,.11,4c1.86-2,1.66-5.12,1.11-7.8S3.39,29,4.44,26.46l3.12,5.26A4.64,4.64,0,0,0,9.49,33.8a4.62,4.62,0,0,0,2.31.13,161.51,161.51,0,0,0,21.35-4.11c3.86-1,7.82-2.26,10.77-4.95a61.27,61.27,0,0,0-6.33-1.32A58.63,58.63,0,0,0,46.72,25c.2-.26-.48-.39-.51-.06s.31.55.61.69l2.14,1-3.38-.83A27.44,27.44,0,0,0,53.19,27a9.27,9.27,0,0,0,6.85-3,9.25,9.25,0,0,0,1.6-7.19,27.83,27.83,0,0,0-2.48-7.13,6.93,6.93,0,0,0-1.44,5.68,41,41,0,0,0-.16-5.54,27.57,27.57,0,0,0,1,4.84l-.25-2.85,9.61,5.22-7.66-4.62c4,1.89,8,3.82,11.27,6.75l-3.91-2.79,3.44,3.58-4.9-3.64,5,15.24c1.24,3.83,2.39,8.35,0,11.6A34.16,34.16,0,0,1,66,37.83l3.92,3.11a16.31,16.31,0,0,0-2.64-2.48l4.28,2.88"/><path class="cls-1" d="M38.14,36.63l6.17-.35a19.71,19.71,0,0,0-5.79,0,1.16,1.16,0,0,1-.76,0c-.23-.12-.32-.5-.1-.64a52.31,52.31,0,0,1,10.36,1c-4.16-.08-8.3-.53-12.43-1q7.83,2.11,15.84,3.56a7.27,7.27,0,0,0-4.11-1.54,3.66,3.66,0,0,0,1.44.74,1.25,1.25,0,0,0,1.39-.61,1.79,1.79,0,0,0-.17-1.4,53.64,53.64,0,0,0-6-9.83l4.37.25a4.15,4.15,0,0,0-2.15-.6l2.45.5"/><path class="cls-1" d="M56.78,3.27A5.79,5.79,0,0,0,59,5.77a4.24,4.24,0,0,1-.88-.7,6.16,6.16,0,0,0,1.77,2.25"/><path class="cls-1" d="M90.81,28.85A20,20,0,0,0,84.24,28a11.49,11.49,0,0,1,3.55,1c-1.39,1.47-3.41,2.11-5.25,2.93s-3.74,2-4.29,4l4.66-3.34c-6.8,4.15-10.74,11.76-17,16.75l4.23-6.84-6.44,7.44a22.87,22.87,0,0,1,.67-6.59,25.3,25.3,0,0,1-1,5.25,6,6,0,0,0,1.42-2.44,33.93,33.93,0,0,1-4.43,4,2.26,2.26,0,0,1-.92.48,1.35,1.35,0,0,1-1.46-1.38,1.83,1.83,0,0,1,1.4-1.62c-.64,2.58-1.25,5.44,0,7.78.51,1,1.35,2,1,3A5,5,0,0,0,61,55.8l-.79,1c.47.18.9-.32,1.16-.75Q66.8,47,71.76,37.64a5.11,5.11,0,0,0,.8-2.39c0-1.5-1.25-2.64-2.3-3.71-5-5.12-7.25-12.29-9.3-19.17q1.47,6.57,2.89,13.16a2.75,2.75,0,0,1,0,1.77c-.37.8-1.37,1-2.24,1.17-15.74,2.4-31.95-.51-47.69,2l18.3-4.35c.36-.09.81-.27.83-.64a.84.84,0,0,0-.37-.62,6.91,6.91,0,0,0-2.51-1.4c-.32-.09-.69-.21-.81-.52s.35-.69.52-.41l-6.72-.09a16.44,16.44,0,0,1,5.71-.65,8.13,8.13,0,0,1-3.5.29,26.13,26.13,0,0,1,9.16.43A70.77,70.77,0,0,1,21.74,31c0,1.34,1.59,2,2.88,2.32L40,37.21l-13,3.1a207.49,207.49,0,0,0,41.62-5"/><path class="cls-1" d="M70.89,40.8a.75.75,0,0,0-.37.83A35.44,35.44,0,0,0,74.09,38"/></svg>