<svg id="Grupo_74" data-name="Grupo 74" xmlns="http://www.w3.org/2000/svg" width="884.779" height="1352.348" viewBox="0 0 884.779 1352.348">
  <path id="Trazado_69" data-name="Trazado 69" d="M302.651,132.769a11.457,11.457,0,0,0-2.023-3.429,13.271,13.271,0,0,0-14.917-3.429,16.906,16.906,0,0,0-6.035,3.772,14.846,14.846,0,0,0-2.366,2.5,8.471,8.471,0,0,0-1.646,5.281l-21.741,1.646-3.155.24a57.988,57.988,0,0,0-7.338-18.141l11.694-9.773,7.064-5.933a15.5,15.5,0,0,0,5.452,2.778,10.7,10.7,0,0,0,6.858-.617,12.726,12.726,0,0,0,1.92-.994,21.605,21.605,0,0,0,5.418-3.772,11.282,11.282,0,0,0,3.429-7.3,12.723,12.723,0,0,0-5.658-11.316,11.49,11.49,0,0,0-3.429-2.092,13.34,13.34,0,0,0-14.54,4.252,17.148,17.148,0,0,0-3.6,6.1,14.369,14.369,0,0,0-.926,3.429,8.333,8.333,0,0,0,.96,5.418L239.519,112.88l-1.749,1.063A58.022,58.022,0,0,0,222.2,101.255c1.886-4.492,3.738-9.019,5.624-13.511l3.429-8.539a15.26,15.26,0,0,0,6.1,0,10.631,10.631,0,0,0,5.864-3.772,10.288,10.288,0,0,0,1.234-1.749,21.843,21.843,0,0,0,3.086-5.864,11.179,11.179,0,0,0-.24-8.093,12.62,12.62,0,0,0-10.185-7.579,11.967,11.967,0,0,0-3.978-.343,13.306,13.306,0,0,0-11.282,10.288,17.627,17.627,0,0,0-.377,7.1,13.992,13.992,0,0,0,.72,3.429,8.367,8.367,0,0,0,3.429,4.389L214.417,95.734l-.823,1.44a57.851,57.851,0,0,0-19.855-3.429l-1.2-15.02L191.75,69.5a14.85,14.85,0,0,0,5.418-2.812,10.836,10.836,0,0,0,3.429-6.035,15.508,15.508,0,0,0,.274-2.16,22.294,22.294,0,0,0,0-6.584,11.145,11.145,0,0,0-3.944-7.1,12.722,12.722,0,0,0-12.517-1.886,11.83,11.83,0,0,0-3.635,1.577A13.236,13.236,0,0,0,175.6,59.007a17.146,17.146,0,0,0,2.915,6.481,14.948,14.948,0,0,0,2.195,2.675,8.367,8.367,0,0,0,5.007,2.332c-.446,7.27-.857,14.506-1.3,21.776v2.16a58.3,58.3,0,0,0-21.844,8.162l-9.328-13-5.384-7.51a15.5,15.5,0,0,0,3.189-5.212,10.768,10.768,0,0,0,0-6.858,14.5,14.5,0,0,0-.857-1.989,22.048,22.048,0,0,0-3.429-5.692,11.042,11.042,0,0,0-6.858-4.047,12.688,12.688,0,0,0-11.694,4.8,11.179,11.179,0,0,0-2.366,3.189,13.305,13.305,0,0,0,2.846,15.02,16.22,16.22,0,0,0,5.555,3.772,13.717,13.717,0,0,0,3.429,1.2,8.3,8.3,0,0,0,5.487-.583l10.048,19.375c.549,1.063,1.1,2.126,1.68,3.189a58.5,58.5,0,0,0-11.9,14.54l-15.706-7.956-8.23-4.184a15.877,15.877,0,0,0,.446-6.07,10.871,10.871,0,0,0-3.429-6.173,13.061,13.061,0,0,0-1.68-1.337,20.574,20.574,0,0,0-5.59-3.429,11.008,11.008,0,0,0-8.2-.343,12.62,12.62,0,0,0-8.161,9.636,11.041,11.041,0,0,0-.617,3.944,13.237,13.237,0,0,0,9.43,12,16.9,16.9,0,0,0,7.064.926,16.494,16.494,0,0,0,3.429-.446,8.3,8.3,0,0,0,4.6-3.052l17.9,12.448,4.321,3.052a58.536,58.536,0,0,0-3.429,17.42h-28.5a15.192,15.192,0,0,0-2.435-5.59,10.6,10.6,0,0,0-5.761-3.944,14.617,14.617,0,0,0-2.126-.446,21.16,21.16,0,0,0-6.653-.274,11.076,11.076,0,0,0-7.373,3.429,12.619,12.619,0,0,0-2.915,12.277,11.969,11.969,0,0,0,1.269,3.772A13.305,13.305,0,0,0,94.566,164.8a17.521,17.521,0,0,0,6.653-2.435,15.117,15.117,0,0,0,2.846-1.989,8.436,8.436,0,0,0,2.709-4.8l21.638,2.915,6.858.926a59.5,59.5,0,0,0,4.492,16.186l-.686.377L121.52,185.3l-8.2,4.321a15.877,15.877,0,0,0-4.7-3.738,11.042,11.042,0,0,0-6.858-.823,15.443,15.443,0,0,0-2.058.583,21.743,21.743,0,0,0-6.07,2.572,11.042,11.042,0,0,0-4.972,6.413,12.654,12.654,0,0,0,3.189,12.242,12,12,0,0,0,2.846,2.743,13.271,13.271,0,0,0,15.26-.789,16.8,16.8,0,0,0,4.8-5.247,15.293,15.293,0,0,0,1.612-3.052,8.264,8.264,0,0,0,0-5.521l20.575-7.373,7.784-2.778a58.536,58.536,0,0,0,10.7,12.037c-.309.446-.652.892-.96,1.372l-11.316,16.357-5.247,7.613A15.26,15.26,0,0,0,131.944,221a10.837,10.837,0,0,0-6.55,2.435,16.037,16.037,0,0,0-1.577,1.475,23.733,23.733,0,0,0-4.218,5.075,11.077,11.077,0,0,0-1.44,7.99,12.722,12.722,0,0,0,8.47,9.4,11.937,11.937,0,0,0,3.806,1.132,13.305,13.305,0,0,0,13.2-7.75,16.735,16.735,0,0,0,1.852-6.858,14.643,14.643,0,0,0,0-3.429,8.573,8.573,0,0,0-2.366-4.972l14.814-16.014,6.07-6.516a58.947,58.947,0,0,0,14.609,6.07l-.206,1.817q-1.269,9.876-2.5,19.752l-1.166,9.156a15.429,15.429,0,0,0-5.864,1.646,10.939,10.939,0,0,0-4.7,5.178,13.173,13.173,0,0,0-.686,2.057,20.128,20.128,0,0,0-1.406,6.447,11.11,11.11,0,0,0,2.366,7.75,12.654,12.654,0,0,0,11.831,4.424,11.657,11.657,0,0,0,3.909-.754,13.271,13.271,0,0,0,8.127-12.928,16.8,16.8,0,0,0-1.509-6.858,14.54,14.54,0,0,0-1.577-3.086,8.539,8.539,0,0,0-4.424-3.429q2.949-10.493,5.8-21.055c.789-2.778,1.543-5.59,2.332-8.4,1.509,0,3.052.171,4.6.171a57.059,57.059,0,0,0,11.419-1.132l.446,1.166c2.3,6.207,4.561,12.448,6.858,18.689,1.063,2.881,2.126,5.761,3.223,8.676a15.327,15.327,0,0,0-4.492,4.149,11.625,11.625,0,0,0-1.44,8.882,22.22,22.22,0,0,0,1.715,6.378,11.042,11.042,0,0,0,5.692,5.8,15.466,15.466,0,0,0,15.672-3.978,13.339,13.339,0,0,0,1.269-15.226,17.522,17.522,0,0,0-4.561-5.487,16.043,16.043,0,0,0-2.812-1.989,8.573,8.573,0,0,0-5.452-.926l-4.527-21.467-1.646-7.682a58.845,58.845,0,0,0,14.506-8.264l14.574,13.408,6.858,6.241a15.226,15.226,0,0,0-2.023,5.761,10.768,10.768,0,0,0,1.543,6.859,12.622,12.622,0,0,0,1.269,1.749,20.847,20.847,0,0,0,4.458,4.87,11.008,11.008,0,0,0,7.681,2.5,12.722,12.722,0,0,0,10.288-7.133,11.8,11.8,0,0,0,1.646-3.6,13.305,13.305,0,0,0-5.9-14.094,17.387,17.387,0,0,0-6.55-2.778,16.866,16.866,0,0,0-3.429-.48,8.607,8.607,0,0,0-5.247,1.715l-13.717-16.872-4.081-4.972a57.682,57.682,0,0,0,9.773-14.677l17.626,4.7,8.95,2.4a15.533,15.533,0,0,0,.823,6.035,10.939,10.939,0,0,0,4.527,5.35,16.712,16.712,0,0,0,1.92.96,21.432,21.432,0,0,0,6.207,2.263,11.248,11.248,0,0,0,7.99-1.3,12.654,12.654,0,0,0,5.967-11.145,11.073,11.073,0,0,0-.206-3.978,13.305,13.305,0,0,0-11.728-9.808,17.627,17.627,0,0,0-7.064.583,13.167,13.167,0,0,0-3.429,1.166,8.47,8.47,0,0,0-3.909,3.909l-20.061-8.573-4.355-1.852a59.119,59.119,0,0,0,2.092-15.5v-3.052l16.186-3.429,9.019-1.989a15.637,15.637,0,0,0,3.429,4.972,10.906,10.906,0,0,0,6.447,2.641,15.175,15.175,0,0,0,2.16,0,23.045,23.045,0,0,0,6.55-.857,11.008,11.008,0,0,0,6.481-4.835,12.654,12.654,0,0,0,.48-12.894Z" transform="translate(191.274 -42.057)" fill="#4f4a88"/>
  <path id="Trazado_72" data-name="Trazado 72" d="M384.241,476.843a18.622,18.622,0,0,0-3.429-5.521,21.5,21.5,0,0,0-24-5.349,27.943,27.943,0,0,0-9.739,6.1,22.59,22.59,0,0,0-3.806,4.081,13.717,13.717,0,0,0-2.641,8.5L305.4,487.337l-5.041.377a94.368,94.368,0,0,0-11.9-29.32l18.895-15.809,11.454-9.6a24.928,24.928,0,0,0,8.779,4.526,17.625,17.625,0,0,0,11.248-.994,26.679,26.679,0,0,0,3.086-1.646,34.291,34.291,0,0,0,8.745-6.1A17.9,17.9,0,0,0,356.4,417a20.575,20.575,0,0,0-9.156-18.312,19.133,19.133,0,0,0-5.452-3.429,21.467,21.467,0,0,0-24,6.378,27.777,27.777,0,0,0-5.83,9.911,22.421,22.421,0,0,0-1.509,5.384,13.716,13.716,0,0,0,1.543,8.779l-30.006,18.552L279.2,445.98A94.677,94.677,0,0,0,254,425.405l9.122-21.81c1.886-4.595,3.806-9.19,5.727-13.717a24.545,24.545,0,0,0,9.876,0,17.727,17.727,0,0,0,9.533-6.07,33.067,33.067,0,0,0,1.989-2.88,35.976,35.976,0,0,0,4.938-9.43,18,18,0,0,0-.343-13.1,20.575,20.575,0,0,0-16.357-11.865,19.267,19.267,0,0,0-6.413-.481,21.535,21.535,0,0,0-18.243,16.666,27.949,27.949,0,0,0-.617,11.454,22.735,22.735,0,0,0,1.166,5.452,13.717,13.717,0,0,0,5.418,7.1L241.723,417l-1.372,2.3a93.926,93.926,0,0,0-32.1-5.727c-.686-7.956-1.337-15.946-2.023-24L205,374.652a25.063,25.063,0,0,0,8.744-4.561,17.421,17.421,0,0,0,5.624-9.842,23.311,23.311,0,0,0,.446-3.429,35.867,35.867,0,0,0,0-10.665,17.935,17.935,0,0,0-6.344-11.454,20.576,20.576,0,0,0-20.232-3.052,19.131,19.131,0,0,0-5.9,2.5,21.5,21.5,0,0,0-8.539,23.216,28.292,28.292,0,0,0,4.732,10.459,24.011,24.011,0,0,0,3.429,4.321,13.715,13.715,0,0,0,8.093,3.772c-.686,11.728-1.406,23.49-2.092,35.218l-.206,3.429a94,94,0,0,0-35.321,13.237l-15.089-21.021-8.71-12.139a24.761,24.761,0,0,0,5.144-8.436,17.42,17.42,0,0,0,0-11.282,21.975,21.975,0,0,0-1.406-3.189,35.388,35.388,0,0,0-5.452-9.19A17.728,17.728,0,0,0,120.6,356a20.369,20.369,0,0,0-18.895,7.681,18.044,18.044,0,0,0-3.806,5.178,21.467,21.467,0,0,0,4.6,24.279,27.432,27.432,0,0,0,9.4,6.55,22.662,22.662,0,0,0,5.281,1.92,13.719,13.719,0,0,0,8.847-.926l16.289,31.583,2.675,5.178a96.028,96.028,0,0,0-19.238,23.525L100.4,448.072l-13.34-6.859a24.621,24.621,0,0,0,.72-9.842,17.386,17.386,0,0,0-5.35-9.945,21.046,21.046,0,0,0-2.709-2.2,35.74,35.74,0,0,0-9.053-5.658,17.936,17.936,0,0,0-13.065-.617,20.575,20.575,0,0,0-13.237,15.6,19.2,19.2,0,0,0-.96,6.378,21.364,21.364,0,0,0,15.26,19.409,27.059,27.059,0,0,0,11.385,1.475,21.4,21.4,0,0,0,5.521-.72,13.716,13.716,0,0,0,7.441-4.938l28.874,20.3,6.858,4.9a94.75,94.75,0,0,0-5.727,28.154l-31.172.274H66.9a24.657,24.657,0,0,0-3.909-9.053,17.453,17.453,0,0,0-9.293-6.378,23.31,23.31,0,0,0-3.429-.686,36.084,36.084,0,0,0-10.631-.857,17.97,17.97,0,0,0-11.9,5.487,20.575,20.575,0,0,0-4.561,19.924,20.055,20.055,0,0,0,2.058,6.1,21.535,21.535,0,0,0,22.5,10.288,27.436,27.436,0,0,0,10.939-3.772,23.618,23.618,0,0,0,4.561-3.189,13.717,13.717,0,0,0,4.389-7.784l34.944,4.7,11.179,1.509a95.537,95.537,0,0,0,7.167,26.2l-1.1.583L91.386,561.956l-13.2,6.859a25.613,25.613,0,0,0-7.647-6.241,17.555,17.555,0,0,0-11.213-1.337,19.675,19.675,0,0,0-3.429.96,35.048,35.048,0,0,0-9.808,4.149,17.935,17.935,0,0,0-8.059,10.288,20.576,20.576,0,0,0,5.178,19.787,18.446,18.446,0,0,0,4.629,4.458,21.433,21.433,0,0,0,24.656-1.269,27.438,27.438,0,0,0,7.75-8.47,23.487,23.487,0,0,0,2.606-4.938,13.718,13.718,0,0,0,.274-8.916l33.229-11.933,12.551-4.527A95.677,95.677,0,0,0,146.219,580.3l-1.543,2.194L126.4,609.005c-2.846,4.081-5.658,8.2-8.5,12.311a25.1,25.1,0,0,0-9.67-2.058,17.764,17.764,0,0,0-10.562,3.978,24.027,24.027,0,0,0-2.538,2.4,35.3,35.3,0,0,0-6.858,8.2A18.107,18.107,0,0,0,85.9,646.726a20.575,20.575,0,0,0,13.717,15.191,18.785,18.785,0,0,0,6.173,1.817,21.466,21.466,0,0,0,21.33-12.516,28.293,28.293,0,0,0,2.983-11.076,23.453,23.453,0,0,0,0-5.59,13.511,13.511,0,0,0-3.841-8.059l24-25.856,9.773-10.527a94.576,94.576,0,0,0,23.662,9.773l-.377,2.915-4.012,31.96c-.652,4.938-1.269,9.876-1.886,14.814a25.442,25.442,0,0,0-9.5,2.64,17.524,17.524,0,0,0-7.579,8.4,26.59,26.59,0,0,0-1.132,3.429,34.634,34.634,0,0,0-2.263,10.287,17.868,17.868,0,0,0,3.806,12.517,20.575,20.575,0,0,0,19.169,7.2,18.763,18.763,0,0,0,6.31-1.235A21.467,21.467,0,0,0,199.372,671.9a27.432,27.432,0,0,0-2.435-11.213,22.788,22.788,0,0,0-2.572-4.973,13.715,13.715,0,0,0-7.1-5.384l9.362-34.018c1.235-4.527,2.5-9.053,3.738-13.717,2.435.206,4.938.274,7.441.274a96.757,96.757,0,0,0,18.472-1.781l.7,1.849,11.111,30.211c1.715,4.664,3.429,9.327,5.178,14.026a25.136,25.136,0,0,0-7.236,6.858,17.867,17.867,0,0,0-2.846,10.939,19.718,19.718,0,0,0,.514,3.429,35.08,35.08,0,0,0,2.778,10.288,18.14,18.14,0,0,0,9.19,9.362,20.575,20.575,0,0,0,20.3-2.469,19.573,19.573,0,0,0,5.041-3.978,21.5,21.5,0,0,0,2.023-24.622,27.915,27.915,0,0,0-7.3-8.676,24.921,24.921,0,0,0-4.389-3.429,13.716,13.716,0,0,0-8.813-1.474q-3.635-17.146-7.339-34.532c-.892-4.115-1.783-8.264-2.64-12.414a93.727,93.727,0,0,0,23.284-13.306l23.8,21.673L300.671,614.9a25.035,25.035,0,0,0-3.429,9.293,17.524,17.524,0,0,0,2.538,11.008,20.557,20.557,0,0,0,2.023,2.846A35.752,35.752,0,0,0,309,645.9a17.9,17.9,0,0,0,12.448,4.081,20.575,20.575,0,0,0,16.906-11.522A19.649,19.649,0,0,0,341,632.6a21.5,21.5,0,0,0-9.533-22.8,27.7,27.7,0,0,0-10.6-4.458,21.632,21.632,0,0,0-5.521-.755,13.716,13.716,0,0,0-8.5,2.709l-22.427-27.228-6.618-8.025a95.019,95.019,0,0,0,15.843-23.73l28.5,7.578,14.437,3.841a25.137,25.137,0,0,0,1.337,9.773,17.624,17.624,0,0,0,7.3,8.641,23.907,23.907,0,0,0,3.121,1.578,35.865,35.865,0,0,0,10.013,3.635,17.766,17.766,0,0,0,12.928-2.126,20.576,20.576,0,0,0,9.671-18,18.346,18.346,0,0,0-.343-6.413,21.466,21.466,0,0,0-18.963-15.843,27.64,27.64,0,0,0-11.454.926,23.245,23.245,0,0,0-5.247,1.852,13.718,13.718,0,0,0-6.276,6.344l-32.475-13.717-6.858-2.983a94.51,94.51,0,0,0,3.429-25.068v-4.972l26.13-5.8,14.609-3.224a25.441,25.441,0,0,0,5.693,8.059,17.556,17.556,0,0,0,10.288,4.286,23.986,23.986,0,0,0,3.429,0,35.053,35.053,0,0,0,10.562-1.372,17.936,17.936,0,0,0,10.493-7.853,20.575,20.575,0,0,0,.274-20.609Z" transform="translate(53.891 658.03)" fill="#4f4a88"/>
  <path id="Trazado_73" data-name="Trazado 73" d="M139.866,221.867a8.5,8.5,0,0,0-1.269-2.161,8.368,8.368,0,0,0-9.362-2.057,11.316,11.316,0,0,0-3.738,2.366,9.358,9.358,0,0,0-1.509,1.577,5.384,5.384,0,0,0-.994,3.429l-13.717,1.029h-1.955a36.249,36.249,0,0,0-4.629-11.316L110,208.6l4.458-3.7a9.429,9.429,0,0,0,3.429,1.749,6.859,6.859,0,0,0,4.355-.377l1.166-.652a13.374,13.374,0,0,0,3.429-2.366,6.858,6.858,0,0,0,2.229-4.561,7.99,7.99,0,0,0-3.429-7.064,7.75,7.75,0,0,0-11.351,1.132,11.077,11.077,0,0,0-2.229,3.841,7.616,7.616,0,0,0-.583,2.092,5.212,5.212,0,0,0,.583,3.429l-11.694,7.2-1.1.652a37.006,37.006,0,0,0-9.739-7.956l3.429-8.436c.754-1.783,1.509-3.429,2.229-5.349a9.672,9.672,0,0,0,3.841,0,6.858,6.858,0,0,0,3.669-2.332,8.127,8.127,0,0,0,.754-1.132,12.9,12.9,0,0,0,1.955-3.635,6.859,6.859,0,0,0,0-5.075,7.887,7.887,0,0,0-6.378-4.664,7.746,7.746,0,0,0-2.5-.206,8.4,8.4,0,0,0-7.064,6.481,10.632,10.632,0,0,0-.24,4.424,9.019,9.019,0,0,0,.446,2.126,5.35,5.35,0,0,0,2.126,2.743L84.93,198.685l-.549.857a36.348,36.348,0,0,0-12.551-2.229c-.274-3.086-.514-6.173-.789-9.259,0-1.92-.309-3.841-.48-5.761a9.5,9.5,0,0,0,3.429-1.783,6.859,6.859,0,0,0,2.195-3.772,3.6,3.6,0,0,1,.171-1.337,14.026,14.026,0,0,0,0-4.149,6.859,6.859,0,0,0-2.469-4.424,7.887,7.887,0,0,0-7.819-1.166,7.1,7.1,0,0,0-2.3.96,8.3,8.3,0,0,0-3.429,8.984,10.836,10.836,0,0,0,1.852,4.046,9.011,9.011,0,0,0,1.337,1.68,5.246,5.246,0,0,0,3.155,1.44l-.823,13.717v1.338a36.832,36.832,0,0,0-13.717,5.11l-5.83-8.127-3.429-4.7a9.26,9.26,0,0,0,2.023-3.258A7.167,7.167,0,0,0,44.4,181.2a13.207,13.207,0,0,0-2.092-3.429,6.859,6.859,0,0,0-4.389-2.538,7.99,7.99,0,0,0-7.339,2.984,7.854,7.854,0,0,0-1.475,2.023,8.368,8.368,0,0,0,1.577,9.259,10.664,10.664,0,0,0,3.669,2.538,8.911,8.911,0,0,0,2.023.72,5.316,5.316,0,0,0,3.429-.343l6.31,12.105,1.029,2.023a36.626,36.626,0,0,0-7.441,9.087l-9.7-4.972-5.178-2.606a9.121,9.121,0,0,0,.274-3.841,6.859,6.859,0,0,0-2.058-3.841,8.909,8.909,0,0,0-1.063-.857,13.2,13.2,0,0,0-3.429-2.16,6.858,6.858,0,0,0-5.007-.24,7.887,7.887,0,0,0-5.144,6.035,7.809,7.809,0,0,0,5.555,9.979,11.146,11.146,0,0,0,4.389.583,9.393,9.393,0,0,0,2.16-.309,5.211,5.211,0,0,0,2.881-1.886l11.179,7.853,2.709,1.921a35.662,35.662,0,0,0-2.229,10.871H17.168a8.915,8.915,0,0,0-1.509-3.429,6.618,6.618,0,0,0-3.429-2.469,6.169,6.169,0,0,0-1.337-.274,12.86,12.86,0,0,0-4.115-.343,7.029,7.029,0,0,0-4.6,2.126,7.887,7.887,0,0,0-1.749,7.716,7.132,7.132,0,0,0,.789,2.366,8.3,8.3,0,0,0,8.71,3.944,10.972,10.972,0,0,0,4.184-1.509,8.959,8.959,0,0,0,1.749-1.235,5.418,5.418,0,0,0,1.715-3.018l13.511,1.817,4.355.583a35.048,35.048,0,0,0,2.778,10.288l-.446.206L26.77,254.787l-5.384,2.538a10.287,10.287,0,0,0-2.949-2.435,7.063,7.063,0,0,0-4.355-.514,9.315,9.315,0,0,0-1.3.377,13.716,13.716,0,0,0-3.806,1.612,6.858,6.858,0,0,0-3.086,3.978,7.887,7.887,0,0,0,1.989,7.681,7.069,7.069,0,0,0,1.783,1.715,8.367,8.367,0,0,0,9.568-.48,11.008,11.008,0,0,0,2.983-3.429,7.857,7.857,0,0,0,.994-1.92,5.487,5.487,0,0,0,0-3.429l12.86-4.6,4.835-1.749a37.071,37.071,0,0,0,6.858,7.544l-.617.857-7.064,10.288-3.429,4.732a9.465,9.465,0,0,0-3.738-.754,6.584,6.584,0,0,0-4.081,1.509,8.558,8.558,0,0,0-.994.926,13.716,13.716,0,0,0-2.641,3.189,7.065,7.065,0,0,0-.926,4.973,7.99,7.99,0,0,0,5.315,5.9,6.482,6.482,0,0,0,2.366.686,8.265,8.265,0,0,0,8.264-4.835,10.63,10.63,0,0,0,1.166-4.286,11.352,11.352,0,0,0,0-2.161,5.282,5.282,0,0,0-1.509-3.121c3.121-3.429,6.207-6.858,9.293-10.013,1.269-1.372,2.538-2.709,3.772-4.081a37.721,37.721,0,0,0,9.156,3.806v1.132L60.548,282.77l-.72,5.761a9.189,9.189,0,0,0-3.7,1.029,6.654,6.654,0,0,0-2.915,3.223,9.327,9.327,0,0,0-.446,1.269,14.059,14.059,0,0,0-.892,4.046,6.858,6.858,0,0,0,1.509,4.835,7.887,7.887,0,0,0,7.407,2.778,7.44,7.44,0,0,0,2.435-.446,8.367,8.367,0,0,0,5.178-7.887,11.316,11.316,0,0,0-.96-4.355,9.26,9.26,0,0,0-.995-1.92,5.281,5.281,0,0,0-2.743-2.092l3.6-13.168c.48-1.749.96-3.429,1.475-5.281a25.908,25.908,0,0,0,2.846,0,35.06,35.06,0,0,0,7.167-.72l.274.72c1.44,3.909,2.881,7.819,4.287,11.694l2.023,5.452a9.294,9.294,0,0,0-2.812,2.606,6.858,6.858,0,0,0-1.1,4.218,9.02,9.02,0,0,0,.206,1.337,13.132,13.132,0,0,0,1.063,3.978,7.1,7.1,0,0,0,3.429,3.635,7.887,7.887,0,0,0,7.853-.96,7.782,7.782,0,0,0,1.955-1.543,8.333,8.333,0,0,0,.789-9.533,11.352,11.352,0,0,0-2.846-3.429,9.2,9.2,0,0,0-1.783-1.235A5.179,5.179,0,0,0,88.7,286.2c-.926-4.458-1.886-8.916-2.846-13.34l-1.029-4.835a35.938,35.938,0,0,0,9.087-5.144l9.225,8.367,4.252,3.909a10.082,10.082,0,0,0-1.269,3.429,6.859,6.859,0,0,0,.96,4.252,8.971,8.971,0,0,0,.789,1.1,13.3,13.3,0,0,0,2.812,3.052,6.858,6.858,0,0,0,4.8,1.577,7.853,7.853,0,0,0,6.55-4.458,7.1,7.1,0,0,0,1.029-2.263,8.3,8.3,0,0,0-3.7-8.813,10.285,10.285,0,0,0-4.081-1.749,9.324,9.324,0,0,0-2.16-.274,5.178,5.178,0,0,0-3.429,1.029c-2.881-3.429-5.761-6.858-8.676-10.528l-2.572-3.12a35.6,35.6,0,0,0,6.138-9.19l11.042,2.949,5.59,1.509a9.33,9.33,0,0,0,.514,3.772,6.859,6.859,0,0,0,2.812,3.429,9.99,9.99,0,0,0,1.2.617,12.757,12.757,0,0,0,3.909,1.406,6.858,6.858,0,0,0,5.007-.823,7.956,7.956,0,0,0,3.738-6.858,7.444,7.444,0,0,0,0-2.469,8.368,8.368,0,0,0-7.338-6.138,14.019,14.019,0,0,0-6.413,1.166,5.316,5.316,0,0,0-2.435,2.469l-12.654-5.384-2.709-1.132a37.721,37.721,0,0,0,1.269-9.7v-1.921l10.288-2.263,5.658-1.235a10.081,10.081,0,0,0,2.195,3.121,6.858,6.858,0,0,0,3.875,1.612,8.738,8.738,0,0,0,1.337,0,13.718,13.718,0,0,0,4.115-.549,6.859,6.859,0,0,0,4.149-2.881A7.956,7.956,0,0,0,139.866,221.867Z" transform="translate(-0.076 256.86)" fill="#6060a0"/>
  <path id="Trazado_74" data-name="Trazado 74" d="M335.018,370.985a7.447,7.447,0,0,0-1.269-2.126,8.265,8.265,0,0,0-9.328-2.057,10.527,10.527,0,0,0-3.772,2.332,8.166,8.166,0,0,0-1.474,1.612,5.144,5.144,0,0,0-1.029,3.429L304.429,375.2h-1.955a36.589,36.589,0,0,0-4.6-11.35l7.3-6.1,4.458-3.738a9.432,9.432,0,0,0,3.429,1.749,6.859,6.859,0,0,0,4.355-.377,7.6,7.6,0,0,0,1.166-.617,13.389,13.389,0,0,0,3.429-2.367,7.133,7.133,0,0,0,2.229-4.561,7.956,7.956,0,0,0-3.429-7.1,7.38,7.38,0,0,0-2.092-1.3,8.3,8.3,0,0,0-9.259,2.469,10.494,10.494,0,0,0-2.229,3.841,8.788,8.788,0,0,0-.583,2.057,5.145,5.145,0,0,0,.583,3.429l-11.591,7.2-1.1.651a36.87,36.87,0,0,0-9.739-7.921l3.429-8.436c.754-1.783,1.509-3.429,2.229-5.35a10.286,10.286,0,0,0,3.841,0,6.861,6.861,0,0,0,3.669-2.366,12.817,12.817,0,0,0,.788-1.1,14.442,14.442,0,0,0,1.921-3.669,7.2,7.2,0,0,0,0-5.075,7.991,7.991,0,0,0-6.413-4.63,6.869,6.869,0,0,0-2.5-.206,8.3,8.3,0,0,0-7.064,6.447,10.663,10.663,0,0,0-.24,4.424,11.134,11.134,0,0,0,.446,2.126,5.347,5.347,0,0,0,2.126,2.743L280.185,347.8l-.549.892a36.383,36.383,0,0,0-12.414-2.229c-.274-3.086-.514-6.172-.789-9.259,0-1.921-.309-3.841-.48-5.761a9.978,9.978,0,0,0,3.429-1.749,6.858,6.858,0,0,0,2.195-3.806v-1.338a13.717,13.717,0,0,0,0-4.115,6.857,6.857,0,0,0-2.435-4.458,8.024,8.024,0,0,0-7.853-1.166,7.784,7.784,0,0,0-5.59,9.945,10.6,10.6,0,0,0,1.852,4.046,7.162,7.162,0,0,0,1.372,1.68,5.107,5.107,0,0,0,3.121,1.475l-.823,13.717v1.337a36.286,36.286,0,0,0-13.717,5.144L241.675,344l-3.429-4.7a9.255,9.255,0,0,0,2.023-3.258,6.86,6.86,0,0,0,0-4.355,9.662,9.662,0,0,0-.549-1.234,13.723,13.723,0,0,0-2.092-3.429,7.03,7.03,0,0,0-4.389-2.537A7.921,7.921,0,0,0,225.9,327.5a7.367,7.367,0,0,0-1.44,1.989,8.3,8.3,0,0,0,1.749,9.4,10.286,10.286,0,0,0,3.67,2.538,9.021,9.021,0,0,0,2.023.755,5.281,5.281,0,0,0,3.429-.378c2.126,4.047,4.218,8.093,6.31,12.14l1.029,1.989a36.762,36.762,0,0,0-7.647,8.848l-9.808-5.007-5.144-2.606a10.288,10.288,0,0,0,.274-3.806,6.858,6.858,0,0,0-2.092-3.841,8.039,8.039,0,0,0-1.029-.857,13.169,13.169,0,0,0-3.429-2.195,6.857,6.857,0,0,0-5.041-.24,7.955,7.955,0,0,0-5.109,6.035,7.613,7.613,0,0,0-.412,2.469,8.333,8.333,0,0,0,5.933,7.51,10.562,10.562,0,0,0,4.389.583,9.342,9.342,0,0,0,2.161-.275,5.313,5.313,0,0,0,2.88-1.92l11.179,7.853,2.709,1.92a35.9,35.9,0,0,0-2.229,10.9H212.389a9.363,9.363,0,0,0-1.509-3.429,6.861,6.861,0,0,0-3.429-2.469l-1.3-.274a14.122,14.122,0,0,0-4.15-.309,6.858,6.858,0,0,0-4.6,2.126,9.671,9.671,0,0,0-.96,10.048,8.367,8.367,0,0,0,8.71,3.978,10.5,10.5,0,0,0,4.184-1.543,8.948,8.948,0,0,0,1.749-1.235,5.315,5.315,0,0,0,1.715-3.018l13.511,1.852,4.355.583a34.836,34.836,0,0,0,2.778,10.116l-.446.24L221.991,403.8l-5.11,2.709a9.884,9.884,0,0,0-2.949-2.4,6.858,6.858,0,0,0-4.355-.549l-1.3.377a13.725,13.725,0,0,0-3.806,1.612,6.858,6.858,0,0,0-3.086,4.012,7.921,7.921,0,0,0,1.989,7.647,7.2,7.2,0,0,0,1.783,1.749,8.367,8.367,0,0,0,9.568-.514,11.006,11.006,0,0,0,2.983-3.429,10.1,10.1,0,0,0,1.029-1.886,5.451,5.451,0,0,0,0-3.429l12.86-4.629,4.869-1.749a35.914,35.914,0,0,0,6.858,7.544l-.617.857c-2.332,3.429-4.7,6.859-7.064,10.288l-3.429,4.767a9.5,9.5,0,0,0-3.738-.789,6.859,6.859,0,0,0-4.081,1.543,8.389,8.389,0,0,0-.994.926,13.725,13.725,0,0,0-2.641,3.155,7.1,7.1,0,0,0-.926,5.007,7.887,7.887,0,0,0,4.9,6,7.477,7.477,0,0,0,2.4.72,8.333,8.333,0,0,0,8.23-4.835,10.937,10.937,0,0,0,1.166-4.286,9.386,9.386,0,0,0,0-2.195,5.248,5.248,0,0,0-1.475-3.086l9.259-10.048,3.772-4.046a37.311,37.311,0,0,0,9.19,3.772l-.172,1.132-1.543,12.379-.72,5.727a10.28,10.28,0,0,0-3.7,1.029,6.859,6.859,0,0,0-2.915,3.258,7.959,7.959,0,0,0-.446,1.269,13.721,13.721,0,0,0-.892,4.046,6.859,6.859,0,0,0,1.509,4.835,7.887,7.887,0,0,0,7.407,2.778,7.343,7.343,0,0,0,2.435-.48,8.367,8.367,0,0,0,5.109-8.093,12.754,12.754,0,0,0-1.955-6.276,5.216,5.216,0,0,0-2.743-2.057L262.079,425c.48-1.783.994-3.429,1.475-5.281H266.4a37.733,37.733,0,0,0,7.173-.687l.268.722c1.44,3.875,2.881,7.784,4.287,11.694.686,1.783,1.337,3.43,2.023,5.418a9.741,9.741,0,0,0-2.812,2.606,7.031,7.031,0,0,0-1.1,4.218,9.033,9.033,0,0,0,.206,1.337,13.35,13.35,0,0,0,1.063,4.012,7.167,7.167,0,0,0,3.429,3.429,7.887,7.887,0,0,0,7.853-.96,7.067,7.067,0,0,0,1.955-1.543,8.3,8.3,0,0,0,.789-9.533A11.247,11.247,0,0,0,288.689,437a10.274,10.274,0,0,0-1.749-1.269,5.279,5.279,0,0,0-3.429-.549c-.926-4.458-1.886-8.916-2.846-13.374l-1.029-4.8a37.137,37.137,0,0,0,9.087-5.178l9.225,8.4,4.252,3.909a10.291,10.291,0,0,0-1.269,3.6,6.856,6.856,0,0,0,.96,4.252,12.682,12.682,0,0,0,.789,1.1,14.882,14.882,0,0,0,2.812,3.052,6.86,6.86,0,0,0,4.8,1.578,7.955,7.955,0,0,0,6.55-4.492,6.86,6.86,0,0,0,1.029-2.263,8.333,8.333,0,0,0-3.7-8.813,10.767,10.767,0,0,0-4.081-1.715,7.824,7.824,0,0,0-2.16-.309,5.418,5.418,0,0,0-3.429,1.063l-8.676-10.562-2.538-3.086a37.729,37.729,0,0,0,6.1-9.19l11.042,2.915,5.59,1.509a9.257,9.257,0,0,0,.514,3.772,6.86,6.86,0,0,0,2.812,3.429q.6.322,1.235.583a13.237,13.237,0,0,0,3.875,1.44,7.1,7.1,0,0,0,5.007-.823,7.957,7.957,0,0,0,3.738-6.859,7.441,7.441,0,0,0,0-2.469,8.367,8.367,0,0,0-7.338-6.138,10.733,10.733,0,0,0-4.424.377,7.345,7.345,0,0,0-2.057.72,5.246,5.246,0,0,0-2.435,2.435l-12.551-5.35-2.709-1.166a37.729,37.729,0,0,0,1.269-9.7V381.1l10.116-2.229,5.658-1.269a10.085,10.085,0,0,0,2.194,3.121,6.86,6.86,0,0,0,4.046,1.646h1.338a13.727,13.727,0,0,0,4.115-.548,6.859,6.859,0,0,0,4.046-3.018A7.956,7.956,0,0,0,335.018,370.985Z" transform="translate(474.566 619.209)" fill="#6060a0"/>
  <path id="Trazado_77" data-name="Trazado 77" d="M396.383,198.963a10.288,10.288,0,0,0-1.783-2.983,11.591,11.591,0,0,0-13.066-2.881,14.441,14.441,0,0,0-5.281,3.429,12.9,12.9,0,0,0-2.092,2.229,7.442,7.442,0,0,0-1.44,4.6l-19.067,1.44-2.743.206a51.24,51.24,0,0,0-6.447-15.877c3.429-2.881,6.859-5.727,10.288-8.573,2.057-1.749,4.115-3.429,6.207-5.212a13.714,13.714,0,0,0,4.766,2.435,9.26,9.26,0,0,0,6.07-.549,9.674,9.674,0,0,0,1.68-.857,19.483,19.483,0,0,0,4.767-3.429,9.669,9.669,0,0,0,3.086-6.378,11.111,11.111,0,0,0-4.972-9.91,10.283,10.283,0,0,0-3.052-1.714,11.66,11.66,0,0,0-12.962,3.429,15.063,15.063,0,0,0-3.155,5.35,14.8,14.8,0,0,0-.823,2.915,7.683,7.683,0,0,0,.857,4.767l-16.254,10.082-1.509.926a51.783,51.783,0,0,0-13.717-11.145l4.938-11.8,3.121-7.51a13.372,13.372,0,0,0,5.35,0,9.533,9.533,0,0,0,5.178-3.429,12.285,12.285,0,0,0,1.063-1.543,18.417,18.417,0,0,0,2.675-5.144,9.568,9.568,0,0,0,0-7.1,11.18,11.18,0,0,0-8.985-6.516,10.762,10.762,0,0,0-3.429-.274,11.659,11.659,0,0,0-9.91,9.053,15.708,15.708,0,0,0-.343,6.207,13.724,13.724,0,0,0,.617,2.949,7.441,7.441,0,0,0,2.949,3.841q-4.87,8.23-9.808,16.426l-.72,1.269a51.435,51.435,0,0,0-17.42-3.121c-.343-4.321-.72-8.642-1.1-12.962-.206-2.675-.446-5.384-.652-8.093A13.305,13.305,0,0,0,304,141.044a9.224,9.224,0,0,0,3.052-5.281,8.861,8.861,0,0,0,.24-1.886,19.334,19.334,0,0,0,0-5.8,9.6,9.6,0,0,0-3.429-6.207,13.717,13.717,0,0,0-14.2-.309,11.659,11.659,0,0,0-4.6,12.585,14.916,14.916,0,0,0,2.538,5.693,12.653,12.653,0,0,0,1.92,2.332,7.372,7.372,0,0,0,4.389,2.058l-1.132,19.1v1.886a50.786,50.786,0,0,0-19.169,7.167l-8.162-11.419-4.732-6.584a13.718,13.718,0,0,0,2.812-4.561,9.531,9.531,0,0,0,0-6.1,11.183,11.183,0,0,0-.754-1.749A19.069,19.069,0,0,0,259.831,137a9.7,9.7,0,0,0-6.138-3.429,11.076,11.076,0,0,0-10.288,4.218,9.74,9.74,0,0,0-2.058,2.812,11.625,11.625,0,0,0,2.469,13.168,15.156,15.156,0,0,0,5.109,3.429,13.039,13.039,0,0,0,2.846,1.063,7.442,7.442,0,0,0,4.835-.514l8.813,16.975c.48.926.96,1.886,1.474,2.812a50.714,50.714,0,0,0-10.459,12.757l-13.717-6.858-7.2-3.669a14.023,14.023,0,0,0,.377-5.315,9.6,9.6,0,0,0-2.915-5.418,10.062,10.062,0,0,0-1.475-1.166,18.759,18.759,0,0,0-4.9-3.086,9.773,9.773,0,0,0-7.1-.309,11.214,11.214,0,0,0-7.167,8.436,9.978,9.978,0,0,0-.514,3.429,11.625,11.625,0,0,0,8.264,10.528,17.354,17.354,0,0,0,9.19.411,7.372,7.372,0,0,0,4.047-2.64L248.96,195.6l3.806,2.675a51.2,51.2,0,0,0-3.121,15.26h-25a13.719,13.719,0,0,0-2.126-4.938,9.431,9.431,0,0,0-5.041-3.429,11.828,11.828,0,0,0-1.852-.377,19.509,19.509,0,0,0-5.8-.48,9.877,9.877,0,0,0-6.447,2.984,13.511,13.511,0,0,0-1.337,14.128,11.693,11.693,0,0,0,12.208,5.521,14.607,14.607,0,0,0,5.83-2.126,12.618,12.618,0,0,0,2.5-1.749,7.373,7.373,0,0,0,2.366-4.218l18.964,2.572,6.035.823a50.958,50.958,0,0,0,3.909,14.2l-.617.309-15.4,8.2-7.167,3.772a13.472,13.472,0,0,0-4.149-3.429,9.5,9.5,0,0,0-6.07-.755,15.824,15.824,0,0,0-1.818.514,19.493,19.493,0,0,0-5.35,2.263,9.808,9.808,0,0,0-4.355,5.624,11.077,11.077,0,0,0,2.812,10.7,9.945,9.945,0,0,0,2.5,2.435,11.694,11.694,0,0,0,13.374-.686,15.47,15.47,0,0,0,4.218-4.6,12.482,12.482,0,0,0,1.406-2.675,7.339,7.339,0,0,0,0-4.835l18.038-6.481,6.858-2.435a51.816,51.816,0,0,0,9.4,10.528l-.823,1.2-9.945,14.368-4.6,6.687a13.442,13.442,0,0,0-5.247-1.1,9.635,9.635,0,0,0-5.727,2.126,16.528,16.528,0,0,0-1.372,1.3,18.994,18.994,0,0,0-3.7,4.458,9.634,9.634,0,0,0-1.269,6.858,11.076,11.076,0,0,0,7.407,8.23,10.564,10.564,0,0,0,3.429.994,11.66,11.66,0,0,0,11.556-6.859,15.019,15.019,0,0,0,1.612-6,12.979,12.979,0,0,0,0-3.052,7.372,7.372,0,0,0-2.092-4.355L269.81,265.73,275.091,260a50.89,50.89,0,0,0,12.482,5.693l-.206,1.577c-.72,5.8-1.44,11.557-2.195,17.318-.309,2.709-.651,5.384-.995,8.059A14.063,14.063,0,0,0,279,294.09a9.534,9.534,0,0,0-4.081,4.527,16.184,16.184,0,0,0-.617,1.817,18.009,18.009,0,0,0-1.235,5.624,9.671,9.671,0,0,0,2.092,6.858,11.111,11.111,0,0,0,10.288,3.875,10.487,10.487,0,0,0,3.429-.652,11.659,11.659,0,0,0,7.133-11.351,14.471,14.471,0,0,0-1.337-6.07,11.176,11.176,0,0,0-1.372-2.709,7.339,7.339,0,0,0-3.875-2.915c1.715-6.138,3.429-12.311,5.075-18.449l2.058-7.373h4.012a53.293,53.293,0,0,0,10.013-.96,8.565,8.565,0,0,1,.377.994q3.018,8.162,6.035,16.392c.926,2.538,1.886,5.041,2.812,7.579a14.27,14.27,0,0,0-3.909,3.669,9.292,9.292,0,0,0-1.543,5.932,11.478,11.478,0,0,0,.274,1.852,19.277,19.277,0,0,0,1.509,5.59,9.7,9.7,0,0,0,4.972,5.075,11.042,11.042,0,0,0,11.008-1.337,10.461,10.461,0,0,0,2.743-2.16,11.694,11.694,0,0,0,1.1-13.34,15.3,15.3,0,0,0-3.978-4.8,13.471,13.471,0,0,0-2.469-1.749,7.441,7.441,0,0,0-4.8-.789q-1.955-9.362-3.978-18.724l-1.44-6.858a51.984,51.984,0,0,0,12.757-7.236l12.86,11.728,6,5.452a13.718,13.718,0,0,0-1.783,5.075,9.634,9.634,0,0,0,1.371,5.967,11.278,11.278,0,0,0,1.1,1.509,18.692,18.692,0,0,0,3.909,4.286,9.67,9.67,0,0,0,6.858,2.195,11.145,11.145,0,0,0,9.156-6.241,10.73,10.73,0,0,0,1.44-3.189,11.693,11.693,0,0,0-5.178-12.345,14.886,14.886,0,0,0-5.761-2.435,14.547,14.547,0,0,0-2.983-.411,7.3,7.3,0,0,0-4.6,1.475c-4.081-4.9-8.127-9.842-12.173-14.746l-3.6-4.355a51.951,51.951,0,0,0,8.607-12.894l15.431,4.115,7.853,2.092a13.172,13.172,0,0,0,.72,5.315,9.534,9.534,0,0,0,3.944,4.664,11.411,11.411,0,0,0,1.714.857,19.453,19.453,0,0,0,5.418,1.989,9.7,9.7,0,0,0,6.858-1.166,11.145,11.145,0,0,0,5.247-9.773,9.839,9.839,0,0,0-.206-3.429,11.694,11.694,0,0,0-10.288-8.607,15.3,15.3,0,0,0-6.207.514,11.768,11.768,0,0,0-2.846,1.029,7.166,7.166,0,0,0-3.429,3.429l-17.626-7.51-3.806-1.646a50.688,50.688,0,0,0,1.817-13.717v-2.675l14.2-3.155,7.887-1.749a13.718,13.718,0,0,0,3.121,4.355,9.6,9.6,0,0,0,5.658,2.332,11.623,11.623,0,0,0,1.886,0,18.9,18.9,0,0,0,5.727-.72,9.772,9.772,0,0,0,5.692-4.252,11.179,11.179,0,0,0,.343-10.8Z" transform="translate(487.17 146.642)" fill="#6060a0"/>
</svg>
