<svg id="Grupo_73" data-name="Grupo 73" xmlns="http://www.w3.org/2000/svg" width="792.118" height="1352.348" viewBox="0 0 792.118 1352.348">
  <path id="Trazado_70" data-name="Trazado 70" d="M1191.787,294.711a12.5,12.5,0,0,0-2.1-3.576,13.956,13.956,0,0,0-15.682-3.45,18.168,18.168,0,0,0-6.274,3.952,14.043,14.043,0,0,0-2.477,2.635,8.884,8.884,0,0,0-1.726,5.521l-22.771,1.725-3.137.251a61.469,61.469,0,0,0-7.685-18.977l12.2-10.225,7.432-6.273a16.034,16.034,0,0,0,5.678,2.917,11.417,11.417,0,0,0,7.277-.659,11.87,11.87,0,0,0,1.976-1.035,22.714,22.714,0,0,0,5.678-3.952,11.7,11.7,0,0,0,3.7-7.622,13.329,13.329,0,0,0-5.929-11.825,11.554,11.554,0,0,0-3.544-2.2,13.9,13.9,0,0,0-15.432,4.109,18.263,18.263,0,0,0-3.764,6.273,13.761,13.761,0,0,0-.971,3.482,8.9,8.9,0,0,0,1,5.677q-9.692,6.022-19.416,12.013l-1.788,1.129a61.939,61.939,0,0,0-16.311-13.3c1.977-4.674,3.921-9.41,5.9-14.084l3.7-8.939a16.874,16.874,0,0,0,6.274,0,11.48,11.48,0,0,0,6.273-3.952,12.933,12.933,0,0,0,1.286-1.851,22.375,22.375,0,0,0,3.137-6.116,11.444,11.444,0,0,0-.22-8.469,13.269,13.269,0,0,0-10.7-7.748,11.614,11.614,0,0,0-4.142-.345,13.927,13.927,0,0,0-11.824,10.79,18.365,18.365,0,0,0-.407,7.4,16.615,16.615,0,0,0,.753,3.544,8.817,8.817,0,0,0,3.513,4.579c-3.889,6.524-7.779,13.08-11.7,19.6l-.879,1.474a61.5,61.5,0,0,0-20.764-3.7c-.439-5.144-.879-10.32-1.286-15.464-.282-3.137-.565-6.43-.815-9.629a15.989,15.989,0,0,0,5.645-2.98,11.189,11.189,0,0,0,3.67-6.273,13.5,13.5,0,0,0,.283-2.227,22.323,22.323,0,0,0,0-6.932,11.668,11.668,0,0,0-4.109-7.4,13.331,13.331,0,0,0-13.08-1.976,12.156,12.156,0,0,0-3.827,1.631,13.864,13.864,0,0,0-5.521,14.993,17.9,17.9,0,0,0,3.138,6.775,14.1,14.1,0,0,0,2.288,2.792,8.756,8.756,0,0,0,5.208,2.447c-.44,7.591-.879,15.213-1.349,22.8v2.227a61.077,61.077,0,0,0-22.835,8.563l-9.786-13.613-5.615-7.841a16.1,16.1,0,0,0,3.325-5.458,11.322,11.322,0,0,0,0-7.277,15.459,15.459,0,0,0-.91-2.07,23.134,23.134,0,0,0-3.513-5.96,11.611,11.611,0,0,0-7.34-4.235,13.238,13.238,0,0,0-12.234,5.019,11.7,11.7,0,0,0-2.446,3.356,13.9,13.9,0,0,0,2.948,15.683,18.293,18.293,0,0,0,6.116,4.234,14.584,14.584,0,0,0,3.388,1.223,8.719,8.719,0,0,0,5.74-.6l10.539,20.263,1.725,3.325a61.969,61.969,0,0,0-12.547,15.213l-16.373-8.312-8.625-4.391a16.2,16.2,0,0,0,.439-6.273,11.32,11.32,0,0,0-3.45-6.273,15.707,15.707,0,0,0-1.757-1.411,24.318,24.318,0,0,0-5.834-3.67,11.791,11.791,0,0,0-8.468-.376,13.3,13.3,0,0,0-8.563,10.1,12.2,12.2,0,0,0-.628,4.109,13.926,13.926,0,0,0,9.88,12.547,18.11,18.11,0,0,0,7.34.941,15.367,15.367,0,0,0,3.607-.471,8.938,8.938,0,0,0,4.83-3.137l18.662,13.111,4.517,3.137a61.338,61.338,0,0,0-3.7,18.192l-20.168.188h-9.661a16.685,16.685,0,0,0-2.542-5.865,11.2,11.2,0,0,0-6.021-4.109,13.372,13.372,0,0,0-2.227-.47,22.152,22.152,0,0,0-6.87-.533,11.386,11.386,0,0,0-7.684,3.545,13.267,13.267,0,0,0-2.948,12.891A12.051,12.051,0,0,0,959.8,321.5a13.865,13.865,0,0,0,14.555,6.618,17.938,17.938,0,0,0,6.994-2.541,13.841,13.841,0,0,0,2.948-2.07,8.741,8.741,0,0,0,2.822-5.019l22.616,3.137,7.246.972a60.217,60.217,0,0,0,4.642,16.938l-.721.376-18.38,9.755-8.721,4.642a15.961,15.961,0,0,0-4.924-4.046,11.323,11.323,0,0,0-7.245-.878,13.471,13.471,0,0,0-2.2.627,22.852,22.852,0,0,0-6.273,2.666,11.7,11.7,0,0,0-5.176,6.712,13.235,13.235,0,0,0,3.325,12.8,12.011,12.011,0,0,0,3.137,2.886,13.833,13.833,0,0,0,15.934-.847,18.289,18.289,0,0,0,5.05-5.458,15.68,15.68,0,0,0,1.662-3.137,8.626,8.626,0,0,0,.188-5.74l21.486-7.716,8.123-2.917a61.956,61.956,0,0,0,11.2,12.546l-1,1.443-11.826,17.126-5.489,7.967a16.3,16.3,0,0,0-6.274-1.318,11.23,11.23,0,0,0-6.806,2.541,13.067,13.067,0,0,0-1.662,1.568,22.68,22.68,0,0,0-4.392,5.3,11.475,11.475,0,0,0-1.538,8.344,13.269,13.269,0,0,0,8.846,9.818,11.917,11.917,0,0,0,3.983,1.192,13.927,13.927,0,0,0,13.8-8.092,18.1,18.1,0,0,0,1.913-7.183,15.381,15.381,0,0,0,0-3.607,8.777,8.777,0,0,0-2.509-5.207l15.684-16.75,6.273-6.806a60.864,60.864,0,0,0,15.307,6.273l-.22,1.882-2.634,20.67c-.376,3.137-.785,6.273-1.193,9.6a16.3,16.3,0,0,0-6.273,1.694,11.418,11.418,0,0,0-4.893,5.427,13.261,13.261,0,0,0-.753,2.133,23.235,23.235,0,0,0-1.474,6.744,11.828,11.828,0,0,0,2.478,8.124,13.331,13.331,0,0,0,12.546,4.642,11.945,11.945,0,0,0,4.078-.815,13.9,13.9,0,0,0,8.531-13.519,18.275,18.275,0,0,0-1.6-7.246,14.307,14.307,0,0,0-1.662-3.137,8.591,8.591,0,0,0-4.61-3.45c2.038-7.34,4.046-14.679,6.084-21.956l2.415-8.814c1.569,0,3.138.188,4.8.188a62.2,62.2,0,0,0,11.936-1.158l.454,1.189,7.214,19.541,3.356,9.065a15.966,15.966,0,0,0-4.674,4.36,11.256,11.256,0,0,0-1.851,7.057,13.106,13.106,0,0,0,.314,2.227,22.927,22.927,0,0,0,1.818,6.681,11.638,11.638,0,0,0,5.929,6.054,13.268,13.268,0,0,0,13.143-1.6,12.332,12.332,0,0,0,3.136-2.573,13.956,13.956,0,0,0,1.318-15.934,18.485,18.485,0,0,0-4.767-5.709,16.249,16.249,0,0,0-2.948-2.1,8.656,8.656,0,0,0-5.677-.941c-1.6-7.434-3.137-14.9-4.769-22.333-.564-2.666-1.128-5.364-1.725-8.03a62.736,62.736,0,0,0,15.213-8.626l15.369,14.021,7.152,6.493a15.99,15.99,0,0,0-2.133,6.022,11.331,11.331,0,0,0,1.6,7.12,19.767,19.767,0,0,0,1.318,1.851,23.267,23.267,0,0,0,4.673,5.081,11.731,11.731,0,0,0,8.061,2.635,13.235,13.235,0,0,0,10.915-7.465,12.229,12.229,0,0,0,1.726-3.8,13.961,13.961,0,0,0-6.273-14.742,18.383,18.383,0,0,0-6.838-2.886,17.522,17.522,0,0,0-3.606-.5,9,9,0,0,0-5.49,1.788l-14.491-17.628-4.3-5.207a61.307,61.307,0,0,0,10.256-15.338l18.412,4.893,9.409,2.509a16.532,16.532,0,0,0,.879,6.273,11.393,11.393,0,0,0,4.735,5.552,12.186,12.186,0,0,0,2.008,1.035,23.017,23.017,0,0,0,6.493,2.353,11.6,11.6,0,0,0,8.343-1.38,13.3,13.3,0,0,0,6.274-11.637,12.256,12.256,0,0,0-.251-4.14,13.831,13.831,0,0,0-12.264-10.257,18.072,18.072,0,0,0-7.4.6,14.461,14.461,0,0,0-3.387,1.192,8.9,8.9,0,0,0-4.078,4.109l-20.984-8.939-4.548-1.945a61.46,61.46,0,0,0,2.163-16.216v-3.137l16.939-3.733,9.409-2.1a16.655,16.655,0,0,0,3.67,5.207,11.484,11.484,0,0,0,6.776,2.791,17.622,17.622,0,0,0,2.227,0,22.846,22.846,0,0,0,6.87-.878,11.765,11.765,0,0,0,6.775-5.081A13.239,13.239,0,0,0,1191.787,294.711Z" transform="translate(-401.566 426.733)" fill="#4f4a88"/>
  <path id="Trazado_71" data-name="Trazado 71" d="M1122.89,134.1a17.037,17.037,0,0,0-3.136-5.05,19.667,19.667,0,0,0-21.957-4.893,25.567,25.567,0,0,0-8.907,5.583,21.983,21.983,0,0,0-3.482,3.733,12.538,12.538,0,0,0-2.415,7.779L1050.81,143.7l-4.641.345a85.589,85.589,0,0,0-10.885-26.818l17.283-14.46,10.508-8.783a22.677,22.677,0,0,0,8,4.14,16.089,16.089,0,0,0,10.288-.91,24.331,24.331,0,0,0,2.823-1.506,32,32,0,0,0,8.03-5.583,16.5,16.5,0,0,0,5.207-10.759,18.819,18.819,0,0,0-8.344-16.624,17.5,17.5,0,0,0-4.988-3.137,19.634,19.634,0,0,0-21.956,5.834,25.407,25.407,0,0,0-5.333,9.065,20.541,20.541,0,0,0-1.38,4.925,12.544,12.544,0,0,0,1.443,8.03l-27.446,16.969c-.847.533-1.694,1.066-2.572,1.568a86.964,86.964,0,0,0-23.023-18.82q4.14-9.975,8.313-19.949l5.269-12.547a22.46,22.46,0,0,0,9.034,0,16.156,16.156,0,0,0,8.688-5.552,24.665,24.665,0,0,0,1.82-2.635,32.984,32.984,0,0,0,4.673-8.845,16.468,16.468,0,0,0-.345-11.982,18.819,18.819,0,0,0-15.15-11.01,17.378,17.378,0,0,0-5.834-.439A19.6,19.6,0,0,0,1003.6,29.466a25.1,25.1,0,0,0-.6,10.476,20.788,20.788,0,0,0,1.067,4.987,12.547,12.547,0,0,0,4.956,6.493L992.469,79.213c-.408.69-.815,1.411-1.255,2.1a85.92,85.92,0,0,0-29.36-5.238q-.94-10.915-1.819-21.956c-.408-4.548-.784-9.1-1.16-13.644a22.923,22.923,0,0,0,8-4.172,15.934,15.934,0,0,0,5.176-8.939,21.426,21.426,0,0,0,.408-3.137,31.792,31.792,0,0,0,0-9.755A16.279,16.279,0,0,0,966.655,4a18.82,18.82,0,0,0-18.412-2.729,17.342,17.342,0,0,0-5.426,2.29,19.7,19.7,0,0,0-7.81,21.235,25.878,25.878,0,0,0,4.329,9.41,21.948,21.948,0,0,0,3.136,3.952,12.547,12.547,0,0,0,7.4,3.45c-.627,10.727-1.286,21.486-1.913,32.213l-.188,3.137a86.169,86.169,0,0,0-32.308,12.107l-13.8-19.227-7.967-11.1a23.225,23.225,0,0,0,4.736-7.716,16.154,16.154,0,0,0-.063-10.225,20.1,20.1,0,0,0-1.286-2.917,32.289,32.289,0,0,0-4.987-8.312,16.53,16.53,0,0,0-10.35-6.022,18.82,18.82,0,0,0-17.283,7.12,17.148,17.148,0,0,0-3.482,4.736,19.636,19.636,0,0,0,4.2,22.207,25.094,25.094,0,0,0,8.626,5.991,20.5,20.5,0,0,0,4.8,1.757,12.548,12.548,0,0,0,8.124-.847L901.506,93.14c.816,1.568,1.662,3.137,2.478,4.736a87.138,87.138,0,0,0-17.628,21.517L863.177,107.6l-12.17-6.273a23.079,23.079,0,0,0,.627-9,15.9,15.9,0,0,0-4.893-9.1,19.266,19.266,0,0,0-2.478-2.007,32.7,32.7,0,0,0-8.281-5.175,16.4,16.4,0,0,0-11.951-.565,18.821,18.821,0,0,0-12.076,14.272,16.815,16.815,0,0,0-.91,5.834A19.605,19.605,0,0,0,825,113.34a24.749,24.749,0,0,0,10.413,1.349,19.386,19.386,0,0,0,5.05-.659A12.545,12.545,0,0,0,847.4,109.8l26.41,18.569,6.273,4.485a85.724,85.724,0,0,0-5.27,25.752l-28.48.251H832.657a23.088,23.088,0,0,0-3.293-8.281,16.06,16.06,0,0,0-8.532-5.834,21.357,21.357,0,0,0-3.137-.627,32.9,32.9,0,0,0-9.723-.784,16.436,16.436,0,0,0-10.884,5.019,18.824,18.824,0,0,0-4.141,18.224,17.47,17.47,0,0,0,1.851,5.583,19.7,19.7,0,0,0,20.576,9.41,24.779,24.779,0,0,0,9.88-3.607,22.835,22.835,0,0,0,4.2-2.917,12.542,12.542,0,0,0,3.983-7.12l31.994,4.3,10.225,1.38a85.234,85.234,0,0,0,6.4,24.027l-1.035.533q-12.985,6.932-26,13.8l-12.075,6.273a23.058,23.058,0,0,0-6.995-5.709,16.059,16.059,0,0,0-10.256-1.223,16.924,16.924,0,0,0-3.137.878,31.879,31.879,0,0,0-8.877,3.764,16.4,16.4,0,0,0-7.37,9.41,18.82,18.82,0,0,0,4.735,18.1,16.886,16.886,0,0,0,4.234,4.078,19.6,19.6,0,0,0,22.553-1.161,25.522,25.522,0,0,0,7.214-7.716,21.322,21.322,0,0,0,2.352-4.517,12.549,12.549,0,0,0,.283-8.155l30.362-10.915,11.511-4.14a86.43,86.43,0,0,0,15.684,17.816l-1.412,2.007q-8.312,12.139-16.718,24.246c-2.6,3.733-5.176,7.5-7.779,11.26a22.963,22.963,0,0,0-8.845-1.882,16.342,16.342,0,0,0-9.755,3.639,22.036,22.036,0,0,0-2.321,2.2,33.088,33.088,0,0,0-6.274,7.5,16.562,16.562,0,0,0-2.164,11.794,18.819,18.819,0,0,0,12.546,13.9,16.816,16.816,0,0,0,5.615,1.662,19.6,19.6,0,0,0,19.51-11.449,25.325,25.325,0,0,0,2.729-10.131,21.486,21.486,0,0,0,0-5.113,12.544,12.544,0,0,0-3.544-7.371l21.956-23.65c2.949-3.137,5.929-6.273,8.908-9.63a86.984,86.984,0,0,0,21.644,8.939l-.315,2.666c-1.254,9.755-2.478,19.478-3.7,29.233-.564,4.517-1.161,9.033-1.725,13.55a23.273,23.273,0,0,0-8.689,2.415,15.964,15.964,0,0,0-6.9,7.685,20.121,20.121,0,0,0-1.066,3.137,31.658,31.658,0,0,0-2.07,9.41,16.373,16.373,0,0,0,3.513,11.449,18.82,18.82,0,0,0,17.5,6.587,17.163,17.163,0,0,0,5.772-1.129A19.6,19.6,0,0,0,953.7,312.516a25.621,25.621,0,0,0-2.258-10.257,22.2,22.2,0,0,0-2.322-4.548,12.541,12.541,0,0,0-6.524-4.924l8.563-31.115c1.129-4.14,2.289-8.281,3.419-12.547,2.258.188,4.516.251,6.807.251a88.322,88.322,0,0,0,16.919-1.634l.614,1.7,10.414,27.728c1.6,4.266,3.136,8.532,4.736,12.829a23,23,0,0,0-6.618,6.273,16.126,16.126,0,0,0-2.572,10.006,21.575,21.575,0,0,0,.439,3.137,32.09,32.09,0,0,0,2.541,9.41,16.6,16.6,0,0,0,8.406,8.563,18.821,18.821,0,0,0,18.569-2.258,17.909,17.909,0,0,0,4.611-3.638,19.6,19.6,0,0,0,1.851-22.521,25.527,25.527,0,0,0-6.87-8.186,21.735,21.735,0,0,0-4.172-2.949,12.546,12.546,0,0,0-8.03-1.349Q998.835,270.8,995.48,254.9c-.815-3.764-1.6-7.559-2.415-11.355a85.934,85.934,0,0,0,21.486-12.2l21.831,19.823,10.069,9.19a22.81,22.81,0,0,0-3.137,8.5,16,16,0,0,0,2.29,10.068,18.8,18.8,0,0,0,1.851,2.6,32.082,32.082,0,0,0,6.618,7.183,16.31,16.31,0,0,0,11.355,3.733A18.818,18.818,0,0,0,1080.89,281.9a17.941,17.941,0,0,0,2.415-5.363,19.666,19.666,0,0,0-8.72-20.859,25.346,25.346,0,0,0-9.693-4.078,19.787,19.787,0,0,0-5.05-.69,12.548,12.548,0,0,0-7.779,2.478l-20.513-24.9-6.054-7.34a86.922,86.922,0,0,0,14.492-21.706l26.064,6.932,13.206,3.513a22.41,22.41,0,0,0,1.255,8.939,16.244,16.244,0,0,0,6.649,7.9,21.941,21.941,0,0,0,2.854,1.443,32.813,32.813,0,0,0,9.159,3.325A16.248,16.248,0,0,0,1111,229.552a18.82,18.82,0,0,0,8.877-16.467,17.555,17.555,0,0,0-.344-5.866,19.636,19.636,0,0,0-17.284-14.46,25.093,25.093,0,0,0-10.445.847,20.987,20.987,0,0,0-4.831,1.694,12.544,12.544,0,0,0-5.74,5.8l-29.7-12.546-6.43-2.729a86.417,86.417,0,0,0,3.137-22.929v-4.548l23.933-5.3,13.33-2.948a22.875,22.875,0,0,0,5.239,7.371,16,16,0,0,0,9.409,3.921,21.965,21.965,0,0,0,3.137,0,32.062,32.062,0,0,0,9.661-1.255,16.467,16.467,0,0,0,9.629-7.183,18.817,18.817,0,0,0,.314-18.851Z" transform="translate(-755.768 0.006)" fill="#4f4a88"/>
  <path id="Trazado_75" data-name="Trazado 75" d="M1065.346,446.5a9.394,9.394,0,0,0-1.63-2.76,10.634,10.634,0,0,0-11.951-2.635,13.892,13.892,0,0,0-4.83,3.137,11.548,11.548,0,0,0-1.882,2.039,6.657,6.657,0,0,0-1.317,4.234l-17.471,1.318-2.509.188a47.058,47.058,0,0,0-5.9-14.554l9.409-7.842,5.677-4.767a12.556,12.556,0,0,0,4.361,2.258,9.1,9.1,0,0,0,7.088-1.317,18.6,18.6,0,0,0,4.361-3.137,8.974,8.974,0,0,0,2.823-5.866,10.2,10.2,0,0,0-4.548-9.065,9.42,9.42,0,0,0-2.7-1.694,10.632,10.632,0,0,0-11.825,3.137,14.438,14.438,0,0,0-2.918,4.925,11.166,11.166,0,0,0-.721,2.666,6.864,6.864,0,0,0,.753,4.36l-14.867,9.19-1.38.847A47.884,47.884,0,0,0,1000.826,421l4.517-10.821c.972-2.29,1.912-4.58,2.854-6.838a12.225,12.225,0,0,0,4.893,0,8.5,8.5,0,0,0,4.736-3.137,11.176,11.176,0,0,0,.973-1.411,17.2,17.2,0,0,0,2.478-4.674,8.912,8.912,0,0,0-.188-6.493,10.162,10.162,0,0,0-8.218-5.959,8.312,8.312,0,0,0-3.137-.251,10.633,10.633,0,0,0-9.065,8.249,13.836,13.836,0,0,0-.281,5.677,10,10,0,0,0,.565,2.729,6.609,6.609,0,0,0,2.7,3.513q-4.516,7.5-8.97,15.025c-.252.376-.471.752-.69,1.129a46.137,46.137,0,0,0-15.935-2.823c-.314-3.952-.659-7.936-.972-11.888-.22-2.446-.408-4.925-.628-7.371a12.539,12.539,0,0,0,4.329-2.258,8.845,8.845,0,0,0,2.823-4.862,15.615,15.615,0,0,0,.219-1.725,16.476,16.476,0,0,0,0-5.27,8.909,8.909,0,0,0-3.136-5.709,10.289,10.289,0,0,0-10.038-1.506,9.656,9.656,0,0,0-2.917,1.255,10.6,10.6,0,0,0-4.234,11.512,13.582,13.582,0,0,0,2.352,5.175,11.541,11.541,0,0,0,1.757,2.165,6.712,6.712,0,0,0,3.983,1.851l-1.034,17.471v1.725a46.82,46.82,0,0,0-17.5,6.555c-2.51-3.45-5.019-6.932-7.5-10.414l-4.328-6.022a13.176,13.176,0,0,0,2.571-4.172,8.617,8.617,0,0,0,0-5.615,9.789,9.789,0,0,0-.689-1.569,17.624,17.624,0,0,0-2.7-4.579,8.971,8.971,0,0,0-5.615-3.136,10.289,10.289,0,0,0-9.41,3.858,9.422,9.422,0,0,0-1.882,2.572A10.665,10.665,0,0,0,925.766,405a14.427,14.427,0,0,0,4.674,3.137,13.21,13.21,0,0,0,2.635.941,6.964,6.964,0,0,0,4.392-.439q4.045,7.779,8.06,15.683l1.349,2.54a47.027,47.027,0,0,0-9.409,11.669L924.92,432.26,918.3,428.9a12.324,12.324,0,0,0,.345-4.893,8.751,8.751,0,0,0-2.634-4.925,14.751,14.751,0,0,0-1.349-1.1,16.908,16.908,0,0,0-4.517-2.792,8.686,8.686,0,0,0-6.461-.314,10.127,10.127,0,0,0-6.555,7.748,8.883,8.883,0,0,0-.5,3.136,10.665,10.665,0,0,0,7.56,9.661,14.234,14.234,0,0,0,5.645.722,11.464,11.464,0,0,0,2.76-.377,6.741,6.741,0,0,0,3.7-2.415l14.334,10.069,3.451,2.415a47.057,47.057,0,0,0-2.854,13.989H908.359a12.547,12.547,0,0,0-1.946-4.485,8.692,8.692,0,0,0-4.611-3.137,10.773,10.773,0,0,0-1.694-.345,17.684,17.684,0,0,0-5.269-.408,9,9,0,0,0-5.929,2.7,10.165,10.165,0,0,0-2.227,9.912,9.426,9.426,0,0,0,1,3.137,10.667,10.667,0,0,0,11.167,5.081,13.751,13.751,0,0,0,5.332-1.976,11.835,11.835,0,0,0,2.29-1.568,6.966,6.966,0,0,0,2.164-3.858l17.346,2.321,5.551.752a45.976,45.976,0,0,0,3.546,12.986l-.534.314-14.524,7.372-6.556,3.482a12.554,12.554,0,0,0-3.8-3.137,8.686,8.686,0,0,0-5.551-.659,7.733,7.733,0,0,0-1.663.471,17.77,17.77,0,0,0-4.894,2.039,8.972,8.972,0,0,0-3.983,5.144,10.256,10.256,0,0,0,2.572,9.818,9.415,9.415,0,0,0,2.289,2.2,10.571,10.571,0,0,0,12.233-.628,13.392,13.392,0,0,0,3.858-4.2,10.753,10.753,0,0,0,1.286-2.446,6.932,6.932,0,0,0,.156-4.423l16.468-5.928,6.273-2.227a46.5,46.5,0,0,0,8.563,9.661l-.753,1.1-9.065,13.142-4.234,6.085a12.211,12.211,0,0,0-4.8-1,8.719,8.719,0,0,0-5.269,1.945,11.13,11.13,0,0,0-1.255,1.192,18.138,18.138,0,0,0-3.388,4.046,8.818,8.818,0,0,0-1.161,6.273,10.192,10.192,0,0,0,6.776,7.528,8.907,8.907,0,0,0,3.136.909,10.665,10.665,0,0,0,10.57-6.273,13.621,13.621,0,0,0,1.474-5.489,10.167,10.167,0,0,0,0-2.76,6.87,6.87,0,0,0-1.882-4.015l11.888-12.829,4.83-5.207a48.242,48.242,0,0,0,11.731,4.862v1.443c-.69,5.27-1.349,10.539-2.008,15.683l-.941,7.34a12.548,12.548,0,0,0-4.705,1.317,8.845,8.845,0,0,0-3.763,4.172,14.158,14.158,0,0,0-.564,1.631,18.836,18.836,0,0,0-1.13,5.176,8.906,8.906,0,0,0,1.913,6.273,10.132,10.132,0,0,0,9.41,3.545,8.7,8.7,0,0,0,3.136-.6,10.664,10.664,0,0,0,6.525-10.382,13.794,13.794,0,0,0-1.192-5.552,12.584,12.584,0,0,0-1.286-2.478,6.875,6.875,0,0,0-3.545-2.666q2.352-8.422,4.674-16.875c.6-2.227,1.223-4.486,1.85-6.744,1.224,0,2.447.157,3.671.157a46.815,46.815,0,0,0,9.194-.911l.309.911q2.76,7.528,5.52,14.993c.878,2.321,1.725,4.642,2.572,6.963a12.559,12.559,0,0,0-3.577,3.325,8.731,8.731,0,0,0-1.411,5.426,11.139,11.139,0,0,0,.252,1.725,17.86,17.86,0,0,0,1.38,5.112,8.932,8.932,0,0,0,4.548,4.611,10.161,10.161,0,0,0,10.068-1.191,10.269,10.269,0,0,0,2.51-1.977,10.728,10.728,0,0,0,1-12.233,13.855,13.855,0,0,0-3.638-4.36,11.5,11.5,0,0,0-2.258-1.632,6.965,6.965,0,0,0-4.36-.721l-3.67-17.126-1.317-6.273a47,47,0,0,0,11.668-6.618l11.794,10.759,5.458,4.987a12.561,12.561,0,0,0-1.632,4.611,9.411,9.411,0,0,0,2.258,6.869,16.948,16.948,0,0,0,3.576,3.89,9.034,9.034,0,0,0,6.273,2.038,10.162,10.162,0,0,0,8.375-5.74,9.99,9.99,0,0,0,1.317-2.885,10.7,10.7,0,0,0-4.737-11.323,13.613,13.613,0,0,0-5.238-2.2,10.433,10.433,0,0,0-2.76-.376,6.682,6.682,0,0,0-4.2,1.349l-11.135-13.519-3.136-3.983a47.215,47.215,0,0,0,7.841-11.762l14.115,3.764,7.183,1.913a12.511,12.511,0,0,0,.659,4.831,8.494,8.494,0,0,0,3.638,4.266,8.872,8.872,0,0,0,1.537.784,17.236,17.236,0,0,0,4.956,1.819,9.006,9.006,0,0,0,6.274-1.036,10.225,10.225,0,0,0,4.8-8.939,9.13,9.13,0,0,0-.189-3.137,10.664,10.664,0,0,0-9.409-7.842,14.019,14.019,0,0,0-5.678.439,12.27,12.27,0,0,0-2.6.941,6.834,6.834,0,0,0-3.137,3.137l-16.248-6.461-3.513-1.475a46.393,46.393,0,0,0,1.663-12.547v-2.478l12.985-2.886,7.246-1.6a12.118,12.118,0,0,0,2.823,3.983,8.566,8.566,0,0,0,5.175,2.133,10.594,10.594,0,0,0,1.726,0,18.069,18.069,0,0,0,5.238-.69,8.814,8.814,0,0,0,5.207-3.89A10.1,10.1,0,0,0,1065.346,446.5Z" transform="translate(-554.724 798.353)" fill="#6060a0"/>
  <path id="Trazado_76" data-name="Trazado 76" d="M889.545,348.191a5.372,5.372,0,0,0-1-1.663,6.431,6.431,0,0,0-7.246-1.6,8.812,8.812,0,0,0-2.948,1.85A5.208,5.208,0,0,0,877.219,348a3.922,3.922,0,0,0-.816,2.572l-10.6.784h-1.536a28.218,28.218,0,0,0-3.576-8.846l5.709-4.768,3.451-2.886a7.336,7.336,0,0,0,2.634,1.38,5.458,5.458,0,0,0,3.388-.314,6.877,6.877,0,0,0,.942-.5,10.377,10.377,0,0,0,2.634-1.819,5.515,5.515,0,0,0,1.725-3.576,7.559,7.559,0,0,0-4.422-6.524,6.524,6.524,0,0,0-7.183,1.913,8.926,8.926,0,0,0-1.757,2.98,6.3,6.3,0,0,0-.439,1.631,4.075,4.075,0,0,0,.471,2.666l-9.065,5.583-.816.5a29.715,29.715,0,0,0-7.622-6.273c.94-2.2,1.85-4.36,2.76-6.555l1.726-4.172a7.341,7.341,0,0,0,2.979,0,5.238,5.238,0,0,0,2.855-1.819,5.444,5.444,0,0,0,.6-.878,10.381,10.381,0,0,0,1.506-2.854,5.457,5.457,0,0,0,0-3.921,6.271,6.271,0,0,0-4.987-3.638,5.761,5.761,0,0,0-1.945-.157,6.461,6.461,0,0,0-5.489,5.018,8.52,8.52,0,0,0-.188,3.45,6.048,6.048,0,0,0,.344,1.662,4.016,4.016,0,0,0,1.632,2.133l-5.458,9.128-.408.69a28.226,28.226,0,0,0-9.661-1.725c-.22-2.415-.408-4.8-.6-7.214l-.377-4.485a7.589,7.589,0,0,0,2.635-1.38,5.3,5.3,0,0,0,1.693-2.949,5.511,5.511,0,0,0,0-1.035,9.966,9.966,0,0,0,0-3.136,5.456,5.456,0,0,0-1.914-3.45,6.274,6.274,0,0,0-6.116-.941,5.824,5.824,0,0,0-1.756.753,6.461,6.461,0,0,0-2.572,6.995,8.223,8.223,0,0,0,1.411,3.136,7.066,7.066,0,0,0,1.067,1.286,4.233,4.233,0,0,0,2.446,1.16l-.627,10.6v1.035a29.2,29.2,0,0,0-10.665,3.983l-4.548-6.273c-.879-1.192-1.725-2.415-2.6-3.639a7.87,7.87,0,0,0,1.536-2.54,5.318,5.318,0,0,0,0-3.419,6.2,6.2,0,0,0-.439-.941,10.322,10.322,0,0,0-1.631-2.792,5.612,5.612,0,0,0-3.419-1.976A6.275,6.275,0,0,0,804.448,314a5.225,5.225,0,0,0-1.16,1.568,6.46,6.46,0,0,0,1.38,7.309,8.308,8.308,0,0,0,2.854,1.976,7.218,7.218,0,0,0,1.568.565,4.236,4.236,0,0,0,2.666-.251l4.925,9.41c.25.533.533,1.035.815,1.568a28.74,28.74,0,0,0-5.8,7.089l-7.748-3.7-4.014-2.039a7.278,7.278,0,0,0,.219-2.948,5.24,5.24,0,0,0-1.6-3.137,5.343,5.343,0,0,0-.815-.659,11.289,11.289,0,0,0-2.729-1.694,5.392,5.392,0,0,0-3.952-.188,6.275,6.275,0,0,0-3.984,4.7,4.905,4.905,0,0,0-.282,1.913,6.273,6.273,0,0,0,4.58,5.834,8.367,8.367,0,0,0,3.419.471,10.014,10.014,0,0,0,1.694-.22,4.142,4.142,0,0,0,2.227-1.474l8.719,6.273,2.1,1.475a27.137,27.137,0,0,0-1.725,8.469h-13.9a7.6,7.6,0,0,0-1.192-2.729,5.143,5.143,0,0,0-2.791-1.913l-1.036-.22a11.155,11.155,0,0,0-3.137-.251,5.393,5.393,0,0,0-3.607,1.662,6.273,6.273,0,0,0-1.349,5.991,6.054,6.054,0,0,0,.6,1.851,6.524,6.524,0,0,0,6.805,3.137,8.25,8.25,0,0,0,3.137-1.192,6.074,6.074,0,0,0,1.379-.973,3.89,3.89,0,0,0,1.318-2.321l10.539,1.411,3.356.439a28.869,28.869,0,0,0,2.164,7.9l-.313.188-8.563,4.548-3.984,2.1a7.4,7.4,0,0,0-2.321-1.882,5.172,5.172,0,0,0-3.355-.408,6.264,6.264,0,0,0-1.036.282,9.842,9.842,0,0,0-2.948,1.255,5.427,5.427,0,0,0-2.415,3.137,6.273,6.273,0,0,0,1.537,5.959,5.228,5.228,0,0,0,1.412,1.349,6.461,6.461,0,0,0,7.434-.376,8.187,8.187,0,0,0,2.321-2.541,6.857,6.857,0,0,0,.783-1.506,4.2,4.2,0,0,0,0-2.7l10.006-3.576,3.8-1.38a27.258,27.258,0,0,0,5.206,5.866l-.47.69-5.52,7.967-2.541,3.7a7.366,7.366,0,0,0-2.917-.6,5.08,5.08,0,0,0-3.136,1.192,8.545,8.545,0,0,0-.784.722,10.22,10.22,0,0,0-2.039,2.478,5.209,5.209,0,0,0-.721,3.858,6.275,6.275,0,0,0,4.423,4.579,5.022,5.022,0,0,0,1.882.565,6.461,6.461,0,0,0,6.273-3.764,8.214,8.214,0,0,0,.91-3.356,7.309,7.309,0,0,0,0-1.662,4.164,4.164,0,0,0-1.16-2.446l7.245-7.779,2.917-3.136a28.722,28.722,0,0,0,7.151,3.136v.878l-1.223,9.6-.565,4.485a8.058,8.058,0,0,0-2.854.784,5.46,5.46,0,0,0-2.29,2.541,9.388,9.388,0,0,0-.345,1,10.778,10.778,0,0,0-.658,3.137,5.429,5.429,0,0,0,1.13,3.764,6.272,6.272,0,0,0,5.771,2.164,4.952,4.952,0,0,0,1.913-.376A6.273,6.273,0,0,0,834,407.285a8.275,8.275,0,0,0-.721-3.356,6.9,6.9,0,0,0-.785-1.506,4.14,4.14,0,0,0-2.133-1.631l2.823-10.257,1.129-4.077h2.228a29.872,29.872,0,0,0,5.583-.533l.188.565c1.129,3.137,2.259,6.053,3.356,9.1l1.569,4.234a7.376,7.376,0,0,0-2.165,2.008,5.4,5.4,0,0,0-.878,3.136,19.054,19.054,0,0,0,1,4.172,5.268,5.268,0,0,0,2.76,2.823,6.273,6.273,0,0,0,6.116-.721,5.173,5.173,0,0,0,1.505-1.223,6.274,6.274,0,0,0,.628-7.4,8.248,8.248,0,0,0-2.227-2.666,6.667,6.667,0,0,0-1.349-.972,4.049,4.049,0,0,0-2.666-.439c-.721-3.482-1.474-6.932-2.226-10.413-.252-1.255-.534-2.478-.785-3.733a28.737,28.737,0,0,0,7.088-4.015l7.152,6.524,3.324,3.137a7.686,7.686,0,0,0-1,2.792,5.613,5.613,0,0,0,.753,3.325l.627.847a10.518,10.518,0,0,0,2.164,2.384,5.457,5.457,0,0,0,3.764,1.224,6.274,6.274,0,0,0,5.082-3.482,5.214,5.214,0,0,0,.784-1.757,6.274,6.274,0,0,0-2.854-6.869,8.284,8.284,0,0,0-3.137-1.349,5.887,5.887,0,0,0-1.663-.22,4.077,4.077,0,0,0-2.571.815l-6.744-8.218-2.007-2.415a29.158,29.158,0,0,0,4.8-7.151l8.563,2.289,4.36,1.161a7.7,7.7,0,0,0,.408,2.949,5.329,5.329,0,0,0,2.2,2.572l.94.5a12,12,0,0,0,3.137,1.1,5.428,5.428,0,0,0,3.89-.659,6.083,6.083,0,0,0,2.916-5.426,4.91,4.91,0,0,0,0-1.913,6.46,6.46,0,0,0-5.708-4.768,8.554,8.554,0,0,0-3.45.251,6.909,6.909,0,0,0-1.6.564,4.106,4.106,0,0,0-1.882,1.913l-9.786-4.172-2.1-.91a28.234,28.234,0,0,0,1-7.528v-1.506l7.559-1.914,4.391-.972a8.03,8.03,0,0,0,1.725,2.446,5.49,5.49,0,0,0,3.137,1.286h1.067a10.731,10.731,0,0,0,3.136-.408,5.454,5.454,0,0,0,3.137-2.353A6.27,6.27,0,0,0,889.545,348.191Z" transform="translate(-780.536 649.276)" fill="#6060a0"/>
</svg>
